<?xml version="1.0" encoding="utf-8"?>
<!-- Generator: Adobe Illustrator 21.0.1, SVG Export Plug-In . SVG Version: 6.00 Build 0)  -->
<svg version="1.1" id="Layer_1" xmlns="http://www.w3.org/2000/svg" xmlns:xlink="http://www.w3.org/1999/xlink" x="0px" y="0px"
	 viewBox="0 0 32 32" style="enable-background:new 0 0 32 32;" xml:space="preserve">
<style type="text/css">
	.st0{fill:#E0E0E0;}
	.st1{fill:#3A5EA5;}
	.st2{fill:#606060;}
	.st3{fill:#EA983E;}
	.st4{fill:#76B751;}
</style>
<title>Artboard 1</title>
<circle class="st0" cx="16" cy="16" r="15"/>
<path class="st1" d="M30.7,11.9c-0.1-0.4-0.4-0.7-0.8-0.7h-3.6l0.2-1.6c0.1-0.5-0.2-0.9-0.7-1c0,0-0.1,0-0.1,0H10.4
	C9.9,8.7,9.6,9,9.5,9.4l-0.3,1.8H5.1c-0.5,0.1-0.8,0.5-0.8,0.9c0,0.4,0.4,0.7,0.8,0.8H9l-0.2,1.7H3.4c-0.5,0.1-0.8,0.5-0.8,0.9
	c0,0.4,0.4,0.7,0.8,0.8h5.2l-0.7,5c-0.1,0.5,0.2,0.9,0.7,1c0,0,0.1,0,0.1,0h1.8c0.4,1.3,1.9,2,3.2,1.6c0.7-0.2,1.3-0.8,1.6-1.6h8.1
	c0.4,1.3,1.9,2,3.2,1.6c0.7-0.2,1.3-0.8,1.6-1.6h1.8c0.4,0,0.8-0.3,0.8-0.7l0.9-5.1c0-0.1,0-0.2,0-0.3L30.7,11.9z M23.2,20.7h-8
	c-0.5-1.3-2-1.9-3.3-1.4c-0.6,0.3-1.1,0.8-1.4,1.4H9.6l0.6-4.3h1.7c0.5,0.1,0.9-0.3,0.9-0.8c0.1-0.5-0.3-0.9-0.8-0.9
	c-0.1,0-0.1,0-0.2,0h-1.4l0.2-1.7h4.6c0.5-0.1,0.8-0.5,0.8-0.9c0-0.4-0.4-0.7-0.8-0.8H11l0.1-0.9h13.5L23.2,20.7z M29.2,20.7H28
	c-0.5-1.2-1.7-1.8-2.9-1.5L26,13h3.2l0.2,0.9h-1.9c-0.4,0-0.8,0.3-0.9,0.8l-0.1,1.7c0,0.5,0.3,0.9,0.8,0.9c0,0,0,0,0.1,0h2.4
	L29.2,20.7z"/>
<path class="st1" d="M5.3,18.1H1c-0.5,0.1-0.8,0.5-0.8,0.9c0,0.4,0.4,0.7,0.8,0.8h4.3c0.5,0.1,0.9-0.3,0.9-0.8
	c0.1-0.5-0.3-0.9-0.8-0.9C5.4,18.1,5.4,18.1,5.3,18.1z"/>
<circle class="st2" cx="12.9" cy="21.6" r="0.8"/>
<circle class="st2" cx="25.7" cy="21.6" r="0.8"/>
<path class="st0" d="M29.2,20.7H28c-0.5-1.2-1.7-1.8-2.9-1.5L26,13h3.2l0.2,0.9h-1.9c-0.4,0-0.8,0.3-0.9,0.8l-0.1,1.7
	c0,0.5,0.3,0.9,0.8,0.9c0,0,0,0,0.1,0h2.4L29.2,20.7z"/>
<path class="st3" d="M23.2,20.7h-8c-0.5-1.3-2-1.9-3.3-1.4c-0.6,0.3-1.1,0.8-1.4,1.4H9.6l0.6-4.3h1.7c0.5,0.1,0.9-0.3,0.9-0.8
	c0.1-0.5-0.3-0.9-0.8-0.9c-0.1,0-0.1,0-0.2,0h-1.4l0.2-1.7h4.6c0.5-0.1,0.8-0.5,0.8-0.9c0-0.4-0.4-0.7-0.8-0.8H11l0.1-0.9h13.5
	L23.2,20.7z"/>
<path class="st4" d="M5.1,18.4H0.9c-0.5,0.1-0.8,0.5-0.8,0.9c0,0.4,0.4,0.7,0.8,0.8h4.3c0.5,0.1,0.9-0.3,0.9-0.8
	c0.1-0.5-0.3-0.9-0.8-0.9C5.2,18.4,5.2,18.4,5.1,18.4z"/>
<rect x="9.3" y="16.6" class="st1" width="20.4" height="1"/>
<path class="st4" d="M11.7,15H3c-0.5,0.1-0.8,0.5-0.8,0.9c0,0.4,0.4,0.7,0.8,0.8h8.7c0.5,0.1,0.9-0.3,0.9-0.8
	c0.1-0.5-0.3-0.9-0.8-0.9C11.8,15,11.8,15,11.7,15L11.7,15z"/>
<path class="st4" d="M15.1,11.6H4.7c-0.5,0.1-0.8,0.5-0.8,0.9c0,0.4,0.4,0.7,0.8,0.8h10.4c0.5-0.1,0.8-0.5,0.8-0.9
	C15.8,11.9,15.5,11.6,15.1,11.6z"/>
</svg>
