<?xml version="1.0" encoding="utf-8"?>
<!-- Generator: Adobe Illustrator 21.0.1, SVG Export Plug-In . SVG Version: 6.00 Build 0)  -->
<svg version="1.1" id="Layer_1" xmlns="http://www.w3.org/2000/svg" xmlns:xlink="http://www.w3.org/1999/xlink" x="0px" y="0px"
	 viewBox="0 0 32 32" style="enable-background:new 0 0 32 32;" xml:space="preserve">
<style type="text/css">
	.st0{fill:#E0E0E0;}
	.st1{fill:#EA983E;}
	.st2{fill:#3A5EA5;}
	.st3{fill:#76B751;}
	.st4{enable-background:new    ;}
	.st5{fill:#606060;}
</style>
<title>Artboard 1</title>
<circle class="st0" cx="16" cy="16" r="15"/>
<g>
	<path class="st1" d="M26.8,14c-0.3-0.1-0.6-0.1-0.8,0c-0.5-1.8-1.5-3.5-3-4.7c-0.2-0.9,0-1.8,0.5-2.5c0.2-0.3,0.1-0.7-0.3-0.9
		c-0.1-0.1-0.3-0.1-0.4-0.1c-1.3,0.1-2.5,0.7-3.3,1.8c-0.7-0.2-1.3-0.3-2-0.3l0,0c1.6,4.3-0.7,9-4.9,10.6c-2.5,0.9-5.3,0.6-7.5-0.9
		c0,0,0,0.1,0,0.1c0.1,2.5,1.2,4.8,3.1,6.5c0.6,0.6,1,1.4,1,2.2v1.1c0,0.3,0.3,0.6,0.6,0.6l0,0h3.7c0.3,0,0.6-0.3,0.6-0.6l0,0v-0.9
		h2.9v0.9c0,0.3,0.3,0.6,0.6,0.6c0,0,0,0,0,0h3.7c0.3,0,0.6-0.3,0.6-0.6c0,0,0,0,0,0v-0.8c0-0.9,0.3-1.7,1-2.3
		c1.5-1.2,2.5-2.8,3-4.7c0.3,0.1,0.6,0.1,0.8,0c0.7-0.2,1.1-0.8,1.1-1.5v-1.8C28,14.8,27.5,14.2,26.8,14z"/>
	<path class="st2" d="M21.4,28h-3.7c-0.8,0-1.4-0.6-1.4-1.4v-0.2h-1.4v0.2c0,0.8-0.6,1.4-1.4,1.4H9.9c-0.8,0-1.4-0.6-1.4-1.4v-1.1
		c0-0.6-0.3-1.2-0.8-1.6c-2-1.8-3.2-4.3-3.3-7h0c0-0.1,0-0.2,0-0.3c0.1-0.2,0.2-0.4,0.5-0.5C5.1,16,5.4,16,5.6,16.2
		c2,1.4,4.5,1.7,6.8,0.9c3.9-1.4,5.9-5.7,4.5-9.6c-0.1-0.2,0-0.5,0.1-0.7s0.4-0.3,0.6-0.3c0.6,0,1.1,0.1,1.7,0.2
		c0.9-1,2.1-1.5,3.5-1.7c0.3,0,0.6,0,0.8,0.2c0.3,0.2,0.6,0.5,0.7,0.9c0.1,0.4,0.1,0.8-0.1,1.1c-0.4,0.6-0.5,1.2-0.5,1.8
		c1.3,1.2,2.3,2.6,2.8,4.3c0.2,0,0.3,0,0.5,0.1c1.1,0.3,1.8,1.2,1.8,2.3v1.8c0,1-0.7,1.9-1.7,2.2c-0.2,0-0.3,0.1-0.5,0.1
		c-0.6,1.7-1.6,3.3-3.1,4.4c-0.5,0.4-0.7,1.1-0.7,1.7v0.8C22.8,27.4,22.2,28,21.4,28z M17.9,26.5h3.4v-0.7c0-1.1,0.4-2.1,1.2-2.9
		c1.4-1.1,2.3-2.6,2.8-4.3c0.1-0.2,0.2-0.4,0.4-0.5c0.2-0.1,0.4-0.1,0.6-0.1c0.1,0,0.3,0,0.4,0c0.3-0.1,0.6-0.4,0.6-0.8v-1.8
		c0-0.4-0.2-0.8-0.6-0.9c0,0,0,0,0,0c-0.1,0-0.3,0-0.4,0c-0.2,0.1-0.4,0-0.6-0.1c-0.2-0.1-0.3-0.3-0.4-0.5c-0.5-1.7-1.4-3.2-2.8-4.3
		c-0.1-0.1-0.2-0.3-0.3-0.4c-0.2-1,0-2.1,0.6-3c-1,0.1-2,0.7-2.7,1.5c-0.2,0.2-0.5,0.3-0.8,0.3c-0.3-0.1-0.5-0.1-0.8-0.2
		C19,10,18.8,12,18,13.8c-1,2.2-2.8,3.8-5.1,4.6c-2.2,0.8-4.7,0.7-6.8-0.3c0.4,1.8,1.3,3.4,2.7,4.6c0.8,0.7,1.2,1.7,1.3,2.8v1h3.4
		v-0.8c0-0.4,0.3-0.8,0.8-0.8h2.9c0.4,0,0.8,0.3,0.8,0.8V26.5z"/>
</g>
<path class="st0" d="M9.8,15.5c-3,0-5.5-2.5-5.5-5.5s2.5-5.5,5.5-5.5S15.3,7,15.3,10C15.3,13.1,12.8,15.5,9.8,15.5z"/>
<path class="st3" d="M9.8,5c2.8,0,5,2.2,5,5s-2.2,5-5,5s-5-2.2-5-5S7,5,9.8,5 M9.8,5.6c2.4,0,4.4,2,4.4,4.4c0,2.4-2,4.4-4.4,4.4
	c-2.4,0-4.4-2-4.4-4.4c0,0,0,0,0,0C5.4,7.6,7.4,5.6,9.8,5.6 M9.8,4.9c-2.8,0-5.2,2.3-5.2,5.2c0,2.8,2.3,5.2,5.2,5.2s5.2-2.3,5.2-5.2
	c0,0,0,0,0,0C14.9,7.2,12.6,4.9,9.8,4.9z M9.8,4c-3.3,0-6,2.7-6,6s2.7,6,6,6s6-2.7,6-6S13.1,4,9.8,4z"/>
<g class="st4">
	<path class="st5" d="M8,9.7c0-0.1,0-0.2,0.1-0.2c0.1-0.1,0.1-0.1,0.3-0.1h0.3V8.7c0-0.2,0-0.4,0.1-0.6C8.8,7.9,8.9,7.7,9,7.6
		s0.3-0.3,0.5-0.3c0.2-0.1,0.4-0.1,0.7-0.1c0.2,0,0.3,0,0.5,0.1c0.1,0,0.3,0.1,0.4,0.2c0.1,0.1,0.2,0.2,0.3,0.3
		c0.1,0.1,0.2,0.2,0.2,0.4l-0.4,0.3c-0.1,0-0.2,0.1-0.2,0.1c-0.1,0-0.2,0-0.3-0.1C10.6,8.1,10.5,8,10.5,8c-0.1,0-0.2-0.1-0.3-0.1
		C10,7.9,9.9,8,9.8,8.1C9.7,8.3,9.7,8.4,9.7,8.7v0.7H11v0.4c0,0,0,0.1,0,0.1c0,0,0,0.1-0.1,0.1c0,0-0.1,0-0.1,0.1c0,0-0.1,0-0.1,0
		h-1v0.5c0,0.1,0,0.3-0.1,0.4c-0.1,0.1-0.1,0.2-0.2,0.3c0.1,0,0.2,0,0.3-0.1c0.1,0,0.2,0,0.3,0h1.7v0.4c0,0,0,0.1,0,0.2
		c0,0.1-0.1,0.1-0.1,0.1c0,0-0.1,0.1-0.1,0.1c-0.1,0-0.1,0-0.2,0H8.1v-0.6c0.1,0,0.1,0,0.2-0.1s0.1-0.1,0.2-0.1
		c0.1,0,0.1-0.1,0.1-0.2c0-0.1,0-0.1,0-0.2V10H8V9.7z"/>
</g>
<circle class="st5" cx="21.8" cy="13.6" r="1"/>
</svg>
