<?xml version="1.0" encoding="utf-8"?>
<!-- Generator: Adobe Illustrator 21.0.1, SVG Export Plug-In . SVG Version: 6.00 Build 0)  -->
<svg version="1.1" id="Layer_1" xmlns="http://www.w3.org/2000/svg" xmlns:xlink="http://www.w3.org/1999/xlink" x="0px" y="0px"
	 viewBox="0 0 32 32" style="enable-background:new 0 0 32 32;" xml:space="preserve">
<style type="text/css">
	.st0{fill:#E0E0E0;}
	.st1{fill:#76B751;}
	.st2{fill:#EA983E;}
	.st3{enable-background:new    ;}
	.st4{fill:#606060;}
	.st5{fill:#3A5EA5;}
</style>
<title>Artboard 1</title>
<circle class="st0" cx="16" cy="16" r="15"/>
<g>
	<path class="st1" d="M16,7c-3.4,4.8-9.4,5.1-9.4,5.1S6.9,24.3,16,27c8.9-3.4,9.4-14.9,9.4-14.9S19.4,11.8,16,7z"/>
	<path class="st2" d="M16,28c-0.1,0-0.2,0-0.3,0C6.1,25.1,5.6,12.7,5.6,12.2c0-0.5,0.4-1,0.9-1c0.1,0,5.6-0.4,8.7-4.7
		C15.4,6.2,15.7,6,16,6l0,0c0.3,0,0.6,0.2,0.8,0.4c3.1,4.3,8.6,4.7,8.7,4.7c0.5,0,1,0.5,0.9,1c0,0.5-0.7,12.2-10.1,15.8
		C16.2,28,16.1,28,16,28z M7.6,13c0.3,2.7,1.7,10.8,8.3,12.9c6.4-2.7,8-10.3,8.4-12.9c-1.8-0.3-5.6-1.3-8.3-4.4
		C13.2,11.7,9.4,12.7,7.6,13z"/>
</g>
<g>
	<path class="st0" d="M16,7c-3.4,4.8-9.4,5.1-9.4,5.1S6.6,23.9,16,27"/>
	<path class="st2" d="M16,28c-0.1,0-0.2,0-0.3-0.1C5.7,24.6,5.6,12.2,5.6,12.1c0-0.5,0.4-1,0.9-1c0.1,0,5.6-0.4,8.7-4.7
		c0.3-0.5,0.9-0.6,1.4-0.2s0.6,0.9,0.2,1.4c-2.8,4-7.2,5.1-9.2,5.4c0.2,2.7,1.5,10.7,8.7,13.1c0.5,0.2,0.8,0.7,0.6,1.3
		C16.8,27.7,16.4,28,16,28z"/>
</g>
<g class="st3">
	<path class="st4" d="M8.7,19.3h1.4v-3.6c0-0.2,0-0.4,0-0.6l-0.8,0.7c-0.1,0-0.1,0.1-0.2,0.1c-0.1,0-0.1,0-0.2,0
		c-0.1,0-0.2,0-0.2-0.1c-0.1,0-0.1-0.1-0.1-0.1l-0.5-0.6l2.2-1.9h1.3v6h1.2v1.1H8.7V19.3z"/>
	<path class="st4" d="M18.6,16.8c0,0.6-0.1,1.2-0.2,1.6s-0.3,0.8-0.6,1.1c-0.2,0.3-0.5,0.5-0.8,0.7c-0.3,0.1-0.7,0.2-1.1,0.2
		s-0.7-0.1-1.1-0.2c-0.3-0.1-0.6-0.4-0.8-0.7c-0.2-0.3-0.4-0.7-0.6-1.1s-0.2-1-0.2-1.6s0.1-1.2,0.2-1.6c0.1-0.5,0.3-0.8,0.6-1.1
		c0.2-0.3,0.5-0.5,0.8-0.7c0.3-0.1,0.7-0.2,1.1-0.2s0.7,0.1,1.1,0.2c0.3,0.1,0.6,0.4,0.8,0.7c0.2,0.3,0.4,0.7,0.6,1.1
		C18.6,15.6,18.6,16.2,18.6,16.8z M17.1,16.8c0-0.5,0-0.9-0.1-1.2c-0.1-0.3-0.1-0.6-0.2-0.7s-0.2-0.3-0.4-0.4
		c-0.1-0.1-0.3-0.1-0.4-0.1s-0.3,0-0.4,0.1c-0.1,0.1-0.2,0.2-0.3,0.4s-0.2,0.4-0.2,0.7c-0.1,0.3-0.1,0.7-0.1,1.2
		c0,0.5,0,0.9,0.1,1.2c0.1,0.3,0.1,0.6,0.2,0.7c0.1,0.2,0.2,0.3,0.3,0.4c0.1,0.1,0.3,0.1,0.4,0.1s0.3,0,0.4-0.1
		c0.1-0.1,0.2-0.2,0.4-0.4c0.1-0.2,0.2-0.4,0.2-0.7C17,17.7,17.1,17.3,17.1,16.8z"/>
	<path class="st4" d="M24.3,16.8c0,0.6-0.1,1.2-0.2,1.6c-0.1,0.5-0.3,0.8-0.6,1.1c-0.2,0.3-0.5,0.5-0.8,0.7
		c-0.3,0.1-0.7,0.2-1.1,0.2s-0.7-0.1-1.1-0.2c-0.3-0.1-0.6-0.4-0.8-0.7s-0.4-0.7-0.6-1.1c-0.1-0.5-0.2-1-0.2-1.6s0.1-1.2,0.2-1.6
		c0.1-0.5,0.3-0.8,0.6-1.1c0.2-0.3,0.5-0.5,0.8-0.7c0.3-0.1,0.7-0.2,1.1-0.2s0.7,0.1,1.1,0.2c0.3,0.1,0.6,0.4,0.8,0.7
		c0.2,0.3,0.4,0.7,0.6,1.1C24.3,15.6,24.3,16.2,24.3,16.8z M22.8,16.8c0-0.5,0-0.9-0.1-1.2c-0.1-0.3-0.1-0.6-0.2-0.7
		s-0.2-0.3-0.4-0.4c-0.1-0.1-0.3-0.1-0.4-0.1s-0.3,0-0.4,0.1c-0.1,0.1-0.2,0.2-0.3,0.4s-0.2,0.4-0.2,0.7c-0.1,0.3-0.1,0.7-0.1,1.2
		c0,0.5,0,0.9,0.1,1.2c0.1,0.3,0.1,0.6,0.2,0.7c0.1,0.2,0.2,0.3,0.3,0.4c0.1,0.1,0.3,0.1,0.4,0.1s0.3,0,0.4-0.1
		c0.1-0.1,0.2-0.2,0.4-0.4c0.1-0.2,0.2-0.4,0.2-0.7C22.7,17.7,22.8,17.3,22.8,16.8z"/>
</g>
<path class="st5" d="M10.3,19.9c0.7,0.6,1.4,1.2,2.1,1.9s1.3,1.3,1.9,2l-1.2-0.1c1.6-1.8,3.3-3.4,5.1-4.9c0.9-0.8,1.8-1.5,2.8-2.2
	c1-0.7,2-1.3,3-1.9c-0.6,1-1.3,2-2.1,2.9c-0.8,0.9-1.6,1.8-2.4,2.6c-1.7,1.7-3.4,3.2-5.3,4.7l-0.7,0.6l-0.4-0.6
	c-0.5-0.8-1-1.6-1.5-2.4S10.7,20.8,10.3,19.9z"/>
</svg>
