<?xml version="1.0" encoding="utf-8"?>
<!-- Generator: Adobe Illustrator 21.0.1, SVG Export Plug-In . SVG Version: 6.00 Build 0)  -->
<svg version="1.1" id="Layer_1" xmlns="http://www.w3.org/2000/svg" xmlns:xlink="http://www.w3.org/1999/xlink" x="0px" y="0px"
	 viewBox="0 0 32 32" style="enable-background:new 0 0 32 32;" xml:space="preserve">
<style type="text/css">
	.st0{fill:#E0E0E0;}
	.st1{fill:#76B751;}
	.st2{fill:#3A5EA5;}
	.st3{fill:#EA983E;}
	.st4{enable-background:new    ;}
</style>
<title>Artboard 1</title>
<circle class="st0" cx="16" cy="16" r="15"/>
<circle class="st1" cx="16" cy="16" r="10"/>
<path class="st2" d="M16.2,26.8c-5.9,0-10.8-4.8-10.8-10.8S10.2,5.2,16.2,5.2S26.9,10.1,26.9,16c0,0.4-0.3,0.8-0.8,0.8
	s-0.8-0.3-0.8-0.8c0-5.1-4.1-9.2-9.2-9.2S6.9,10.9,6.9,16s4.1,9.2,9.2,9.2c0.4,0,0.8,0.3,0.8,0.8S16.6,26.8,16.2,26.8z"/>
<path class="st2" d="M19.2,27.6c-0.3,0-0.5-0.2-0.6-0.4c-0.2-0.4-0.2-0.9,0-1.3l5.2-7.7c0.1-0.3,0.5-0.4,0.8-0.3
	c0.1,0.1,0.2,0.2,0.3,0.3l5.2,7.7c0.3,0.4,0.3,0.9,0,1.3c-0.1,0.2-0.3,0.4-0.6,0.4H19.2z"/>
<path class="st3" d="M24.4,18.7l5.1,7.6c0.1,0.2,0.1,0.4,0,0.6H19.3c-0.1-0.2-0.1-0.4,0-0.6L24.4,18.7 M24.4,17.1
	c-0.5,0-0.9,0.3-1.2,0.7L18,25.5c-0.8,1.2-0.1,2.9,1.2,2.9h10.4c1.2,0,1.9-1.8,1.2-2.9l-5.2-7.7C25.3,17.3,24.8,17.1,24.4,17.1
	L24.4,17.1z"/>
<g class="st4">
	<path class="st0" d="M23.8,25.8c0-0.1,0-0.1,0-0.2c0-0.1,0.1-0.1,0.1-0.2s0.1-0.1,0.2-0.1c0.1,0,0.1,0,0.2,0c0.1,0,0.1,0,0.2,0
		c0.1,0,0.1,0.1,0.2,0.1s0.1,0.1,0.1,0.2c0,0.1,0,0.1,0,0.2c0,0.1,0,0.1,0,0.2c0,0.1-0.1,0.1-0.1,0.2c0,0-0.1,0.1-0.2,0.1
		c-0.1,0-0.1,0-0.2,0c-0.1,0-0.1,0-0.2,0c-0.1,0-0.1-0.1-0.2-0.1c0,0-0.1-0.1-0.1-0.2C23.8,26,23.8,25.9,23.8,25.8z M24.8,21.9v1.7
		c0,0.2,0,0.4,0,0.5c0,0.2-0.1,0.4-0.1,0.6h-0.6c0-0.2-0.1-0.4-0.1-0.6c0-0.2,0-0.4,0-0.5v-1.7H24.8z"/>
</g>
<path class="st2" d="M16.2,17.8c-0.2,0-0.3,0-0.4-0.1c-0.2-0.1-0.3-0.4-0.3-0.6v-4c0-0.4,0.3-0.8,0.8-0.8s0.8,0.3,0.8,0.8V16
	l1.8-0.7c0.4-0.1,0.8,0.1,1,0.4c0.1,0.4-0.1,0.8-0.4,1l-2.8,1.1C16.3,17.8,16.2,17.8,16.2,17.8z"/>
<path class="st0" d="M9.7,16.8H8.2c-0.4,0-0.8-0.3-0.8-0.8s0.3-0.8,0.8-0.8h1.6c0.4,0,0.8,0.3,0.8,0.8S10.1,16.8,9.7,16.8z"/>
<path class="st0" d="M16.2,24.8c-0.4,0-0.8-0.3-0.8-0.8v-1.5c0-0.4,0.3-0.8,0.8-0.8s0.8,0.3,0.8,0.8V24
	C16.9,24.4,16.6,24.8,16.2,24.8z"/>
<path class="st0" d="M16.2,10.2c-0.4,0-0.8-0.3-0.8-0.8V8c0-0.4,0.3-0.8,0.8-0.8s0.8,0.3,0.8,0.8v1.5C16.9,9.9,16.6,10.2,16.2,10.2z
	"/>
</svg>
