<svg id="Layer_1" data-name="Layer 1" xmlns="http://www.w3.org/2000/svg" viewBox="0 0 32 32"><defs><style>.cls-1{fill:#e0e0e0;}.cls-2{fill:#ea983e;}.cls-3{fill:#606060;}.cls-4{fill:#3a5ea5;}.cls-5{fill:#76b751;}</style></defs><title>Artboard 1</title><circle class="cls-1" cx="16" cy="16" r="15"/><path class="cls-2" d="M3.32,15.2H13.72A2.32,2.32,0,0,1,16,17.52v5.42a2.32,2.32,0,0,1-2.32,2.32h-.56c-2.26,0-.8,3.38-1.18,3.51-.78.15-2.76-3.25-4.42-3.51H3.32A2.32,2.32,0,0,1,1,22.94V17.52A2.32,2.32,0,0,1,3.32,15.2Z"/><path class="cls-3" d="M4.71,21.41a.31.31,0,0,1,.08-.21A.29.29,0,0,1,5,21.11h.25v-.65a1.67,1.67,0,0,1,.09-.54,1.25,1.25,0,0,1,.27-.45,1.29,1.29,0,0,1,.45-.31A1.6,1.6,0,0,1,6.71,19a1.47,1.47,0,0,1,.44.06,1.24,1.24,0,0,1,.35.17,1.32,1.32,0,0,1,.27.26,2,2,0,0,1,.2.32l-.37.23a.45.45,0,0,1-.21.06A.34.34,0,0,1,7.14,20a1.07,1.07,0,0,0-.21-.17.42.42,0,0,0-.22-.06.41.41,0,0,0-.36.17.84.84,0,0,0-.12.49v.65H7.37v.35a.19.19,0,0,1,0,.09l-.05.07-.08.05-.1,0H6.23v.47a.76.76,0,0,1-.07.33,1.09,1.09,0,0,1-.18.27l.27,0,.27,0H8v.38a.35.35,0,0,1,0,.13.43.43,0,0,1-.08.13.42.42,0,0,1-.12.09.39.39,0,0,1-.16,0H4.77V22.9L5,22.85a.58.58,0,0,0,.16-.1.46.46,0,0,0,.11-.14.43.43,0,0,0,0-.19V21.7H4.71Z"/><path class="cls-3" d="M8.69,21.41a.31.31,0,0,1,.08-.21A.29.29,0,0,1,9,21.11h.25v-.65a1.67,1.67,0,0,1,.09-.54,1.25,1.25,0,0,1,.27-.45,1.29,1.29,0,0,1,.45-.31,1.6,1.6,0,0,1,.63-.12,1.47,1.47,0,0,1,.44.06,1.24,1.24,0,0,1,.35.17,1.32,1.32,0,0,1,.27.26,2,2,0,0,1,.2.32l-.37.23a.45.45,0,0,1-.21.06.34.34,0,0,1-.25-.11,1.07,1.07,0,0,0-.21-.17.42.42,0,0,0-.22-.06.41.41,0,0,0-.36.17.84.84,0,0,0-.12.49v.65h1.14v.35a.19.19,0,0,1,0,.09l-.05.07-.08.05-.1,0h-.88v.47a.76.76,0,0,1-.07.33,1.09,1.09,0,0,1-.18.27l.27,0,.27,0H12v.38a.35.35,0,0,1,0,.13.43.43,0,0,1-.08.13.42.42,0,0,1-.12.09.39.39,0,0,1-.16,0H8.75V22.9l.19-.06a.58.58,0,0,0,.16-.1.46.46,0,0,0,.11-.14.43.43,0,0,0,0-.19V21.7H8.69Z"/><path class="cls-4" d="M27.79,3.22H13.43a3.21,3.21,0,0,0-3.21,3.21v7.49a3.21,3.21,0,0,0,3.21,3.21h.78c3.12,0,1.11,4.67,1.63,4.84,1.08.21,3.82-4.5,6.11-4.84h5.84A3.21,3.21,0,0,0,31,13.93V6.43A3.21,3.21,0,0,0,27.79,3.22Z"/><path class="cls-5" d="M13.86,10.86a.41.41,0,0,1,.1-.28.38.38,0,0,1,.31-.12h.34V9.6a2.22,2.22,0,0,1,.12-.72,1.68,1.68,0,0,1,.35-.6,1.71,1.71,0,0,1,.6-.41,2.13,2.13,0,0,1,.85-.15,2,2,0,0,1,.59.08,1.65,1.65,0,0,1,.47.23,1.73,1.73,0,0,1,.36.34,2.57,2.57,0,0,1,.27.43l-.5.31a.59.59,0,0,1-.28.08A.45.45,0,0,1,17.09,9a1.53,1.53,0,0,0-.28-.23.56.56,0,0,0-.3-.08A.55.55,0,0,0,16,9a1.13,1.13,0,0,0-.16.65v.87h1.52v.47a.26.26,0,0,1,0,.11.33.33,0,0,1-.07.1.34.34,0,0,1-.11.07.35.35,0,0,1-.14,0H15.87v.62a1,1,0,0,1-.09.43,1.46,1.46,0,0,1-.24.36l.36-.06.36,0h2v.51a.49.49,0,0,1,0,.18.55.55,0,0,1-.11.17.5.5,0,0,1-.17.12.5.5,0,0,1-.22,0H13.93v-.74a1.14,1.14,0,0,0,.25-.08.77.77,0,0,0,.21-.13.61.61,0,0,0,.15-.19.58.58,0,0,0,.06-.26v-1h-.74Z"/><path class="cls-5" d="M18.84,10.86a.41.41,0,0,1,.1-.28.38.38,0,0,1,.31-.12h.34V9.6a2.24,2.24,0,0,1,.12-.72,1.67,1.67,0,0,1,.35-.6,1.71,1.71,0,0,1,.6-.41,2.13,2.13,0,0,1,.85-.15,2,2,0,0,1,.59.08,1.65,1.65,0,0,1,.47.23,1.73,1.73,0,0,1,.36.34,2.57,2.57,0,0,1,.27.43l-.5.31a.59.59,0,0,1-.28.08A.45.45,0,0,1,22.07,9a1.51,1.51,0,0,0-.28-.23.56.56,0,0,0-.3-.08A.55.55,0,0,0,21,9a1.13,1.13,0,0,0-.16.65v.87h1.52v.47a.26.26,0,0,1,0,.11.33.33,0,0,1-.07.1.34.34,0,0,1-.11.07.35.35,0,0,1-.14,0H20.85v.62a1,1,0,0,1-.09.43,1.44,1.44,0,0,1-.24.36l.36-.06.36,0h2v.51a.49.49,0,0,1,0,.18.55.55,0,0,1-.11.17.5.5,0,0,1-.17.12.5.5,0,0,1-.22,0H18.91v-.74a1.15,1.15,0,0,0,.25-.08.77.77,0,0,0,.21-.13.61.61,0,0,0,.15-.19.57.57,0,0,0,.06-.26v-1h-.74Z"/><path class="cls-5" d="M23.81,10.86a.41.41,0,0,1,.1-.28.38.38,0,0,1,.31-.12h.34V9.6a2.24,2.24,0,0,1,.12-.72,1.67,1.67,0,0,1,.35-.6,1.71,1.71,0,0,1,.6-.41,2.13,2.13,0,0,1,.85-.15,2,2,0,0,1,.59.08,1.65,1.65,0,0,1,.47.23,1.73,1.73,0,0,1,.36.34,2.57,2.57,0,0,1,.27.43l-.5.31a.59.59,0,0,1-.28.08A.45.45,0,0,1,27,9a1.51,1.51,0,0,0-.28-.23.56.56,0,0,0-.3-.08A.55.55,0,0,0,26,9a1.13,1.13,0,0,0-.16.65v.87h1.52v.47a.26.26,0,0,1,0,.11.33.33,0,0,1-.07.1.34.34,0,0,1-.11.07.35.35,0,0,1-.14,0H25.83v.62a1,1,0,0,1-.09.43,1.44,1.44,0,0,1-.24.36l.36-.06.36,0h2v.51a.49.49,0,0,1,0,.18.55.55,0,0,1-.11.17.5.5,0,0,1-.17.12.5.5,0,0,1-.22,0H23.89v-.74a1.15,1.15,0,0,0,.25-.08.77.77,0,0,0,.21-.13.61.61,0,0,0,.15-.19.57.57,0,0,0,.06-.26v-1h-.74Z"/></svg>