<?xml version="1.0" encoding="utf-8"?>
<!-- Generator: Adobe Illustrator 21.0.1, SVG Export Plug-In . SVG Version: 6.00 Build 0)  -->
<svg version="1.1" id="Layer_1" xmlns="http://www.w3.org/2000/svg" xmlns:xlink="http://www.w3.org/1999/xlink" x="0px" y="0px"
	 viewBox="0 0 32 32" style="enable-background:new 0 0 32 32;" xml:space="preserve">
<style type="text/css">
	.st0{fill:#E0E0E0;}
	.st1{fill:#EA983E;}
	.st2{fill:#3A5EA5;}
	.st3{fill:#76B751;}
</style>
<title>Artboard 1</title>
<circle class="st0" cx="16" cy="16" r="15"/>
<g>
	<polygon class="st1" points="11.8,6.3 21.8,6.3 16.8,11.3 6.8,11.3 	"/>
	<path class="st2" d="M16.8,12.1h-10c-0.3,0-0.6-0.2-0.7-0.5S6.1,11,6.3,10.8l5-5c0.1-0.1,0.3-0.2,0.5-0.2h10c0.3,0,0.6,0.2,0.7,0.5
		c0.1,0.3,0.1,0.6-0.2,0.8l-5,5C17.2,12,17,12.1,16.8,12.1z M8.6,10.6h7.9L20,7.1h-7.9L8.6,10.6z"/>
</g>
<g>
	<rect x="6.8" y="11.3" class="st1" width="10" height="10"/>
	<path class="st2" d="M16.8,22.1h-10c-0.4,0-0.8-0.3-0.8-0.8v-10c0-0.4,0.3-0.8,0.8-0.8h10c0.4,0,0.8,0.3,0.8,0.8v10
		C17.6,21.7,17.2,22.1,16.8,22.1z M7.6,20.6h8.5v-8.5H7.6V20.6z"/>
</g>
<g>
	<polygon class="st1" points="21.8,16.3 16.8,21.3 16.8,11.3 21.8,6.3 	"/>
	<path class="st2" d="M16.8,22.1c-0.1,0-0.2,0-0.3-0.1c-0.3-0.1-0.5-0.4-0.5-0.7v-10c0-0.2,0.1-0.4,0.2-0.5l5-5
		c0.2-0.2,0.5-0.3,0.8-0.2c0.3,0.1,0.5,0.4,0.5,0.7v10c0,0.2-0.1,0.4-0.2,0.5l-5,5C17.2,22,17,22.1,16.8,22.1z M17.6,11.6v7.9
		l3.5-3.5V8.1L17.6,11.6z M21.8,16.3L21.8,16.3L21.8,16.3z"/>
</g>
<g>
	<polygon class="st0" points="17.2,14.3 23.8,14.3 20.5,17.7 13.8,17.7 	"/>
	<path class="st3" d="M20.5,18.4h-6.7c-0.3,0-0.6-0.2-0.7-0.5s-0.1-0.6,0.2-0.8l3.3-3.3c0.1-0.1,0.3-0.2,0.5-0.2h6.7
		c0.3,0,0.6,0.2,0.7,0.5c0.1,0.3,0.1,0.6-0.2,0.8L21,18.2C20.9,18.3,20.7,18.4,20.5,18.4z M15.6,16.9h4.5l1.8-1.8h-4.5L15.6,16.9z"
		/>
</g>
<g>
	<rect x="13.8" y="17.7" class="st0" width="6.7" height="6.7"/>
	<path class="st3" d="M20.5,25.1h-6.7c-0.4,0-0.8-0.3-0.8-0.8v-6.7c0-0.4,0.3-0.8,0.8-0.8h6.7c0.4,0,0.8,0.3,0.8,0.8v6.7
		C21.2,24.8,20.9,25.1,20.5,25.1z M14.6,23.6h5.2v-5.2h-5.2V23.6z"/>
</g>
<g>
	<polygon class="st0" points="23.8,21 20.5,24.3 20.5,17.7 23.8,14.3 	"/>
	<path class="st3" d="M20.5,25.1c-0.1,0-0.2,0-0.3-0.1c-0.3-0.1-0.5-0.4-0.5-0.7v-6.7c0-0.2,0.1-0.4,0.2-0.5l3.3-3.3
		c0.2-0.2,0.5-0.3,0.8-0.2c0.3,0.1,0.5,0.4,0.5,0.7V21c0,0.2-0.1,0.4-0.2,0.5L21,24.9C20.9,25,20.7,25.1,20.5,25.1z M21.2,18v4.5
		l1.8-1.8v-4.5L21.2,18z M23.8,21L23.8,21L23.8,21z"/>
</g>
<path class="st2" d="M11.8,17.4h-2c-0.4,0-0.8-0.3-0.8-0.8s0.3-0.8,0.8-0.8h1.2v-1.2c0-0.4,0.3-0.8,0.8-0.8s0.8,0.3,0.8,0.8v2
	C12.6,17.1,12.2,17.4,11.8,17.4z"/>
<path class="st2" d="M11.8,28.1c-0.4,0-0.8-0.3-0.8-0.8v-1.2H9.8c-0.4,0-0.8-0.3-0.8-0.8s0.3-0.8,0.8-0.8h2c0.4,0,0.8,0.3,0.8,0.8v2
	C12.6,27.7,12.2,28.1,11.8,28.1z"/>
<path class="st2" d="M23.2,28.1c-0.4,0-0.8-0.3-0.8-0.8v-2c0-0.4,0.3-0.8,0.8-0.8h2c0.4,0,0.8,0.3,0.8,0.8s-0.3,0.8-0.8,0.8h-1.2
	v1.2C23.9,27.7,23.6,28.1,23.2,28.1z"/>
</svg>
