<?xml version="1.0" encoding="utf-8"?>
<!-- Generator: Adobe Illustrator 21.0.1, SVG Export Plug-In . SVG Version: 6.00 Build 0)  -->
<svg version="1.1" id="Layer_1" xmlns="http://www.w3.org/2000/svg" xmlns:xlink="http://www.w3.org/1999/xlink" x="0px" y="0px"
	 viewBox="0 0 50 50" style="enable-background:new 0 0 50 50;" xml:space="preserve">
<style type="text/css">
	.st0{opacity:0.75;}
	.st1{fill:#292FA8;}
	.st2{fill:#74B84B;}
	.st3{fill:#8CB260;}
	.st4{font-family:'Lato-BoldItalic';}
	.st5{font-size:10px;}
	.st6{enable-background:new    ;}
	.st7{fill:#FFFFFF;}
</style>
<g>
	<g>
		<g class="st0">
			<circle class="st1" cx="25.2" cy="25.2" r="24"/>
		</g>
		<g>
			<circle class="st2" cx="24" cy="24" r="24"/>
		</g>
	</g>
	<g>
		<g class="st0">
			<text transform="matrix(0.9979 0 0 1 7.0288 24.5957)" class="st3 st4 st5">Get Free</text>
			<text transform="matrix(0.9979 0 0 1 9.8232 34.5957)" class="st3 st4 st5">Quote!</text>
		</g>
		<g>
			<g class="st6">
				<path class="st7" d="M10,23.1c0.3,0,0.5,0,0.7-0.1c0.2-0.1,0.4-0.1,0.6-0.2l0.2-1.4h-0.8c-0.1,0-0.1,0-0.2-0.1
					c0,0-0.1-0.1-0.1-0.1l0.1-0.8h2.2l-0.4,2.9c-0.4,0.3-0.8,0.5-1.2,0.6c-0.4,0.1-0.9,0.2-1.4,0.2c-0.4,0-0.8-0.1-1.2-0.2
					c-0.4-0.2-0.7-0.4-0.9-0.7c-0.3-0.3-0.5-0.6-0.6-1c-0.1-0.4-0.2-0.8-0.2-1.3c0-0.4,0-0.8,0.1-1.2c0.1-0.4,0.2-0.7,0.4-1
					s0.4-0.6,0.6-0.8c0.2-0.2,0.5-0.5,0.8-0.6C9,17.1,9.3,17,9.7,16.9c0.3-0.1,0.7-0.1,1-0.1c0.3,0,0.6,0,0.8,0.1
					c0.2,0.1,0.5,0.1,0.6,0.2s0.4,0.2,0.5,0.3c0.2,0.1,0.3,0.2,0.4,0.4l-0.4,0.5c-0.1,0.1-0.2,0.2-0.3,0.2c-0.1,0-0.1,0-0.2-0.1
					c-0.1-0.1-0.2-0.1-0.3-0.2c-0.1-0.1-0.2-0.1-0.3-0.2c-0.1,0-0.2-0.1-0.4-0.1c-0.1,0-0.3,0-0.5,0c-0.4,0-0.7,0.1-1,0.2
					s-0.6,0.4-0.8,0.6c-0.2,0.3-0.4,0.6-0.5,1s-0.2,0.8-0.2,1.2c0,0.3,0,0.7,0.1,0.9c0.1,0.3,0.2,0.5,0.4,0.7S9,22.8,9.3,23
					C9.5,23.1,9.7,23.1,10,23.1z"/>
				<path class="st7" d="M17.7,20.1c0,0.2,0,0.4-0.1,0.6c-0.1,0.2-0.3,0.4-0.5,0.5c-0.2,0.1-0.6,0.3-1,0.4s-0.9,0.2-1.5,0.3V22
					c0,0.8,0.3,1.2,1,1.2c0.1,0,0.3,0,0.4,0c0.1,0,0.2-0.1,0.3-0.1s0.2-0.1,0.2-0.1c0.1,0,0.1-0.1,0.2-0.1c0.1,0,0.1-0.1,0.2-0.1
					s0.1,0,0.2,0c0,0,0.1,0,0.1,0c0,0,0.1,0,0.1,0.1l0.3,0.4c-0.2,0.2-0.3,0.3-0.5,0.5c-0.2,0.1-0.3,0.2-0.5,0.3S16.2,24,16,24.1
					s-0.4,0.1-0.6,0.1c-0.3,0-0.6-0.1-0.8-0.2c-0.2-0.1-0.5-0.2-0.6-0.4c-0.2-0.2-0.3-0.4-0.4-0.7c-0.1-0.3-0.1-0.6-0.1-0.9
					c0-0.3,0-0.5,0.1-0.8c0.1-0.3,0.1-0.5,0.3-0.7c0.1-0.2,0.2-0.4,0.4-0.6s0.3-0.4,0.5-0.5c0.2-0.1,0.4-0.3,0.7-0.3
					s0.5-0.1,0.8-0.1c0.3,0,0.5,0,0.7,0.1s0.4,0.2,0.5,0.3s0.2,0.3,0.3,0.4S17.7,20,17.7,20.1z M16,19.7c-0.2,0-0.3,0-0.5,0.1
					c-0.1,0.1-0.3,0.2-0.4,0.3c-0.1,0.1-0.2,0.3-0.3,0.4c-0.1,0.2-0.2,0.4-0.2,0.6c0.4-0.1,0.7-0.1,1-0.2c0.3-0.1,0.4-0.1,0.6-0.2
					c0.1-0.1,0.2-0.2,0.3-0.3s0.1-0.2,0.1-0.3c0,0,0-0.1,0-0.2c0-0.1-0.1-0.1-0.1-0.1c0,0-0.1-0.1-0.2-0.1
					C16.2,19.7,16.1,19.7,16,19.7z"/>
				<path class="st7" d="M18.6,23C18.6,23,18.6,23,18.6,23c0-0.1,0-0.2,0-0.2c0-0.1,0-0.1,0-0.2c0-0.1,0-0.2,0-0.4l0.3-2.3h-0.5
					c-0.1,0-0.1,0-0.1-0.1c0,0-0.1-0.1-0.1-0.2c0,0,0,0,0,0c0,0,0,0,0-0.1s0-0.1,0-0.2c0-0.1,0-0.2,0-0.3l0.8-0.1l0.4-1.4
					c0-0.1,0.1-0.1,0.1-0.2c0,0,0.1-0.1,0.2-0.1h0.7L20.2,19h1.2l-0.1,0.9h-1.2l-0.3,2.2c0,0.1,0,0.2,0,0.3s0,0.1,0,0.2s0,0.1,0,0.1
					c0,0,0,0,0,0c0,0.1,0,0.2,0.1,0.3s0.1,0.1,0.3,0.1c0.1,0,0.1,0,0.2,0c0,0,0.1,0,0.1-0.1s0.1,0,0.1-0.1c0,0,0.1,0,0.1,0
					c0,0,0.1,0,0.1,0c0,0,0,0,0.1,0.1l0.3,0.6c-0.2,0.1-0.4,0.3-0.6,0.3c-0.2,0.1-0.4,0.1-0.7,0.1c-0.4,0-0.6-0.1-0.9-0.3
					C18.7,23.6,18.6,23.4,18.6,23z"/>
				<path class="st7" d="M28.6,17.9h-2.9l-0.3,2.2h2.5l-0.1,1h-2.4l-0.4,3h-1.3l0.9-7.2h4.2L28.6,17.9z"/>
				<path class="st7" d="M28.4,24.1l0.6-5.1h0.6c0.1,0,0.2,0,0.3,0.1c0.1,0.1,0.1,0.1,0.1,0.3c0,0,0,0.1,0,0.1c0,0.1,0,0.1,0,0.3
					c0,0.1,0,0.3,0,0.5c0.2-0.4,0.4-0.7,0.7-0.9c0.2-0.2,0.5-0.3,0.8-0.3c0.1,0,0.3,0,0.4,0.1l-0.2,1.2c-0.2-0.1-0.3-0.1-0.5-0.1
					c-0.3,0-0.6,0.1-0.8,0.4c-0.2,0.3-0.4,0.7-0.5,1.3l-0.3,2.2H28.4z"/>
				<path class="st7" d="M36.2,20.1c0,0.2,0,0.4-0.1,0.6c-0.1,0.2-0.3,0.4-0.5,0.5c-0.2,0.1-0.6,0.3-1,0.4s-0.9,0.2-1.5,0.3V22
					c0,0.8,0.3,1.2,1,1.2c0.1,0,0.3,0,0.4,0c0.1,0,0.2-0.1,0.3-0.1c0.1,0,0.2-0.1,0.2-0.1c0.1,0,0.1-0.1,0.2-0.1
					c0.1,0,0.1-0.1,0.2-0.1s0.1,0,0.2,0c0,0,0.1,0,0.1,0c0,0,0.1,0,0.1,0.1l0.3,0.4c-0.2,0.2-0.3,0.3-0.5,0.5
					c-0.2,0.1-0.3,0.2-0.5,0.3s-0.4,0.1-0.6,0.2s-0.4,0.1-0.6,0.1c-0.3,0-0.6-0.1-0.8-0.2s-0.5-0.2-0.6-0.4s-0.3-0.4-0.4-0.7
					c-0.1-0.3-0.1-0.6-0.1-0.9c0-0.3,0-0.5,0.1-0.8c0.1-0.3,0.1-0.5,0.3-0.7c0.1-0.2,0.2-0.4,0.4-0.6c0.2-0.2,0.3-0.4,0.5-0.5
					c0.2-0.1,0.4-0.3,0.7-0.3c0.2-0.1,0.5-0.1,0.8-0.1c0.3,0,0.5,0,0.7,0.1s0.4,0.2,0.5,0.3s0.2,0.3,0.3,0.4S36.2,20,36.2,20.1z
					 M34.5,19.7c-0.2,0-0.3,0-0.5,0.1c-0.1,0.1-0.3,0.2-0.4,0.3c-0.1,0.1-0.2,0.3-0.3,0.4c-0.1,0.2-0.2,0.4-0.2,0.6
					c0.4-0.1,0.7-0.1,1-0.2c0.3-0.1,0.4-0.1,0.6-0.2s0.2-0.2,0.3-0.3s0.1-0.2,0.1-0.3c0,0,0-0.1,0-0.2c0-0.1-0.1-0.1-0.1-0.1
					c0,0-0.1-0.1-0.2-0.1C34.7,19.7,34.6,19.7,34.5,19.7z"/>
				<path class="st7" d="M40.9,20.1c0,0.2,0,0.4-0.1,0.6c-0.1,0.2-0.3,0.4-0.5,0.5c-0.2,0.1-0.6,0.3-1,0.4s-0.9,0.2-1.5,0.3V22
					c0,0.8,0.3,1.2,1,1.2c0.1,0,0.3,0,0.4,0c0.1,0,0.2-0.1,0.3-0.1c0.1,0,0.2-0.1,0.2-0.1c0.1,0,0.1-0.1,0.2-0.1
					c0.1,0,0.1-0.1,0.2-0.1s0.1,0,0.2,0c0,0,0.1,0,0.1,0c0,0,0.1,0,0.1,0.1l0.3,0.4c-0.2,0.2-0.3,0.3-0.5,0.5
					c-0.2,0.1-0.3,0.2-0.5,0.3s-0.4,0.1-0.6,0.2s-0.4,0.1-0.6,0.1c-0.3,0-0.6-0.1-0.8-0.2s-0.5-0.2-0.6-0.4s-0.3-0.4-0.4-0.7
					c-0.1-0.3-0.1-0.6-0.1-0.9c0-0.3,0-0.5,0.1-0.8c0.1-0.3,0.1-0.5,0.3-0.7c0.1-0.2,0.2-0.4,0.4-0.6c0.2-0.2,0.3-0.4,0.5-0.5
					c0.2-0.1,0.4-0.3,0.7-0.3c0.2-0.1,0.5-0.1,0.8-0.1c0.3,0,0.5,0,0.7,0.1s0.4,0.2,0.5,0.3s0.2,0.3,0.3,0.4S40.9,20,40.9,20.1z
					 M39.2,19.7c-0.2,0-0.3,0-0.5,0.1c-0.1,0.1-0.3,0.2-0.4,0.3c-0.1,0.1-0.2,0.3-0.3,0.4c-0.1,0.2-0.2,0.4-0.2,0.6
					c0.4-0.1,0.7-0.1,1-0.2c0.3-0.1,0.4-0.1,0.6-0.2s0.2-0.2,0.3-0.3s0.1-0.2,0.1-0.3c0,0,0-0.1,0-0.2c0-0.1-0.1-0.1-0.1-0.1
					c0,0-0.1-0.1-0.2-0.1C39.4,19.7,39.3,19.7,39.2,19.7z"/>
			</g>
			<g class="st6">
				<path class="st7" d="M16.5,30c0,0.4,0,0.8-0.1,1.1c-0.1,0.3-0.2,0.7-0.4,1s-0.3,0.6-0.6,0.8s-0.5,0.5-0.7,0.6l1.4,2h-1.1
					c-0.2,0-0.3,0-0.4-0.1s-0.2-0.1-0.3-0.2L13.6,34c-0.2,0-0.3,0.1-0.5,0.1c-0.2,0-0.3,0-0.5,0c-0.5,0-0.9-0.1-1.2-0.2
					s-0.7-0.4-0.9-0.7c-0.3-0.3-0.5-0.6-0.6-1c-0.1-0.4-0.2-0.8-0.2-1.3c0-0.4,0-0.8,0.1-1.1c0.1-0.4,0.2-0.7,0.4-1
					c0.2-0.3,0.4-0.6,0.6-0.8c0.2-0.2,0.5-0.5,0.8-0.6c0.3-0.2,0.6-0.3,0.9-0.4c0.3-0.1,0.7-0.1,1.1-0.1c0.5,0,0.9,0.1,1.2,0.2
					c0.4,0.2,0.7,0.4,0.9,0.7c0.3,0.3,0.5,0.6,0.6,1S16.5,29.5,16.5,30z M15.2,30c0-0.3,0-0.6-0.1-0.9s-0.2-0.5-0.4-0.7
					c-0.2-0.2-0.3-0.3-0.6-0.4s-0.5-0.2-0.8-0.2c-0.4,0-0.7,0.1-1,0.2c-0.3,0.1-0.5,0.4-0.8,0.6c-0.2,0.3-0.4,0.6-0.5,1
					S11,30.4,11,30.9c0,0.3,0,0.6,0.1,0.9c0.1,0.3,0.2,0.5,0.3,0.7c0.2,0.2,0.3,0.3,0.6,0.4s0.5,0.2,0.8,0.2c0.4,0,0.7-0.1,1-0.2
					c0.3-0.1,0.5-0.4,0.8-0.6s0.4-0.6,0.5-1C15.1,30.9,15.2,30.5,15.2,30z"/>
				<path class="st7" d="M18.6,28.9c-0.1,0.6-0.1,1-0.2,1.4c0,0.4-0.1,0.7-0.1,1c0,0.3-0.1,0.5-0.1,0.6c0,0.2,0,0.3,0,0.3
					c0,0.1,0,0.1,0,0.2c0,0,0,0,0,0.1c0,0.2,0,0.4,0.1,0.5c0.1,0.1,0.2,0.1,0.4,0.1c0.1,0,0.3,0,0.4-0.1c0.1-0.1,0.3-0.2,0.4-0.3
					c0.1-0.1,0.2-0.3,0.4-0.5s0.2-0.4,0.3-0.6l0.3-2.7h1.2l-0.6,5.1h-0.6c-0.1,0-0.1,0-0.2,0c-0.1,0-0.1,0-0.1-0.1s-0.1-0.1-0.1-0.1
					s0-0.1,0-0.2v0l0-0.6c-0.3,0.4-0.5,0.6-0.9,0.8c-0.3,0.2-0.6,0.3-1,0.3c-0.2,0-0.4,0-0.5-0.1s-0.3-0.2-0.4-0.3
					c-0.1-0.1-0.2-0.3-0.3-0.5C17,33.1,17,32.8,17,32.6c0-0.1,0-0.1,0-0.2c0-0.1,0-0.1,0-0.2l0.4-3.3H18.6z"/>
				<path class="st7" d="M24.1,34.1c-0.3,0-0.5,0-0.8-0.1s-0.4-0.2-0.6-0.4c-0.2-0.2-0.3-0.4-0.4-0.7s-0.1-0.6-0.1-0.9
					c0-0.4,0.1-0.9,0.2-1.2c0.1-0.4,0.3-0.7,0.6-1c0.2-0.3,0.5-0.5,0.9-0.7c0.3-0.2,0.7-0.2,1-0.2c0.3,0,0.5,0,0.8,0.1
					c0.2,0.1,0.5,0.2,0.6,0.4c0.2,0.2,0.3,0.4,0.4,0.7c0.1,0.3,0.1,0.6,0.1,0.9c0,0.4-0.1,0.9-0.2,1.2c-0.1,0.4-0.3,0.7-0.6,1
					c-0.2,0.3-0.5,0.5-0.9,0.7C24.9,34.1,24.5,34.1,24.1,34.1z M24.2,33.2c0.2,0,0.4-0.1,0.6-0.2s0.3-0.3,0.4-0.5
					c0.1-0.2,0.2-0.4,0.3-0.7c0.1-0.3,0.1-0.5,0.1-0.8c0-0.4-0.1-0.7-0.2-0.9c-0.1-0.2-0.4-0.3-0.6-0.3c-0.2,0-0.4,0.1-0.6,0.2
					c-0.2,0.1-0.3,0.3-0.4,0.5c-0.1,0.2-0.2,0.4-0.3,0.7c-0.1,0.3-0.1,0.5-0.1,0.8c0,0.4,0.1,0.7,0.2,0.9
					C23.7,33.1,24,33.2,24.2,33.2z"/>
				<path class="st7" d="M27.8,33C27.8,33,27.8,33,27.8,33c0-0.1,0-0.2,0-0.2s0-0.1,0-0.2s0-0.2,0-0.4l0.3-2.3h-0.5
					c-0.1,0-0.1,0-0.1-0.1s-0.1-0.1-0.1-0.2c0,0,0,0,0,0c0,0,0,0,0-0.1c0,0,0-0.1,0-0.2c0-0.1,0-0.2,0-0.3l0.8-0.1l0.4-1.4
					c0-0.1,0.1-0.1,0.1-0.2c0,0,0.1-0.1,0.2-0.1h0.7L29.5,29h1.2l-0.1,0.9h-1.2l-0.3,2.2c0,0.1,0,0.2,0,0.3c0,0.1,0,0.1,0,0.2
					c0,0,0,0.1,0,0.1c0,0,0,0,0,0c0,0.1,0,0.2,0.1,0.3c0.1,0.1,0.1,0.1,0.3,0.1c0.1,0,0.1,0,0.2,0c0,0,0.1,0,0.1-0.1
					c0,0,0.1,0,0.1-0.1s0.1,0,0.1,0c0,0,0.1,0,0.1,0s0,0,0.1,0.1l0.3,0.6c-0.2,0.2-0.4,0.3-0.6,0.3c-0.2,0.1-0.4,0.1-0.7,0.1
					c-0.4,0-0.6-0.1-0.9-0.3C27.9,33.6,27.8,33.4,27.8,33z"/>
				<path class="st7" d="M35.2,30.1c0,0.2,0,0.4-0.1,0.6c-0.1,0.2-0.3,0.4-0.5,0.5c-0.2,0.1-0.6,0.3-1,0.4s-0.9,0.2-1.5,0.3V32
					c0,0.8,0.3,1.2,1,1.2c0.1,0,0.3,0,0.4,0c0.1,0,0.2-0.1,0.3-0.1c0.1,0,0.2-0.1,0.2-0.1c0.1,0,0.1-0.1,0.2-0.1
					c0.1,0,0.1-0.1,0.2-0.1s0.1,0,0.2,0c0,0,0.1,0,0.1,0c0,0,0.1,0,0.1,0.1l0.3,0.4c-0.2,0.2-0.3,0.3-0.5,0.5
					c-0.2,0.1-0.3,0.2-0.5,0.3s-0.4,0.1-0.6,0.2s-0.4,0.1-0.6,0.1c-0.3,0-0.6-0.1-0.8-0.2s-0.5-0.2-0.6-0.4
					c-0.2-0.2-0.3-0.4-0.4-0.7s-0.1-0.6-0.1-0.9c0-0.3,0-0.5,0.1-0.8c0.1-0.3,0.1-0.5,0.3-0.7c0.1-0.2,0.2-0.4,0.4-0.6
					c0.2-0.2,0.3-0.4,0.5-0.5s0.4-0.3,0.7-0.3c0.2-0.1,0.5-0.1,0.8-0.1c0.3,0,0.5,0,0.7,0.1s0.4,0.2,0.5,0.3
					c0.1,0.1,0.2,0.3,0.3,0.4C35.1,29.8,35.2,30,35.2,30.1z M33.5,29.7c-0.2,0-0.3,0-0.5,0.1c-0.1,0.1-0.3,0.2-0.4,0.3
					c-0.1,0.1-0.2,0.3-0.3,0.4c-0.1,0.2-0.2,0.4-0.2,0.6c0.4-0.1,0.7-0.1,1-0.2s0.4-0.1,0.6-0.2s0.2-0.2,0.3-0.3
					c0-0.1,0.1-0.2,0.1-0.3c0-0.1,0-0.1,0-0.2c0-0.1-0.1-0.1-0.1-0.1s-0.1-0.1-0.2-0.1C33.7,29.7,33.6,29.7,33.5,29.7z"/>
				<path class="st7" d="M36.1,33.4c0-0.1,0-0.2,0.1-0.3c0-0.1,0.1-0.2,0.2-0.2c0.1-0.1,0.1-0.1,0.2-0.2c0.1,0,0.2-0.1,0.3-0.1
					s0.2,0,0.3,0.1c0.1,0,0.2,0.1,0.2,0.2c0.1,0.1,0.1,0.1,0.2,0.2c0,0.1,0.1,0.2,0.1,0.3c0,0.1,0,0.2-0.1,0.3
					c0,0.1-0.1,0.2-0.2,0.2c-0.1,0.1-0.1,0.1-0.2,0.2c-0.1,0-0.2,0.1-0.3,0.1s-0.2,0-0.3-0.1c-0.1,0-0.2-0.1-0.2-0.2
					c-0.1-0.1-0.1-0.1-0.2-0.2C36.1,33.6,36.1,33.5,36.1,33.4z M38.1,26.8l-0.3,2.9c0,0.3-0.1,0.6-0.2,0.9c-0.1,0.3-0.1,0.6-0.2,0.9
					h-0.8c0-0.1,0-0.1,0-0.2c0-0.1,0-0.1,0-0.2c0-0.2,0-0.5,0-0.7s0-0.5,0.1-0.7l0.3-2.9H38.1z"/>
			</g>
		</g>
	</g>
</g>
</svg>
