<?xml version="1.0" encoding="utf-8"?>
<!-- Generator: Adobe Illustrator 16.0.0, SVG Export Plug-In . SVG Version: 6.00 Build 0)  -->
<!DOCTYPE svg PUBLIC "-//W3C//DTD SVG 1.1//EN" "http://www.w3.org/Graphics/SVG/1.1/DTD/svg11.dtd">
<svg version="1.1" id="Layer_1" xmlns="http://www.w3.org/2000/svg" xmlns:xlink="http://www.w3.org/1999/xlink" x="0px" y="0px"
	 width="360px" height="360px" viewBox="0 0 360 360" enable-background="new 0 0 360 360" xml:space="preserve">
<g>
	<g>
		<g opacity="0.75">
			<circle fill="#292FA8" cx="181.439" cy="181.44" r="172.8"/>
		</g>
		<g>
			<circle fill="#74B84B" cx="172.8" cy="172.8" r="172.8"/>
		</g>
	</g>
</g>
<g>
	<path fill="#5A9136" d="M72.94,145.969h17.496L87.7,167.893c-1.344,0.984-2.736,1.831-4.176,2.538
		c-1.44,0.708-2.946,1.291-4.518,1.746c-1.572,0.456-3.228,0.792-4.968,1.008c-1.74,0.216-3.594,0.324-5.562,0.324
		c-3.24,0-6.198-0.594-8.874-1.782c-2.676-1.188-4.968-2.826-6.876-4.914s-3.384-4.56-4.428-7.416
		c-1.044-2.855-1.566-5.952-1.566-9.288c0-2.903,0.33-5.67,0.99-8.298c0.66-2.628,1.602-5.058,2.826-7.29
		c1.224-2.232,2.694-4.248,4.41-6.048c1.716-1.8,3.624-3.335,5.724-4.608c2.1-1.272,4.362-2.25,6.786-2.934
		c2.424-0.684,4.968-1.026,7.632-1.026c2.232,0,4.253,0.204,6.066,0.612c1.812,0.408,3.438,0.954,4.878,1.638
		c1.44,0.684,2.724,1.476,3.852,2.376c1.128,0.9,2.124,1.83,2.988,2.79l-3.816,4.716c-0.624,0.84-1.368,1.35-2.232,1.53
		c-0.864,0.18-1.752-0.018-2.664-0.594c-0.84-0.576-1.632-1.074-2.376-1.494c-0.744-0.419-1.5-0.768-2.268-1.044
		c-0.769-0.275-1.579-0.48-2.43-0.612c-0.852-0.132-1.806-0.198-2.862-0.198c-2.281,0-4.369,0.486-6.264,1.458
		c-1.896,0.972-3.528,2.34-4.896,4.104c-1.368,1.764-2.43,3.882-3.186,6.354c-0.756,2.472-1.134,5.196-1.134,8.172
		c0,2.304,0.282,4.374,0.846,6.21c0.563,1.836,1.362,3.384,2.394,4.644c1.032,1.26,2.268,2.227,3.708,2.898s3.036,1.008,4.788,1.008
		c1.44,0,2.736-0.126,3.888-0.378c1.152-0.252,2.256-0.606,3.312-1.062l1.008-8.568h-4.464c-0.72,0-1.267-0.186-1.638-0.558
		c-0.373-0.372-0.522-0.858-0.45-1.458L72.94,145.969z"/>
	<path fill="#5A9136" d="M125.536,166.021c-1.319,1.296-2.61,2.418-3.87,3.366c-1.26,0.948-2.556,1.728-3.888,2.34
		s-2.748,1.062-4.248,1.35s-3.138,0.432-4.914,0.432c-2.208,0-4.236-0.378-6.084-1.134c-1.848-0.756-3.438-1.824-4.77-3.204
		c-1.332-1.379-2.364-3.042-3.096-4.986c-0.732-1.944-1.098-4.104-1.098-6.48c0-1.992,0.222-3.936,0.666-5.832
		c0.444-1.896,1.08-3.678,1.908-5.346c0.828-1.668,1.841-3.204,3.042-4.608c1.2-1.404,2.55-2.61,4.05-3.618
		c1.5-1.008,3.144-1.794,4.932-2.358c1.788-0.563,3.69-0.846,5.706-0.846c1.992,0,3.762,0.288,5.31,0.864
		c1.548,0.576,2.85,1.327,3.906,2.25c1.056,0.924,1.86,1.962,2.412,3.114s0.828,2.304,0.828,3.456c0,1.704-0.336,3.258-1.008,4.662
		c-0.672,1.404-1.842,2.659-3.51,3.762c-1.668,1.104-3.912,2.04-6.732,2.808c-2.821,0.768-6.367,1.368-10.638,1.8
		c0.048,2.544,0.606,4.404,1.674,5.58c1.068,1.176,2.646,1.764,4.734,1.764c0.983,0,1.836-0.084,2.556-0.252
		c0.72-0.168,1.35-0.384,1.89-0.648s1.026-0.54,1.458-0.828s0.846-0.563,1.242-0.828c0.396-0.264,0.81-0.48,1.242-0.648
		c0.432-0.167,0.924-0.252,1.476-0.252c0.36,0,0.708,0.09,1.044,0.27c0.336,0.18,0.636,0.414,0.9,0.702L125.536,166.021z
		 M113.225,142.621c-1.849,0-3.469,0.738-4.86,2.214c-1.392,1.476-2.424,3.499-3.096,6.066c2.304-0.36,4.176-0.743,5.616-1.152
		c1.44-0.408,2.556-0.846,3.348-1.314c0.792-0.468,1.326-0.966,1.602-1.494c0.275-0.527,0.414-1.104,0.414-1.728
		c0-0.624-0.24-1.211-0.72-1.764C115.048,142.897,114.28,142.621,113.225,142.621z"/>
	<path fill="#5A9136" d="M131.908,164.869c0-0.167,0-0.372,0-0.612s0.019-0.582,0.055-1.026c0.035-0.444,0.095-1.031,0.18-1.764
		c0.084-0.732,0.198-1.698,0.342-2.898l1.908-15.264h-2.988c-0.504,0-0.924-0.186-1.26-0.558c-0.337-0.372-0.444-0.918-0.324-1.638
		l0.504-4.356l5.652-1.152l3.132-9.108c0.408-1.152,1.224-1.728,2.448-1.728h6.048l-1.368,10.908h8.353l-0.937,7.632h-8.352
		l-1.801,14.652c-0.12,0.984-0.216,1.758-0.287,2.322c-0.072,0.564-0.127,0.996-0.162,1.296c-0.036,0.3-0.055,0.504-0.055,0.612
		s0,0.174,0,0.198c0,0.696,0.162,1.278,0.486,1.746c0.324,0.468,0.834,0.702,1.53,0.702c0.384,0,0.702-0.042,0.954-0.126
		c0.252-0.083,0.474-0.18,0.666-0.288c0.191-0.108,0.371-0.204,0.54-0.288c0.167-0.084,0.359-0.126,0.575-0.126
		c0.336,0,0.582,0.079,0.738,0.234c0.156,0.156,0.318,0.402,0.486,0.738l2.448,5.292c-1.489,1.08-3.085,1.89-4.788,2.43
		c-1.705,0.54-3.42,0.81-5.148,0.81c-1.44,0-2.736-0.198-3.888-0.594c-1.152-0.396-2.143-0.972-2.971-1.728
		c-0.827-0.756-1.476-1.662-1.943-2.718S131.956,166.213,131.908,164.869z"/>
	<path fill="#5A9136" d="M188.786,129.517l-1.691,13.824h16.2l-1.225,9.036h-16.092l-2.556,20.556h-11.809l6.48-52.452h31.248
		l-1.152,9.036H188.786z"/>
	<path fill="#5A9136" d="M219.531,143.305c0.912-1.608,1.884-2.988,2.916-4.14c1.031-1.152,2.094-2.046,3.187-2.682
		c1.092-0.635,2.207-0.996,3.348-1.08c1.14-0.084,2.286,0.138,3.438,0.666l-2.016,10.332c-1.368-0.576-2.646-0.839-3.834-0.792
		c-1.188,0.049-2.28,0.457-3.276,1.224c-0.996,0.769-1.896,1.92-2.699,3.456c-0.805,1.536-1.494,3.504-2.07,5.904l-2.016,16.74
		h-10.944l4.536-37.332h5.76c1.152,0,2.052,0.27,2.7,0.81c0.647,0.54,0.972,1.422,0.972,2.646V143.305z"/>
	<path fill="#5A9136" d="M263.452,166.021c-1.32,1.296-2.609,2.418-3.87,3.366c-1.26,0.948-2.556,1.728-3.888,2.34
		s-2.748,1.062-4.248,1.35s-3.138,0.432-4.914,0.432c-2.208,0-4.236-0.378-6.084-1.134c-1.849-0.756-3.438-1.824-4.77-3.204
		c-1.332-1.379-2.364-3.042-3.097-4.986s-1.098-4.104-1.098-6.48c0-1.992,0.222-3.936,0.666-5.832
		c0.444-1.896,1.08-3.678,1.908-5.346s1.842-3.204,3.042-4.608c1.199-1.404,2.55-2.61,4.05-3.618c1.5-1.008,3.144-1.794,4.932-2.358
		c1.788-0.563,3.69-0.846,5.706-0.846c1.992,0,3.763,0.288,5.311,0.864c1.548,0.576,2.85,1.327,3.906,2.25
		c1.056,0.924,1.859,1.962,2.411,3.114s0.828,2.304,0.828,3.456c0,1.704-0.336,3.258-1.008,4.662
		c-0.672,1.404-1.842,2.659-3.51,3.762c-1.669,1.104-3.912,2.04-6.732,2.808s-6.366,1.368-10.638,1.8
		c0.048,2.544,0.605,4.404,1.674,5.58c1.067,1.176,2.646,1.764,4.734,1.764c0.983,0,1.836-0.084,2.556-0.252s1.351-0.384,1.89-0.648
		c0.54-0.264,1.026-0.54,1.458-0.828c0.433-0.288,0.847-0.563,1.242-0.828c0.396-0.264,0.811-0.48,1.242-0.648
		c0.432-0.167,0.924-0.252,1.477-0.252c0.359,0,0.707,0.09,1.044,0.27c0.335,0.18,0.635,0.414,0.899,0.702L263.452,166.021z
		 M251.141,142.621c-1.849,0-3.469,0.738-4.86,2.214s-2.424,3.499-3.096,6.066c2.304-0.36,4.176-0.743,5.616-1.152
		c1.439-0.408,2.556-0.846,3.348-1.314c0.792-0.468,1.326-0.966,1.602-1.494c0.276-0.527,0.414-1.104,0.414-1.728
		c0-0.624-0.24-1.211-0.72-1.764C252.964,142.897,252.196,142.621,251.141,142.621z"/>
	<path fill="#5A9136" d="M299.055,166.021c-1.32,1.296-2.609,2.418-3.87,3.366c-1.26,0.948-2.556,1.728-3.888,2.34
		s-2.748,1.062-4.248,1.35s-3.138,0.432-4.914,0.432c-2.208,0-4.236-0.378-6.084-1.134c-1.849-0.756-3.438-1.824-4.77-3.204
		c-1.332-1.379-2.364-3.042-3.097-4.986s-1.098-4.104-1.098-6.48c0-1.992,0.222-3.936,0.666-5.832
		c0.444-1.896,1.08-3.678,1.908-5.346s1.842-3.204,3.042-4.608c1.199-1.404,2.55-2.61,4.05-3.618c1.5-1.008,3.144-1.794,4.932-2.358
		c1.788-0.563,3.69-0.846,5.706-0.846c1.992,0,3.763,0.288,5.311,0.864c1.548,0.576,2.85,1.327,3.906,2.25
		c1.056,0.924,1.859,1.962,2.411,3.114s0.828,2.304,0.828,3.456c0,1.704-0.336,3.258-1.008,4.662
		c-0.672,1.404-1.842,2.659-3.51,3.762c-1.669,1.104-3.912,2.04-6.732,2.808s-6.366,1.368-10.638,1.8
		c0.048,2.544,0.605,4.404,1.674,5.58c1.067,1.176,2.646,1.764,4.734,1.764c0.983,0,1.836-0.084,2.556-0.252s1.351-0.384,1.89-0.648
		c0.54-0.264,1.026-0.54,1.458-0.828c0.433-0.288,0.847-0.563,1.242-0.828c0.396-0.264,0.811-0.48,1.242-0.648
		c0.432-0.167,0.924-0.252,1.477-0.252c0.359,0,0.707,0.09,1.044,0.27c0.335,0.18,0.635,0.414,0.899,0.702L299.055,166.021z
		 M286.743,142.621c-1.849,0-3.469,0.738-4.86,2.214s-2.424,3.499-3.096,6.066c2.304-0.36,4.176-0.743,5.616-1.152
		c1.439-0.408,2.556-0.846,3.348-1.314c0.792-0.468,1.326-0.966,1.602-1.494c0.276-0.527,0.414-1.104,0.414-1.728
		c0-0.624-0.24-1.211-0.72-1.764C288.566,142.897,287.799,142.621,286.743,142.621z"/>
	<path fill="#5A9136" d="M81.851,244.969c-1.848,0.359-3.756,0.54-5.724,0.54c-3.456,0-6.558-0.606-9.306-1.818
		c-2.749-1.212-5.083-2.868-7.002-4.968s-3.39-4.572-4.41-7.416c-1.021-2.844-1.53-5.91-1.53-9.198c0-2.831,0.33-5.55,0.99-8.153
		c0.66-2.604,1.596-5.022,2.808-7.254c1.211-2.232,2.682-4.26,4.41-6.084s3.66-3.379,5.796-4.662
		c2.136-1.284,4.451-2.28,6.948-2.988c2.496-0.708,5.136-1.062,7.92-1.062c3.432,0,6.521,0.607,9.27,1.818
		c2.748,1.212,5.076,2.875,6.984,4.986c1.908,2.111,3.372,4.596,4.392,7.451c1.02,2.857,1.53,5.917,1.53,9.181
		c0,2.663-0.288,5.22-0.864,7.668c-0.576,2.448-1.404,4.74-2.484,6.876c-1.08,2.137-2.388,4.098-3.924,5.886
		c-1.537,1.788-3.252,3.354-5.148,4.698l10.476,14.328h-9.648c-1.368,0-2.58-0.18-3.636-0.54c-1.057-0.36-1.98-1.021-2.772-1.979
		L81.851,244.969z M65.902,221.856c0,2.16,0.252,4.116,0.756,5.868s1.242,3.252,2.214,4.5s2.178,2.214,3.618,2.898
		c1.44,0.684,3.083,1.025,4.932,1.025c2.4,0,4.554-0.491,6.462-1.476c1.908-0.983,3.528-2.376,4.86-4.177
		c1.332-1.799,2.358-3.959,3.078-6.479c0.72-2.521,1.08-5.315,1.08-8.388c0-2.16-0.258-4.122-0.774-5.887
		c-0.516-1.764-1.272-3.275-2.268-4.535c-0.996-1.26-2.214-2.232-3.654-2.916c-1.44-0.685-3.072-1.026-4.896-1.026
		c-2.4,0-4.548,0.499-6.444,1.494c-1.896,0.996-3.51,2.394-4.842,4.194c-1.332,1.799-2.352,3.966-3.06,6.498
		C66.256,215.982,65.902,218.785,65.902,221.856z"/>
	<path fill="#5A9136" d="M144.238,207.601l-4.535,37.332h-5.689c-2.641,0-3.959-1.224-3.959-3.672v-2.376
		c-1.801,2.256-3.732,3.924-5.797,5.004c-2.064,1.08-4.211,1.62-6.443,1.62c-1.561,0-2.977-0.312-4.248-0.937
		c-1.272-0.623-2.334-1.541-3.186-2.754c-0.852-1.211-1.458-2.699-1.818-4.464c-0.36-1.764-0.396-3.786-0.108-6.065l2.808-23.688
		h11.16l-2.808,23.688c-0.12,1.008-0.162,1.859-0.126,2.556s0.162,1.255,0.378,1.674c0.216,0.421,0.51,0.72,0.882,0.899
		c0.372,0.181,0.833,0.271,1.386,0.271c0.768,0,1.56-0.222,2.375-0.666c0.816-0.444,1.607-1.067,2.377-1.872
		c0.768-0.804,1.48-1.781,2.141-2.934s1.207-2.436,1.639-3.852l2.412-19.765H144.238z"/>
	<path fill="#5A9136" d="M161.842,245.509c-2.088,0-4.038-0.349-5.851-1.044c-1.812-0.695-3.384-1.711-4.716-3.042
		c-1.332-1.332-2.376-2.976-3.132-4.933c-0.756-1.955-1.134-4.205-1.134-6.75c0-3.312,0.546-6.354,1.638-9.125
		c1.092-2.772,2.562-5.166,4.41-7.183c1.848-2.017,3.99-3.587,6.426-4.716c2.436-1.128,4.998-1.692,7.687-1.692
		c2.088,0,4.032,0.349,5.832,1.044c1.8,0.697,3.366,1.711,4.697,3.043c1.332,1.331,2.382,2.976,3.15,4.932
		c0.768,1.956,1.152,4.206,1.152,6.75c0,3.264-0.547,6.281-1.639,9.054s-2.562,5.173-4.409,7.2
		c-1.849,2.028-3.991,3.612-6.427,4.752S164.529,245.509,161.842,245.509z M162.85,237.229c1.248,0,2.363-0.378,3.348-1.134
		c0.984-0.757,1.818-1.788,2.502-3.097c0.685-1.307,1.212-2.831,1.584-4.571c0.372-1.739,0.559-3.594,0.559-5.562
		c0-2.713-0.366-4.65-1.098-5.814c-0.732-1.164-1.927-1.746-3.582-1.746c-1.249,0-2.364,0.378-3.349,1.134
		c-0.984,0.757-1.817,1.782-2.502,3.078c-0.684,1.296-1.212,2.82-1.584,4.571c-0.372,1.753-0.558,3.613-0.558,5.58
		c0,2.664,0.365,4.591,1.098,5.779C159.999,236.635,161.193,237.229,162.85,237.229z"/>
	<path fill="#5A9136" d="M187.294,236.869c0-0.168,0-0.373,0-0.612s0.019-0.582,0.055-1.026c0.035-0.443,0.095-1.031,0.18-1.764
		c0.084-0.732,0.198-1.697,0.342-2.898l1.908-15.264h-2.988c-0.504,0-0.924-0.186-1.26-0.559c-0.337-0.371-0.444-0.918-0.324-1.638
		l0.504-4.356l5.652-1.151l3.132-9.108c0.408-1.151,1.224-1.728,2.448-1.728h6.048l-1.368,10.908h8.353l-0.937,7.632h-8.352
		l-1.801,14.652c-0.12,0.984-0.216,1.758-0.287,2.322c-0.072,0.563-0.127,0.996-0.162,1.295c-0.036,0.301-0.055,0.504-0.055,0.612
		s0,0.175,0,0.198c0,0.696,0.162,1.277,0.486,1.746c0.324,0.468,0.834,0.701,1.53,0.701c0.384,0,0.702-0.041,0.954-0.125
		s0.474-0.18,0.666-0.289c0.191-0.107,0.371-0.203,0.54-0.287c0.167-0.084,0.359-0.127,0.575-0.127c0.336,0,0.582,0.079,0.738,0.234
		c0.156,0.156,0.318,0.402,0.486,0.738l2.448,5.292c-1.489,1.08-3.085,1.89-4.788,2.431c-1.705,0.539-3.42,0.81-5.148,0.81
		c-1.44,0-2.736-0.198-3.888-0.595c-1.152-0.396-2.143-0.972-2.971-1.728c-0.827-0.756-1.476-1.661-1.943-2.718
		S187.342,238.213,187.294,236.869z"/>
	<path fill="#5A9136" d="M242.445,238.021c-1.32,1.296-2.609,2.419-3.87,3.366c-1.26,0.948-2.556,1.729-3.888,2.34
		s-2.748,1.062-4.248,1.35c-1.5,0.289-3.138,0.433-4.914,0.433c-2.208,0-4.236-0.378-6.084-1.134
		c-1.849-0.756-3.438-1.824-4.77-3.205c-1.332-1.379-2.364-3.041-3.097-4.985s-1.098-4.104-1.098-6.479
		c0-1.992,0.222-3.936,0.666-5.832s1.08-3.678,1.908-5.346s1.842-3.205,3.042-4.609c1.199-1.403,2.55-2.609,4.05-3.617
		s3.144-1.794,4.932-2.358c1.788-0.563,3.69-0.846,5.706-0.846c1.992,0,3.763,0.288,5.311,0.864s2.85,1.326,3.906,2.25
		c1.056,0.924,1.859,1.962,2.411,3.113c0.552,1.152,0.828,2.305,0.828,3.457c0,1.703-0.336,3.258-1.008,4.661
		c-0.672,1.404-1.842,2.659-3.51,3.763c-1.669,1.104-3.912,2.039-6.732,2.808s-6.366,1.368-10.638,1.8
		c0.048,2.545,0.605,4.404,1.674,5.58c1.067,1.176,2.646,1.764,4.734,1.764c0.983,0,1.836-0.084,2.556-0.252s1.351-0.383,1.89-0.647
		c0.54-0.265,1.026-0.54,1.458-0.828c0.433-0.288,0.847-0.563,1.242-0.828c0.396-0.264,0.811-0.479,1.242-0.647
		s0.924-0.252,1.477-0.252c0.359,0,0.707,0.09,1.044,0.27c0.335,0.18,0.635,0.414,0.899,0.702L242.445,238.021z M230.134,214.621
		c-1.849,0-3.469,0.737-4.86,2.213c-1.392,1.477-2.424,3.499-3.096,6.066c2.304-0.359,4.176-0.743,5.616-1.152
		c1.439-0.407,2.556-0.846,3.348-1.313s1.326-0.966,1.602-1.494c0.276-0.527,0.414-1.104,0.414-1.728s-0.24-1.212-0.72-1.764
		C231.957,214.896,231.189,214.621,230.134,214.621z"/>
	<path fill="#5A9136" d="M271.497,215.449c-0.336,0.432-0.648,0.744-0.936,0.936c-0.288,0.192-0.673,0.288-1.152,0.288
		c-0.48,0-0.954-0.108-1.422-0.324s-0.973-0.462-1.512-0.737c-0.54-0.276-1.152-0.523-1.837-0.738
		c-0.684-0.217-1.47-0.324-2.357-0.324c-1.656,0-2.839,0.318-3.546,0.953c-0.708,0.637-1.062,1.459-1.062,2.467
		c0,0.648,0.198,1.2,0.595,1.656c0.396,0.455,0.918,0.863,1.565,1.224c0.648,0.36,1.386,0.69,2.214,0.989
		c0.828,0.301,1.674,0.637,2.538,1.009s1.71,0.798,2.538,1.278s1.566,1.068,2.214,1.764c0.648,0.696,1.17,1.524,1.566,2.484
		c0.396,0.96,0.594,2.1,0.594,3.42c0,1.871-0.372,3.642-1.116,5.31c-0.744,1.669-1.812,3.12-3.204,4.356s-3.078,2.22-5.058,2.951
		c-1.98,0.732-4.206,1.099-6.678,1.099c-1.177,0-2.34-0.12-3.492-0.36c-1.152-0.239-2.238-0.563-3.258-0.972
		c-1.021-0.407-1.95-0.894-2.79-1.458c-0.841-0.564-1.524-1.17-2.053-1.818l2.736-4.104c0.336-0.48,0.726-0.857,1.17-1.135
		c0.444-0.275,0.99-0.414,1.639-0.414c0.6,0,1.115,0.145,1.548,0.433c0.432,0.288,0.899,0.601,1.403,0.937s1.104,0.647,1.801,0.936
		c0.695,0.288,1.607,0.432,2.735,0.432c1.584,0,2.76-0.354,3.528-1.062c0.768-0.708,1.152-1.542,1.152-2.503
		c0-0.743-0.198-1.355-0.595-1.836c-0.396-0.479-0.918-0.893-1.565-1.241c-0.648-0.348-1.381-0.66-2.196-0.937
		c-0.816-0.275-1.656-0.581-2.52-0.918c-0.864-0.336-1.705-0.725-2.521-1.17c-0.816-0.443-1.548-1.002-2.196-1.674
		c-0.647-0.672-1.17-1.5-1.565-2.484c-0.396-0.983-0.594-2.172-0.594-3.563c0-1.728,0.317-3.407,0.953-5.04
		c0.636-1.632,1.584-3.078,2.845-4.338c1.26-1.26,2.826-2.273,4.697-3.042c1.872-0.769,4.056-1.152,6.553-1.152
		c2.495,0,4.722,0.433,6.678,1.296c1.956,0.864,3.569,1.921,4.842,3.168L271.497,215.449z"/>
	<path fill="#5A9136" d="M276.465,239.281c0-0.865,0.162-1.668,0.486-2.412c0.323-0.744,0.768-1.393,1.332-1.944
		c0.563-0.552,1.229-0.99,1.998-1.313c0.768-0.324,1.607-0.486,2.52-0.486c0.888,0,1.716,0.162,2.484,0.486
		c0.768,0.323,1.439,0.762,2.016,1.313s1.026,1.2,1.35,1.944c0.324,0.744,0.486,1.547,0.486,2.412c0,0.863-0.162,1.674-0.486,2.43
		c-0.323,0.756-0.773,1.41-1.35,1.962s-1.248,0.984-2.016,1.296c-0.769,0.312-1.597,0.468-2.484,0.468
		c-0.912,0-1.752-0.156-2.52-0.468c-0.769-0.312-1.435-0.744-1.998-1.296c-0.564-0.552-1.009-1.206-1.332-1.962
		C276.627,240.955,276.465,240.145,276.465,239.281z M293.024,192.48l-2.52,20.664c-0.265,2.184-0.66,4.362-1.188,6.534
		c-0.527,2.173-1.14,4.397-1.836,6.678h-7.271c-0.145-2.28-0.204-4.505-0.181-6.678c0.024-2.172,0.181-4.351,0.469-6.534
		l2.52-20.664H293.024z"/>
</g>
<g>
	<path fill="#FFFFFF" d="M72.94,143.969h17.496L87.7,165.893c-1.344,0.984-2.736,1.831-4.176,2.538
		c-1.44,0.708-2.946,1.291-4.518,1.746c-1.572,0.456-3.228,0.792-4.968,1.008c-1.74,0.216-3.594,0.324-5.562,0.324
		c-3.24,0-6.198-0.594-8.874-1.782c-2.676-1.188-4.968-2.826-6.876-4.914s-3.384-4.56-4.428-7.416
		c-1.044-2.855-1.566-5.952-1.566-9.288c0-2.903,0.33-5.67,0.99-8.298c0.66-2.628,1.602-5.058,2.826-7.29
		c1.224-2.232,2.694-4.248,4.41-6.048c1.716-1.8,3.624-3.335,5.724-4.608c2.1-1.272,4.362-2.25,6.786-2.934
		c2.424-0.684,4.968-1.026,7.632-1.026c2.232,0,4.253,0.204,6.066,0.612c1.812,0.408,3.438,0.954,4.878,1.638
		c1.44,0.684,2.724,1.476,3.852,2.376c1.128,0.9,2.124,1.83,2.988,2.79l-3.816,4.716c-0.624,0.84-1.368,1.35-2.232,1.53
		c-0.864,0.18-1.752-0.018-2.664-0.594c-0.84-0.576-1.632-1.074-2.376-1.494c-0.744-0.419-1.5-0.768-2.268-1.044
		c-0.769-0.275-1.579-0.48-2.43-0.612c-0.852-0.132-1.806-0.198-2.862-0.198c-2.281,0-4.369,0.486-6.264,1.458
		c-1.896,0.972-3.528,2.34-4.896,4.104c-1.368,1.764-2.43,3.882-3.186,6.354c-0.756,2.472-1.134,5.196-1.134,8.172
		c0,2.304,0.282,4.374,0.846,6.21c0.563,1.836,1.362,3.384,2.394,4.644c1.032,1.26,2.268,2.227,3.708,2.898s3.036,1.008,4.788,1.008
		c1.44,0,2.736-0.126,3.888-0.378c1.152-0.252,2.256-0.606,3.312-1.062l1.008-8.568h-4.464c-0.72,0-1.267-0.186-1.638-0.558
		c-0.373-0.372-0.522-0.858-0.45-1.458L72.94,143.969z"/>
	<path fill="#FFFFFF" d="M125.536,164.021c-1.319,1.296-2.61,2.418-3.87,3.366c-1.26,0.948-2.556,1.728-3.888,2.34
		s-2.748,1.062-4.248,1.35s-3.138,0.432-4.914,0.432c-2.208,0-4.236-0.378-6.084-1.134c-1.848-0.756-3.438-1.824-4.77-3.204
		c-1.332-1.379-2.364-3.042-3.096-4.986c-0.732-1.944-1.098-4.104-1.098-6.48c0-1.992,0.222-3.936,0.666-5.832
		c0.444-1.896,1.08-3.678,1.908-5.346c0.828-1.668,1.841-3.204,3.042-4.608c1.2-1.404,2.55-2.61,4.05-3.618
		c1.5-1.008,3.144-1.794,4.932-2.358c1.788-0.563,3.69-0.846,5.706-0.846c1.992,0,3.762,0.288,5.31,0.864
		c1.548,0.576,2.85,1.327,3.906,2.25c1.056,0.924,1.86,1.962,2.412,3.114s0.828,2.304,0.828,3.456c0,1.704-0.336,3.258-1.008,4.662
		c-0.672,1.404-1.842,2.659-3.51,3.762c-1.668,1.104-3.912,2.04-6.732,2.808c-2.821,0.768-6.367,1.368-10.638,1.8
		c0.048,2.544,0.606,4.404,1.674,5.58c1.068,1.176,2.646,1.764,4.734,1.764c0.983,0,1.836-0.084,2.556-0.252
		c0.72-0.168,1.35-0.384,1.89-0.648s1.026-0.54,1.458-0.828s0.846-0.563,1.242-0.828c0.396-0.264,0.81-0.48,1.242-0.648
		c0.432-0.167,0.924-0.252,1.476-0.252c0.36,0,0.708,0.09,1.044,0.27c0.336,0.18,0.636,0.414,0.9,0.702L125.536,164.021z
		 M113.225,140.621c-1.849,0-3.469,0.738-4.86,2.214c-1.392,1.476-2.424,3.499-3.096,6.066c2.304-0.36,4.176-0.743,5.616-1.152
		c1.44-0.408,2.556-0.846,3.348-1.314c0.792-0.468,1.326-0.966,1.602-1.494c0.275-0.527,0.414-1.104,0.414-1.728
		c0-0.624-0.24-1.211-0.72-1.764C115.048,140.897,114.28,140.621,113.225,140.621z"/>
	<path fill="#FFFFFF" d="M131.908,162.869c0-0.167,0-0.372,0-0.612s0.019-0.582,0.055-1.026c0.035-0.444,0.095-1.031,0.18-1.764
		c0.084-0.732,0.198-1.698,0.342-2.898l1.908-15.264h-2.988c-0.504,0-0.924-0.186-1.26-0.558c-0.337-0.372-0.444-0.918-0.324-1.638
		l0.504-4.356l5.652-1.152l3.132-9.108c0.408-1.152,1.224-1.728,2.448-1.728h6.048l-1.368,10.908h8.353l-0.937,7.632h-8.352
		l-1.801,14.652c-0.12,0.984-0.216,1.758-0.287,2.322c-0.072,0.564-0.127,0.996-0.162,1.296c-0.036,0.3-0.055,0.504-0.055,0.612
		s0,0.174,0,0.198c0,0.696,0.162,1.278,0.486,1.746c0.324,0.468,0.834,0.702,1.53,0.702c0.384,0,0.702-0.042,0.954-0.126
		c0.252-0.083,0.474-0.18,0.666-0.288c0.191-0.108,0.371-0.204,0.54-0.288c0.167-0.084,0.359-0.126,0.575-0.126
		c0.336,0,0.582,0.079,0.738,0.234c0.156,0.156,0.318,0.402,0.486,0.738l2.448,5.292c-1.489,1.08-3.085,1.89-4.788,2.43
		c-1.705,0.54-3.42,0.81-5.148,0.81c-1.44,0-2.736-0.198-3.888-0.594c-1.152-0.396-2.143-0.972-2.971-1.728
		c-0.827-0.756-1.476-1.662-1.943-2.718S131.956,164.213,131.908,162.869z"/>
	<path fill="#FFFFFF" d="M188.786,127.517l-1.691,13.824h16.2l-1.225,9.036h-16.092l-2.556,20.556h-11.809l6.48-52.452h31.248
		l-1.152,9.036H188.786z"/>
	<path fill="#FFFFFF" d="M219.531,141.305c0.912-1.608,1.884-2.988,2.916-4.14c1.031-1.152,2.094-2.046,3.187-2.682
		c1.092-0.635,2.207-0.996,3.348-1.08c1.14-0.084,2.286,0.138,3.438,0.666l-2.016,10.332c-1.368-0.576-2.646-0.839-3.834-0.792
		c-1.188,0.049-2.28,0.457-3.276,1.224c-0.996,0.769-1.896,1.92-2.699,3.456c-0.805,1.536-1.494,3.504-2.07,5.904l-2.016,16.74
		h-10.944l4.536-37.332h5.76c1.152,0,2.052,0.27,2.7,0.81c0.647,0.54,0.972,1.422,0.972,2.646V141.305z"/>
	<path fill="#FFFFFF" d="M263.452,164.021c-1.32,1.296-2.609,2.418-3.87,3.366c-1.26,0.948-2.556,1.728-3.888,2.34
		s-2.748,1.062-4.248,1.35s-3.138,0.432-4.914,0.432c-2.208,0-4.236-0.378-6.084-1.134c-1.849-0.756-3.438-1.824-4.77-3.204
		c-1.332-1.379-2.364-3.042-3.097-4.986s-1.098-4.104-1.098-6.48c0-1.992,0.222-3.936,0.666-5.832
		c0.444-1.896,1.08-3.678,1.908-5.346s1.842-3.204,3.042-4.608c1.199-1.404,2.55-2.61,4.05-3.618c1.5-1.008,3.144-1.794,4.932-2.358
		c1.788-0.563,3.69-0.846,5.706-0.846c1.992,0,3.763,0.288,5.311,0.864c1.548,0.576,2.85,1.327,3.906,2.25
		c1.056,0.924,1.859,1.962,2.411,3.114s0.828,2.304,0.828,3.456c0,1.704-0.336,3.258-1.008,4.662
		c-0.672,1.404-1.842,2.659-3.51,3.762c-1.669,1.104-3.912,2.04-6.732,2.808s-6.366,1.368-10.638,1.8
		c0.048,2.544,0.605,4.404,1.674,5.58c1.067,1.176,2.646,1.764,4.734,1.764c0.983,0,1.836-0.084,2.556-0.252s1.351-0.384,1.89-0.648
		c0.54-0.264,1.026-0.54,1.458-0.828c0.433-0.288,0.847-0.563,1.242-0.828c0.396-0.264,0.811-0.48,1.242-0.648
		c0.432-0.167,0.924-0.252,1.477-0.252c0.359,0,0.707,0.09,1.044,0.27c0.335,0.18,0.635,0.414,0.899,0.702L263.452,164.021z
		 M251.141,140.621c-1.849,0-3.469,0.738-4.86,2.214s-2.424,3.499-3.096,6.066c2.304-0.36,4.176-0.743,5.616-1.152
		c1.439-0.408,2.556-0.846,3.348-1.314c0.792-0.468,1.326-0.966,1.602-1.494c0.276-0.527,0.414-1.104,0.414-1.728
		c0-0.624-0.24-1.211-0.72-1.764C252.964,140.897,252.196,140.621,251.141,140.621z"/>
	<path fill="#FFFFFF" d="M299.055,164.021c-1.32,1.296-2.609,2.418-3.87,3.366c-1.26,0.948-2.556,1.728-3.888,2.34
		s-2.748,1.062-4.248,1.35s-3.138,0.432-4.914,0.432c-2.208,0-4.236-0.378-6.084-1.134c-1.849-0.756-3.438-1.824-4.77-3.204
		c-1.332-1.379-2.364-3.042-3.097-4.986s-1.098-4.104-1.098-6.48c0-1.992,0.222-3.936,0.666-5.832
		c0.444-1.896,1.08-3.678,1.908-5.346s1.842-3.204,3.042-4.608c1.199-1.404,2.55-2.61,4.05-3.618c1.5-1.008,3.144-1.794,4.932-2.358
		c1.788-0.563,3.69-0.846,5.706-0.846c1.992,0,3.763,0.288,5.311,0.864c1.548,0.576,2.85,1.327,3.906,2.25
		c1.056,0.924,1.859,1.962,2.411,3.114s0.828,2.304,0.828,3.456c0,1.704-0.336,3.258-1.008,4.662
		c-0.672,1.404-1.842,2.659-3.51,3.762c-1.669,1.104-3.912,2.04-6.732,2.808s-6.366,1.368-10.638,1.8
		c0.048,2.544,0.605,4.404,1.674,5.58c1.067,1.176,2.646,1.764,4.734,1.764c0.983,0,1.836-0.084,2.556-0.252s1.351-0.384,1.89-0.648
		c0.54-0.264,1.026-0.54,1.458-0.828c0.433-0.288,0.847-0.563,1.242-0.828c0.396-0.264,0.811-0.48,1.242-0.648
		c0.432-0.167,0.924-0.252,1.477-0.252c0.359,0,0.707,0.09,1.044,0.27c0.335,0.18,0.635,0.414,0.899,0.702L299.055,164.021z
		 M286.743,140.621c-1.849,0-3.469,0.738-4.86,2.214s-2.424,3.499-3.096,6.066c2.304-0.36,4.176-0.743,5.616-1.152
		c1.439-0.408,2.556-0.846,3.348-1.314c0.792-0.468,1.326-0.966,1.602-1.494c0.276-0.527,0.414-1.104,0.414-1.728
		c0-0.624-0.24-1.211-0.72-1.764C288.566,140.897,287.799,140.621,286.743,140.621z"/>
	<path fill="#FFFFFF" d="M81.851,242.969c-1.848,0.359-3.756,0.54-5.724,0.54c-3.456,0-6.558-0.606-9.306-1.818
		c-2.749-1.212-5.083-2.868-7.002-4.968s-3.39-4.572-4.41-7.416c-1.021-2.844-1.53-5.91-1.53-9.198c0-2.831,0.33-5.55,0.99-8.153
		c0.66-2.604,1.596-5.022,2.808-7.254c1.211-2.232,2.682-4.26,4.41-6.084s3.66-3.379,5.796-4.662
		c2.136-1.284,4.451-2.28,6.948-2.988c2.496-0.708,5.136-1.062,7.92-1.062c3.432,0,6.521,0.607,9.27,1.818
		c2.748,1.212,5.076,2.875,6.984,4.986c1.908,2.111,3.372,4.596,4.392,7.451c1.02,2.857,1.53,5.917,1.53,9.181
		c0,2.663-0.288,5.22-0.864,7.668c-0.576,2.448-1.404,4.74-2.484,6.876c-1.08,2.137-2.388,4.098-3.924,5.886
		c-1.537,1.788-3.252,3.354-5.148,4.698l10.476,14.328h-9.648c-1.368,0-2.58-0.18-3.636-0.54c-1.057-0.36-1.98-1.021-2.772-1.979
		L81.851,242.969z M65.902,219.856c0,2.16,0.252,4.116,0.756,5.868s1.242,3.252,2.214,4.5s2.178,2.214,3.618,2.898
		c1.44,0.684,3.083,1.025,4.932,1.025c2.4,0,4.554-0.491,6.462-1.476c1.908-0.983,3.528-2.376,4.86-4.177
		c1.332-1.799,2.358-3.959,3.078-6.479c0.72-2.521,1.08-5.315,1.08-8.388c0-2.16-0.258-4.122-0.774-5.887
		c-0.516-1.764-1.272-3.275-2.268-4.535c-0.996-1.26-2.214-2.232-3.654-2.916c-1.44-0.685-3.072-1.026-4.896-1.026
		c-2.4,0-4.548,0.499-6.444,1.494c-1.896,0.996-3.51,2.394-4.842,4.194c-1.332,1.799-2.352,3.966-3.06,6.498
		C66.256,213.982,65.902,216.785,65.902,219.856z"/>
	<path fill="#FFFFFF" d="M144.238,205.601l-4.535,37.332h-5.689c-2.641,0-3.959-1.224-3.959-3.672v-2.376
		c-1.801,2.256-3.732,3.924-5.797,5.004c-2.064,1.08-4.211,1.62-6.443,1.62c-1.561,0-2.977-0.312-4.248-0.937
		c-1.272-0.623-2.334-1.541-3.186-2.754c-0.852-1.211-1.458-2.699-1.818-4.464c-0.36-1.764-0.396-3.786-0.108-6.065l2.808-23.688
		h11.16l-2.808,23.688c-0.12,1.008-0.162,1.859-0.126,2.556s0.162,1.255,0.378,1.674c0.216,0.421,0.51,0.72,0.882,0.899
		c0.372,0.181,0.833,0.271,1.386,0.271c0.768,0,1.56-0.222,2.375-0.666c0.816-0.444,1.607-1.067,2.377-1.872
		c0.768-0.804,1.48-1.781,2.141-2.934s1.207-2.436,1.639-3.852l2.412-19.765H144.238z"/>
	<path fill="#FFFFFF" d="M161.842,243.509c-2.088,0-4.038-0.349-5.851-1.044c-1.812-0.695-3.384-1.711-4.716-3.042
		c-1.332-1.332-2.376-2.976-3.132-4.933c-0.756-1.955-1.134-4.205-1.134-6.75c0-3.312,0.546-6.354,1.638-9.125
		c1.092-2.772,2.562-5.166,4.41-7.183c1.848-2.017,3.99-3.587,6.426-4.716c2.436-1.128,4.998-1.692,7.687-1.692
		c2.088,0,4.032,0.349,5.832,1.044c1.8,0.697,3.366,1.711,4.697,3.043c1.332,1.331,2.382,2.976,3.15,4.932
		c0.768,1.956,1.152,4.206,1.152,6.75c0,3.264-0.547,6.281-1.639,9.054s-2.562,5.173-4.409,7.2
		c-1.849,2.028-3.991,3.612-6.427,4.752S164.529,243.509,161.842,243.509z M162.85,235.229c1.248,0,2.363-0.378,3.348-1.134
		c0.984-0.757,1.818-1.788,2.502-3.097c0.685-1.307,1.212-2.831,1.584-4.571c0.372-1.739,0.559-3.594,0.559-5.562
		c0-2.713-0.366-4.65-1.098-5.814c-0.732-1.164-1.927-1.746-3.582-1.746c-1.249,0-2.364,0.378-3.349,1.134
		c-0.984,0.757-1.817,1.782-2.502,3.078c-0.684,1.296-1.212,2.82-1.584,4.571c-0.372,1.753-0.558,3.613-0.558,5.58
		c0,2.664,0.365,4.591,1.098,5.779C159.999,234.635,161.193,235.229,162.85,235.229z"/>
	<path fill="#FFFFFF" d="M187.294,234.869c0-0.168,0-0.373,0-0.612s0.019-0.582,0.055-1.026c0.035-0.443,0.095-1.031,0.18-1.764
		c0.084-0.732,0.198-1.697,0.342-2.898l1.908-15.264h-2.988c-0.504,0-0.924-0.186-1.26-0.559c-0.337-0.371-0.444-0.918-0.324-1.638
		l0.504-4.356l5.652-1.151l3.132-9.108c0.408-1.151,1.224-1.728,2.448-1.728h6.048l-1.368,10.908h8.353l-0.937,7.632h-8.352
		l-1.801,14.652c-0.12,0.984-0.216,1.758-0.287,2.322c-0.072,0.563-0.127,0.996-0.162,1.295c-0.036,0.301-0.055,0.504-0.055,0.612
		s0,0.175,0,0.198c0,0.696,0.162,1.277,0.486,1.746c0.324,0.468,0.834,0.701,1.53,0.701c0.384,0,0.702-0.041,0.954-0.125
		s0.474-0.18,0.666-0.289c0.191-0.107,0.371-0.203,0.54-0.287c0.167-0.084,0.359-0.127,0.575-0.127c0.336,0,0.582,0.079,0.738,0.234
		c0.156,0.156,0.318,0.402,0.486,0.738l2.448,5.292c-1.489,1.08-3.085,1.89-4.788,2.431c-1.705,0.539-3.42,0.81-5.148,0.81
		c-1.44,0-2.736-0.198-3.888-0.595c-1.152-0.396-2.143-0.972-2.971-1.728c-0.827-0.756-1.476-1.661-1.943-2.718
		S187.342,236.213,187.294,234.869z"/>
	<path fill="#FFFFFF" d="M242.445,236.021c-1.32,1.296-2.609,2.419-3.87,3.366c-1.26,0.948-2.556,1.729-3.888,2.34
		s-2.748,1.062-4.248,1.35c-1.5,0.289-3.138,0.433-4.914,0.433c-2.208,0-4.236-0.378-6.084-1.134
		c-1.849-0.756-3.438-1.824-4.77-3.205c-1.332-1.379-2.364-3.041-3.097-4.985s-1.098-4.104-1.098-6.479
		c0-1.992,0.222-3.936,0.666-5.832s1.08-3.678,1.908-5.346s1.842-3.205,3.042-4.609c1.199-1.403,2.55-2.609,4.05-3.617
		s3.144-1.794,4.932-2.358c1.788-0.563,3.69-0.846,5.706-0.846c1.992,0,3.763,0.288,5.311,0.864s2.85,1.326,3.906,2.25
		c1.056,0.924,1.859,1.962,2.411,3.113c0.552,1.152,0.828,2.305,0.828,3.457c0,1.703-0.336,3.258-1.008,4.661
		c-0.672,1.404-1.842,2.659-3.51,3.763c-1.669,1.104-3.912,2.039-6.732,2.808s-6.366,1.368-10.638,1.8
		c0.048,2.545,0.605,4.404,1.674,5.58c1.067,1.176,2.646,1.764,4.734,1.764c0.983,0,1.836-0.084,2.556-0.252s1.351-0.383,1.89-0.647
		c0.54-0.265,1.026-0.54,1.458-0.828c0.433-0.288,0.847-0.563,1.242-0.828c0.396-0.264,0.811-0.479,1.242-0.647
		s0.924-0.252,1.477-0.252c0.359,0,0.707,0.09,1.044,0.27c0.335,0.18,0.635,0.414,0.899,0.702L242.445,236.021z M230.134,212.621
		c-1.849,0-3.469,0.737-4.86,2.213c-1.392,1.477-2.424,3.499-3.096,6.066c2.304-0.359,4.176-0.743,5.616-1.152
		c1.439-0.407,2.556-0.846,3.348-1.313s1.326-0.966,1.602-1.494c0.276-0.527,0.414-1.104,0.414-1.728s-0.24-1.212-0.72-1.764
		C231.957,212.896,231.189,212.621,230.134,212.621z"/>
	<path fill="#FFFFFF" d="M271.497,213.449c-0.336,0.432-0.648,0.744-0.936,0.936c-0.288,0.192-0.673,0.288-1.152,0.288
		c-0.48,0-0.954-0.108-1.422-0.324s-0.973-0.462-1.512-0.737c-0.54-0.276-1.152-0.523-1.837-0.738
		c-0.684-0.217-1.47-0.324-2.357-0.324c-1.656,0-2.839,0.318-3.546,0.953c-0.708,0.637-1.062,1.459-1.062,2.467
		c0,0.648,0.198,1.2,0.595,1.656c0.396,0.455,0.918,0.863,1.565,1.224c0.648,0.36,1.386,0.69,2.214,0.989
		c0.828,0.301,1.674,0.637,2.538,1.009s1.71,0.798,2.538,1.278s1.566,1.068,2.214,1.764c0.648,0.696,1.17,1.524,1.566,2.484
		c0.396,0.96,0.594,2.1,0.594,3.42c0,1.871-0.372,3.642-1.116,5.31c-0.744,1.669-1.812,3.12-3.204,4.356s-3.078,2.22-5.058,2.951
		c-1.98,0.732-4.206,1.099-6.678,1.099c-1.177,0-2.34-0.12-3.492-0.36c-1.152-0.239-2.238-0.563-3.258-0.972
		c-1.021-0.407-1.95-0.894-2.79-1.458c-0.841-0.564-1.524-1.17-2.053-1.818l2.736-4.104c0.336-0.48,0.726-0.857,1.17-1.135
		c0.444-0.275,0.99-0.414,1.639-0.414c0.6,0,1.115,0.145,1.548,0.433c0.432,0.288,0.899,0.601,1.403,0.937s1.104,0.647,1.801,0.936
		c0.695,0.288,1.607,0.432,2.735,0.432c1.584,0,2.76-0.354,3.528-1.062c0.768-0.708,1.152-1.542,1.152-2.503
		c0-0.743-0.198-1.355-0.595-1.836c-0.396-0.479-0.918-0.893-1.565-1.241c-0.648-0.348-1.381-0.66-2.196-0.937
		c-0.816-0.275-1.656-0.581-2.52-0.918c-0.864-0.336-1.705-0.725-2.521-1.17c-0.816-0.443-1.548-1.002-2.196-1.674
		c-0.647-0.672-1.17-1.5-1.565-2.484c-0.396-0.983-0.594-2.172-0.594-3.563c0-1.728,0.317-3.407,0.953-5.04
		c0.636-1.632,1.584-3.078,2.845-4.338c1.26-1.26,2.826-2.273,4.697-3.042c1.872-0.769,4.056-1.152,6.553-1.152
		c2.495,0,4.722,0.433,6.678,1.296c1.956,0.864,3.569,1.921,4.842,3.168L271.497,213.449z"/>
	<path fill="#FFFFFF" d="M276.465,237.281c0-0.865,0.162-1.668,0.486-2.412c0.323-0.744,0.768-1.393,1.332-1.944
		c0.563-0.552,1.229-0.99,1.998-1.313c0.768-0.324,1.607-0.486,2.52-0.486c0.888,0,1.716,0.162,2.484,0.486
		c0.768,0.323,1.439,0.762,2.016,1.313s1.026,1.2,1.35,1.944c0.324,0.744,0.486,1.547,0.486,2.412c0,0.863-0.162,1.674-0.486,2.43
		c-0.323,0.756-0.773,1.41-1.35,1.962s-1.248,0.984-2.016,1.296c-0.769,0.312-1.597,0.468-2.484,0.468
		c-0.912,0-1.752-0.156-2.52-0.468c-0.769-0.312-1.435-0.744-1.998-1.296c-0.564-0.552-1.009-1.206-1.332-1.962
		C276.627,238.955,276.465,238.145,276.465,237.281z M293.024,190.48l-2.52,20.664c-0.265,2.184-0.66,4.362-1.188,6.534
		c-0.527,2.173-1.14,4.397-1.836,6.678h-7.271c-0.145-2.28-0.204-4.505-0.181-6.678c0.024-2.172,0.181-4.351,0.469-6.534
		l2.52-20.664H293.024z"/>
</g>
</svg>
