<?xml version="1.0" encoding="utf-8"?>
<!-- Generator: Adobe Illustrator 18.0.0, SVG Export Plug-In . SVG Version: 6.00 Build 0)  -->
<!DOCTYPE svg PUBLIC "-//W3C//DTD SVG 1.1//EN" "//www.w3.org/Graphics/SVG/1.1/DTD/svg11.dtd">
<svg version="1.1" id="Layer_1" xmlns="//www.w3.org/2000/svg" xmlns:xlink="//www.w3.org/1999/xlink" x="0px" y="0px"
	 viewBox="0 0 893.7 248.1" enable-background="new 0 0 893.7 248.1" xml:space="preserve">
<g>
	<path fill="#3464B5" d="M214.4,33.7C170-10.6,98.1-10.6,53.8,33.7c-39.4,39.4-43.7,100.6-13,144.9L0,248.1l69.5-40.8
		c44.3,30.7,105.5,26.5,144.9-13C258.7,149.9,258.7,78,214.4,33.7z M202.5,182.4c-37.8,37.8-99,37.8-136.8,0
		c-37.8-37.8-37.8-99,0-136.8c37.8-37.8,99-37.8,136.8,0C240.3,83.4,240.3,144.6,202.5,182.4z"/>
</g>
<g>
	<g>
		<path fill="#3464B5" d="M348.7,96.3h-0.1c0.7,1.2,1,2.3,1,3.5c0,0.9-0.3,1.9-0.8,2.9c-0.6,1-1.3,1.8-2.2,2.5
			c-0.9,0.6-1.9,0.9-3.2,0.9c-2.4,0-4.2-1-5.5-2.9l-17.4-27.7h-15v24.4c0,1.7-0.6,3.2-1.9,4.4c-1.2,1.2-2.7,1.8-4.5,1.8
			c-1.7,0-3.2-0.6-4.4-1.8c-1.2-1.2-1.9-2.7-1.9-4.4v-77c0-1.7,0.6-3.2,1.9-4.4c1.2-1.2,2.7-1.8,4.4-1.8h21c0.2,0,0.7,0,1.6,0.1
			c0.9,0.1,2,0.3,3.3,0.5c1.3,0.3,2.8,0.6,4.5,1.1c1.7,0.5,3.3,1.1,5.1,1.8c4.7,2.5,8.4,6,11.1,10.4c2.7,4.5,4,9.6,4,15.4
			c0,0.2,0,0.7-0.1,1.6c0,0.9-0.2,2-0.4,3.3c-0.3,1.3-0.6,2.8-1.1,4.5c-0.5,1.7-1.1,3.4-2,5.1v-0.1c-1.3,2.6-2.9,5-5,7
			c-2,2-4.4,3.8-7.2,5.2L348.7,96.3z M305.5,62.6h14.6c6.7,0,11.5-2.5,14.4-7.5c0.5-1,0.9-2.1,1.2-3.1c0.3-1.1,0.5-2,0.7-2.9
			c0.2-0.8,0.3-1.6,0.3-2.1s0.1-0.9,0.1-1c0-7-2.7-11.8-8.1-14.6c-1.1-0.5-2.2-0.9-3.1-1.2c-1-0.3-1.9-0.5-2.7-0.6
			c-0.9-0.2-1.9-0.3-2.8-0.3h-14.6V62.6z"/>
	</g>
	<g>
		<path fill="#3464B5" d="M413.9,95.2c1.3,1.3,1.9,2.8,1.9,4.6c0,1.7-0.6,3.2-1.9,4.4c-1.3,1.2-2.8,1.8-4.5,1.8h-42.2
			c-1.8,0-3.3-0.6-4.5-1.8c-1.2-1.2-1.9-2.7-1.9-4.4v-77c0-1.7,0.6-3.2,1.9-4.4c1.2-1.2,2.7-1.8,4.5-1.8h42.2c1.7,0,3.2,0.6,4.5,1.8
			c1.3,1.2,1.9,2.7,1.9,4.4c0,1.8-0.6,3.3-1.9,4.6c-1.3,1.3-2.8,1.9-4.5,1.9h-35.8v25.7h28.1c1.7,0,3.2,0.6,4.4,1.9
			c1.2,1.2,1.9,2.7,1.9,4.4c0,1.7-0.6,3.2-1.9,4.4c-1.2,1.2-2.7,1.9-4.4,1.9h-28.1v25.7h35.8C411.1,93.3,412.6,93.9,413.9,95.2z"/>
	</g>
	<g>
		<path fill="#3464B5" d="M502.2,106.1c-1.7,0-3.2-0.6-4.4-1.8c-1.2-1.2-1.9-2.7-1.9-4.4V42l-23.1,30.8c-1.3,1.7-3,2.6-5.1,2.6
			s-3.8-0.8-5.1-2.6l-23-30.8v57.8c0,1.7-0.6,3.2-1.9,4.4c-1.3,1.2-2.8,1.8-4.5,1.8s-3.2-0.6-4.5-1.8c-1.3-1.2-1.9-2.7-1.9-4.4v-77
			c0-1.7,0.6-3.2,1.9-4.4c1.2-1.2,2.8-1.8,4.7-1.8c2,0,3.7,0.9,5,2.6l29.4,39.2l29.5-39.2c1.2-1.7,2.9-2.6,5-2.6
			c1.9,0,3.4,0.6,4.6,1.8c1.2,1.2,1.8,2.7,1.8,4.4v77c0,1.7-0.6,3.2-1.9,4.4C505.5,105.4,504,106.1,502.2,106.1z"/>
	</g>
	<g>
		<path fill="#3464B5" d="M561.9,106.1c-5.9,0-11.4-1.2-16.6-3.5c-5.2-2.3-9.7-5.5-13.6-9.6c-3.9-4-6.9-8.8-9.2-14.3
			s-3.4-11.3-3.4-17.4c0-6.1,1.1-11.9,3.4-17.3s5.3-10.2,9.2-14.3c3.9-4.1,8.4-7.3,13.6-9.6c5.2-2.3,10.7-3.5,16.6-3.5
			c5.9,0,11.4,1.2,16.6,3.5c5.2,2.3,9.7,5.6,13.6,9.6c3.9,4.1,6.9,8.8,9.2,14.3c2.3,5.4,3.4,11.2,3.4,17.3c0,6.1-1.1,11.9-3.4,17.4
			c-2.3,5.5-5.3,10.2-9.2,14.3c-3.9,4-8.4,7.2-13.6,9.6C573.4,104.9,567.8,106.1,561.9,106.1z M561.9,29.4c-4.2,0-8.1,0.8-11.7,2.5
			c-3.6,1.7-6.8,3.9-9.5,6.8c-2.7,2.9-4.9,6.3-6.5,10.2c-1.6,3.9-2.4,8-2.4,12.5c0,4.4,0.8,8.6,2.4,12.5c1.6,3.9,3.7,7.3,6.5,10.2
			c2.7,2.9,5.9,5.2,9.5,6.8c3.6,1.7,7.5,2.5,11.7,2.5c4.2,0,8.1-0.8,11.7-2.5c3.6-1.7,6.8-3.9,9.5-6.8c2.7-2.9,4.9-6.3,6.5-10.2
			c1.6-3.9,2.4-8,2.4-12.5c0-4.4-0.8-8.6-2.4-12.5c-1.6-3.9-3.7-7.3-6.5-10.2c-2.7-2.9-5.9-5.2-9.5-6.8
			C570,30.2,566.1,29.4,561.9,29.4z"/>
	</g>
	<g>
		<path fill="#3464B5" d="M643.1,106.1c-1.3,0-2.5-0.4-3.5-1.2c-1.1-0.8-1.9-1.8-2.5-2.9l-30.7-76.7c-0.3-0.6-0.4-1.4-0.4-2.3
			c0-1.6,0.6-3.1,1.7-4.4s2.7-2,4.5-2c1.3,0,2.5,0.4,3.6,1.1c1.1,0.7,1.9,1.7,2.3,3l24.9,62l24.7-62c0.5-1.3,1.3-2.3,2.4-3
			c1.1-0.7,2.3-1.1,3.6-1.1c2,0,3.5,0.7,4.6,2s1.7,2.7,1.7,4.3c0,1-0.1,1.8-0.4,2.4c-4.9,12.4-10,25.1-15.3,38.4
			c-5.4,13.2-10.5,26-15.3,38.4c-0.6,1.1-1.4,2.1-2.5,2.9C645.4,105.7,644.3,106.1,643.1,106.1z"/>
	</g>
	<g>
		<path fill="#3464B5" d="M743,97.4c0.3,0.7,0.4,1.5,0.4,2.4c0,1.6-0.6,3.1-1.7,4.3c-1.1,1.3-2.6,1.9-4.6,1.9
			c-1.2,0-2.3-0.4-3.5-1.3c-1.1-0.9-2-1.8-2.6-2.8l-6-15.1h-37.5l-6.1,15.1c-0.5,1-1.3,2-2.4,2.8c-1.1,0.9-2.3,1.3-3.5,1.3
			c-1.9,0-3.4-0.7-4.5-2c-1.2-1.3-1.7-2.7-1.7-4.3c0-0.9,0.1-1.7,0.4-2.4C674.6,85,679.7,72.2,685,59c5.3-13.2,10.5-26,15.4-38.4
			c0.6-1.1,1.4-2.1,2.5-2.9c1.1-0.8,2.2-1.2,3.5-1.2c1.2,0,2.3,0.4,3.4,1.2c1.1,0.8,1.9,1.8,2.5,2.9L743,97.4z M719.8,74.2L706.4,40
			l-13.6,34.3H719.8z"/>
	</g>
	<g>
		<path fill="#3464B5" d="M760.7,106.1c-1.8,0-3.3-0.6-4.6-1.8c-1.3-1.2-1.9-2.7-1.9-4.4v-77c0-1.7,0.6-3.2,1.9-4.4
			c1.3-1.2,2.8-1.8,4.6-1.8c1.7,0,3.2,0.6,4.4,1.8c1.2,1.2,1.9,2.7,1.9,4.4v70.4h28.1c1.8,0,3.3,0.6,4.6,1.9
			c1.3,1.3,1.9,2.8,1.9,4.6c0,1.7-0.6,3.2-1.9,4.4c-1.3,1.2-2.8,1.8-4.6,1.8H760.7z"/>
	</g>
	<g>
		<path fill="#3464B5" d="M841.5,51.3c0.6,0.2,1.7,0.5,3.2,1.1c1.5,0.6,3.3,1.3,5.2,2.3c1.9,1,3.9,2.1,5.9,3.5c2,1.4,4,2.9,5.8,4.7
			c1.8,1.8,3.3,3.8,4.5,6.1c1.2,2.3,1.9,4.8,2.2,7.5v1.4c0,3.6-0.7,7.1-2.1,10.4c-1.4,3.4-3.3,6.3-5.8,8.8c-2.7,2.7-5.9,4.8-9.6,6.3
			c-3.7,1.5-7.6,2.2-11.8,2.2h-1c-5.4-0.2-10.2-1.7-14.5-4.5c-4.3-2.8-7.6-6.6-9.8-11.4c-0.3-0.7-0.5-1.6-0.5-2.7
			c0-1.2,0.3-2.3,0.9-3.4c0.6-1.1,1.5-1.9,2.7-2.4c0.8-0.4,1.7-0.6,2.7-0.6c1.2,0,2.3,0.3,3.5,1c1.1,0.6,1.9,1.6,2.4,2.7
			c1.2,2.6,2.9,4.6,5.2,6.1s4.9,2.3,7.9,2.4h0.6c5,0,9.1-1.5,12.1-4.6c3-3,4.5-6.4,4.5-10.4v-0.5c-0.2-1.7-0.9-3.3-2.3-4.9
			c-1.4-1.6-3-3-4.8-4.2c-1.8-1.2-3.8-2.3-5.8-3.2c-2-0.9-3.6-1.6-4.9-2c-0.1,0-0.2,0-0.4-0.1c-0.2-0.1-0.3-0.1-0.5-0.1
			c-12.7-4.6-19-12.6-19-23.9v-1c0.2-3.2,0.9-6.2,2.3-9c1.4-2.7,3.4-5.1,6.1-7c2.2-1.8,4.8-3.2,7.8-4.2c3-1,6.1-1.5,9.3-1.5h1.3
			c2.5,0.1,5,0.6,7.7,1.7c2.6,1,5.1,2.3,7.3,3.8c0.7,0.7,1.3,1.5,1.8,2.4c0.5,0.9,0.8,1.8,0.8,2.6c0,1.6-0.5,2.9-1.4,3.8
			c-1.3,1.7-3,2.6-5.1,2.6c-0.6,0-1.2-0.1-1.9-0.3c-0.7-0.2-1.3-0.5-1.9-1c-1-0.8-2.2-1.4-3.6-1.9c-1.4-0.5-2.8-0.8-4-0.9h-0.9
			c-3.6,0-6.6,0.9-9,2.6c-2.4,1.7-3.7,4-3.8,6.7v0.5c0,1.9,0.3,3.5,0.9,4.7c0.6,1.3,1.4,2.4,2.4,3.3c1,0.9,2.2,1.7,3.5,2.3
			c1.3,0.6,2.7,1.3,4,1.9L841.5,51.3z"/>
	</g>
	<g>
		<path fill="#3464B5" d="M299.4,217.9c-1.7,0-3.2-0.6-4.4-1.8c-1.2-1.2-1.9-2.7-1.9-4.4v-77c0-1.7,0.6-3.2,1.9-4.4
			c1.2-1.2,2.7-1.8,4.4-1.8c1.7,0,3.2,0.6,4.5,1.8c1.3,1.2,1.9,2.7,1.9,4.4v77c0,1.7-0.6,3.2-1.9,4.4
			C302.5,217.3,301.1,217.9,299.4,217.9z"/>
	</g>
	<g>
		<path fill="#3464B5" d="M377.8,217.9c-2.1,0-3.9-0.9-5.2-2.8l-42.1-60.2v56.8c0,1.7-0.6,3.2-1.9,4.4c-1.3,1.2-2.8,1.8-4.6,1.8
			c-1.7,0-3.2-0.6-4.4-1.8c-1.2-1.2-1.9-2.7-1.9-4.4v-77c0-1.6,0.6-3.1,1.8-4.3c1.2-1.3,2.7-1.9,4.6-1.9c2.1,0,3.9,0.9,5.2,2.8
			l42.1,60.2v-56.8c0-1.7,0.6-3.2,1.9-4.4c1.3-1.2,2.8-1.8,4.5-1.8c1.7,0,3.2,0.6,4.5,1.8c1.3,1.2,1.9,2.7,1.9,4.4v77
			c0,1.7-0.6,3.2-1.9,4.4C381,217.3,379.6,217.9,377.8,217.9z"/>
	</g>
	<g>
		<path fill="#3464B5" d="M401.4,217.9c-1.7,0-3.2-0.6-4.4-1.8c-1.2-1.2-1.9-2.7-1.9-4.4v-77c0-1.7,0.6-3.2,1.9-4.4
			c1.2-1.2,2.7-1.8,4.4-1.8h22.4c0.1,0,1.1,0.1,3,0.2c1.9,0.1,4.3,0.6,7.1,1.4c2.8,0.8,5.8,2.1,9.1,3.9c3.2,1.8,6.2,4.3,9,7.7
			c2.8,3.3,5.1,7.5,6.9,12.7c1.8,5.1,2.7,11.4,2.7,18.9c0,7.5-0.9,13.8-2.7,18.9c-1.8,5.1-4.1,9.3-6.9,12.7c-2.8,3.3-5.8,5.9-9,7.7
			c-3.2,1.8-6.3,3.1-9.1,3.9c-2.8,0.8-5.2,1.3-7.1,1.4c-1.9,0.1-2.9,0.2-3,0.2H401.4z M407.9,205.1h15.9c0.1,0,0.5,0,1.3-0.1
			c0.8-0.1,1.8-0.3,3-0.6c1.2-0.3,2.5-0.7,4-1.3c1.5-0.6,3-1.3,4.5-2.2c3.9-2.6,6.9-6.2,9-10.9c2.1-4.7,3.1-10.3,3.1-16.9
			c0-6.7-1.1-12.5-3.3-17.2c-2.2-4.7-5.3-8.4-9.4-10.9c-1.4-0.9-2.9-1.5-4.3-2c-1.5-0.5-2.8-0.9-4-1.2c-1.2-0.3-2.6-0.5-4.1-0.6
			h-15.9V205.1z"/>
	</g>
	<g>
		<path fill="#3464B5" d="M525.6,207.1c1.3,1.3,1.9,2.8,1.9,4.6c0,1.7-0.6,3.2-1.9,4.4c-1.3,1.2-2.8,1.8-4.5,1.8H479
			c-1.8,0-3.3-0.6-4.5-1.8c-1.2-1.2-1.9-2.7-1.9-4.4v-77c0-1.7,0.6-3.2,1.9-4.4c1.2-1.2,2.7-1.8,4.5-1.8h42.2c1.7,0,3.2,0.6,4.5,1.8
			c1.3,1.2,1.9,2.7,1.9,4.4c0,1.8-0.6,3.3-1.9,4.6c-1.3,1.3-2.8,1.9-4.5,1.9h-35.8v25.7h28.1c1.7,0,3.2,0.6,4.4,1.9
			c1.2,1.2,1.9,2.7,1.9,4.4s-0.6,3.2-1.9,4.4c-1.2,1.2-2.7,1.9-4.4,1.9h-28.1v25.7h35.8C522.9,205.1,524.3,205.8,525.6,207.1z"/>
	</g>
	<g>
		<path fill="#3464B5" d="M604,208v-0.1c0.8,1.2,1.2,2.5,1.2,3.8c0,1.6-0.6,3.1-1.9,4.3c-1.3,1.3-2.8,1.9-4.5,1.9
			c-2.1,0-3.9-0.9-5.2-2.8l-21.7-30.7l-21.5,30.7c-1.4,1.9-3.2,2.8-5.4,2.8c-1.7,0-3.2-0.6-4.4-1.9c-1.2-1.3-1.9-2.7-1.9-4.3
			c0-1.4,0.4-2.7,1.2-3.7l24.3-34.8l-24.3-34.8c-0.8-1-1.2-2.1-1.2-3.2c0-1.7,0.6-3.3,1.7-4.7c1.1-1.4,2.6-2.1,4.6-2.1
			c2.2,0,4,0.9,5.4,2.8l21.5,30.8l21.7-30.8c1.4-1.9,3.1-2.8,5.2-2.8c1.7,0,3.2,0.6,4.5,1.9c1.3,1.3,1.9,2.7,1.9,4.3
			c0,1.4-0.4,2.7-1.2,3.7l-24.3,34.8L604,208z"/>
	</g>
	<g>
		<path fill="#AEC1E1" d="M622.7,205.1c1.8,0,3.3,0.6,4.6,1.9c1.3,1.3,1.9,2.8,1.9,4.6c0,1.7-0.6,3.2-1.9,4.4
			c-1.3,1.2-2.8,1.8-4.6,1.8c-1.7,0-3.2-0.6-4.4-1.8c-1.2-1.2-1.8-2.7-1.8-4.4c0-1.8,0.6-3.3,1.8-4.6
			C619.5,205.8,621,205.1,622.7,205.1z"/>
	</g>
	<g>
		<path fill="#AEC1E1" d="M701.2,201.3c1-0.5,2-0.8,3.1-0.8c1.1,0,2.2,0.3,3.2,0.8c1,0.6,1.8,1.4,2.4,2.6c0.9,1.4,1,3,0.5,4.7
			c-0.6,1.7-1.6,3-3,3.9c-3.2,1.6-6.7,2.9-10.4,3.9c-3.7,1-7.4,1.5-10.9,1.5c-6.1,0-11.9-1.2-17.4-3.5s-10.2-5.5-14.3-9.6
			c-4-4-7.2-8.8-9.6-14.3c-2.3-5.5-3.5-11.3-3.5-17.4c0-6.1,1.2-11.9,3.5-17.3c2.3-5.4,5.5-10.2,9.6-14.3s8.8-7.3,14.3-9.6
			s11.3-3.5,17.4-3.5c3.6,0,7.2,0.5,10.9,1.5c3.7,1,7.2,2.3,10.4,3.8c1.4,0.9,2.4,2.2,3,3.9c0.6,1.7,0.4,3.2-0.5,4.7
			c-0.6,1.2-1.4,2.1-2.4,2.6c-1,0.6-2.1,0.8-3.2,0.8c-0.4,0-0.9-0.1-1.5-0.3c-0.6-0.2-1.1-0.3-1.5-0.5c-2.2-1.2-4.6-2.1-7.3-2.8
			c-2.6-0.7-5.3-1-7.9-1c-4.3,0-8.5,0.8-12.3,2.5c-3.9,1.7-7.3,3.9-10.2,6.8c-2.9,2.9-5.2,6.3-6.9,10.2c-1.7,3.9-2.6,8-2.6,12.5
			c0,4.4,0.9,8.6,2.6,12.5c1.7,3.9,4,7.3,6.9,10.2c2.9,2.9,6.3,5.2,10.2,6.8c3.9,1.7,8,2.5,12.3,2.5c2.7,0,5.4-0.3,8-0.9
			S698.9,202.7,701.2,201.3z"/>
	</g>
	<g>
		<path fill="#AEC1E1" d="M757.8,217.9c-5.9,0-11.4-1.2-16.6-3.5c-5.2-2.3-9.7-5.5-13.6-9.6c-3.9-4-6.9-8.8-9.2-14.3
			c-2.3-5.5-3.4-11.3-3.4-17.4c0-6.1,1.1-11.9,3.4-17.3c2.3-5.4,5.3-10.2,9.2-14.3c3.9-4.1,8.4-7.3,13.6-9.6
			c5.2-2.3,10.7-3.5,16.6-3.5c5.9,0,11.4,1.2,16.6,3.5c5.2,2.3,9.7,5.6,13.6,9.6c3.9,4.1,6.9,8.8,9.2,14.3s3.4,11.2,3.4,17.3
			c0,6.1-1.1,11.9-3.4,17.4c-2.3,5.5-5.3,10.2-9.2,14.3c-3.9,4-8.4,7.2-13.6,9.6C769.2,216.8,763.7,217.9,757.8,217.9z M757.8,141.2
			c-4.2,0-8.1,0.8-11.7,2.5c-3.6,1.7-6.8,3.9-9.5,6.8c-2.7,2.9-4.9,6.3-6.5,10.2c-1.6,3.9-2.4,8-2.4,12.5c0,4.4,0.8,8.6,2.4,12.5
			c1.6,3.9,3.7,7.3,6.5,10.2c2.7,2.9,5.9,5.2,9.5,6.8c3.6,1.7,7.5,2.5,11.7,2.5c4.2,0,8.1-0.8,11.7-2.5c3.6-1.7,6.8-3.9,9.5-6.8
			c2.7-2.9,4.9-6.3,6.5-10.2c1.6-3.9,2.4-8,2.4-12.5c0-4.4-0.8-8.6-2.4-12.5c-1.6-3.9-3.7-7.3-6.5-10.2c-2.7-2.9-5.9-5.2-9.5-6.8
			C765.9,142.1,762,141.2,757.8,141.2z"/>
	</g>
	<g>
		<path fill="#AEC1E1" d="M886.4,217.9c-1.7,0-3.2-0.6-4.4-1.8c-1.2-1.2-1.8-2.7-1.8-4.4v-57.8L857,184.7c-1.3,1.7-3,2.6-5.1,2.6
			c-2.1,0-3.8-0.8-5.1-2.6l-23-30.8v57.8c0,1.7-0.6,3.2-1.9,4.4c-1.3,1.2-2.8,1.8-4.5,1.8c-1.7,0-3.2-0.6-4.5-1.8
			c-1.3-1.2-1.9-2.7-1.9-4.4v-77c0-1.7,0.6-3.2,1.9-4.4c1.2-1.2,2.8-1.8,4.7-1.8c2,0,3.7,0.9,5,2.6l29.4,39.2l29.5-39.2
			c1.2-1.7,2.9-2.6,5-2.6c1.9,0,3.4,0.6,4.6,1.8c1.2,1.2,1.8,2.7,1.8,4.4v77c0,1.7-0.6,3.2-1.9,4.4
			C889.7,217.3,888.2,217.9,886.4,217.9z"/>
	</g>
</g>
<path fill="#7CC242" d="M151.1,85.6V95v52H142h-1.3h-0.6c0-7-5.8-12.8-12.8-12.8c-7,0-12.8,5.8-12.8,12.8h-6c0-7-5.8-12.8-12.8-12.8
	c-7,0-12.8,5.8-12.8,12.8H81c-5,0-8.9-4.7-8.9-9.7V85.6c0-5,3.9-8.6,8.9-8.6h61C147,77,151.1,80.7,151.1,85.6z M137,146.5
	c0,5.3-4.3,9.6-9.6,9.6c-5.3,0-9.6-4.3-9.7-9.6c0-5.3,4.3-9.6,9.6-9.6C132.6,136.9,136.9,141.2,137,146.5z M132.7,146.6
	c0-3-2.4-5.4-5.4-5.4c-3,0-5.4,2.4-5.4,5.4c0,3,2.4,5.4,5.4,5.4C130.3,152,132.7,149.6,132.7,146.6z M186.7,146.5
	c0,5.3-4.3,9.6-9.6,9.6c-5.3,0-9.6-4.3-9.7-9.6c0-5.3,4.3-9.6,9.6-9.6C182.4,136.9,186.7,141.2,186.7,146.5z M182.5,146.6
	c0-3-2.4-5.4-5.4-5.4s-5.4,2.4-5.4,5.4c0,3,2.4,5.4,5.4,5.4S182.5,149.6,182.5,146.6z M105.3,146.5c0,5.3-4.3,9.6-9.6,9.6
	c-5.3,0-9.6-4.3-9.7-9.6c0-5.3,4.3-9.6,9.6-9.6C101,136.9,105.3,141.2,105.3,146.5z M101.1,146.6c0-3-2.4-5.4-5.4-5.4
	c-3,0-5.4,2.4-5.4,5.4c0,3,2.4,5.4,5.4,5.4C98.6,152,101.1,149.6,101.1,146.6z M190,147h-0.1c0-7-5.8-12.8-12.8-12.8
	s-12.8,5.8-12.8,12.8h-9.2V95h30.4c5,0,9.4,4.1,9.8,9l2.9,33.7C198.7,142.7,195,147,190,147z M192.2,116.3l-0.9-10.3
	c-0.1-1.5-1.5-3-3-3h-16.1c-1.5,0-2.2,1.7-2.2,3.2v10c0,1.5,0.7,2.8,2.2,2.8h17.5C191.2,119,192.3,117.8,192.2,116.3z"/>
</svg>
