<?xml version="1.0" encoding="UTF-8" standalone="no"?>
<svg
   xmlns:dc="http://purl.org/dc/elements/1.1/"
   xmlns:cc="http://creativecommons.org/ns#"
   xmlns:rdf="http://www.w3.org/1999/02/22-rdf-syntax-ns#"
   xmlns:svg="http://www.w3.org/2000/svg"
   xmlns="http://www.w3.org/2000/svg"
   viewBox="0 0 810.84998 109.8625"
   height="109.8625"
   width="810.84998"
   xml:space="preserve"
   version="1.1"
   id="svg2"><metadata
     id="metadata8"><rdf:RDF><cc:Work
         rdf:about=""><dc:format>image/svg+xml</dc:format><dc:type
           rdf:resource="http://purl.org/dc/dcmitype/StillImage" /></cc:Work></rdf:RDF></metadata><defs
     id="defs6" /><g
     transform="matrix(1.25,0,0,-1.25,0,109.8625)"
     id="g10"><g
       transform="scale(0.1,0.1)"
       id="g12"><path
         id="path14"
         style="fill:#56b2da;fill-opacity:1;fill-rule:nonzero;stroke:none"
         d="m 1472.57,688.711 c -0.93,-4.629 -2.2,-9.863 -3.79,-15.508 -1.52,-5.449 -3.61,-10.84 -5.96,-15.547 -14.7,-25.527 -38.72,-37.929 -73.44,-37.929 l -72.97,0 0,168.925 72.97,0 c 4.67,0 9.45,-0.429 14.04,-1.269 4.62,-0.938 9.62,-2.09 14.95,-3.477 4.99,-1.308 10.42,-3.301 15.81,-5.781 27.17,-13.809 40.38,-37.988 40.38,-73.809 -0.02,-0.605 -0.15,-2.226 -0.34,-4.824 -0.21,-2.754 -0.76,-6.387 -1.65,-10.781 z m 6.81,-137.051 c 12.67,7.559 24.09,16.387 34.03,26.328 4.6,4.61 8.88,9.473 12.85,14.61 l 0,-7.207 16.83,33.691 c 5.02,10.039 8.96,20.117 11.72,29.922 2.7,9.57 4.82,18.281 6.29,25.859 1.5,7.774 2.39,14.473 2.65,19.922 0.25,5.254 0.38,8.399 0.38,9.395 0,34.043 -8.04,64.687 -23.89,91.093 -15.84,26.407 -37.91,47.207 -66.08,62.051 -9.91,4.473 -19.87,8.125 -29.6,10.86 -9.6,2.714 -18.31,4.824 -25.84,6.289 -7.62,1.465 -14.18,2.48 -19.55,2.988 -5.48,0.508 -8.75,0.762 -9.79,0.762 l -117.75,0 c -11.97,0 -22.42,-4.375 -31.05,-13.008 -8.64,-8.633 -13.02,-19.082 -13.02,-31.074 l 0,-432.246 c 0,-11.993 4.38,-22.442 13.01,-31.036 8.62,-8.652 19.07,-13.027 31.06,-13.027 12.45,0 23.13,4.375 31.76,13.027 8.64,8.614 13.02,19.082 13.02,31.036 l 0,128.261 70.21,0 95.13,-151.777 c 8.75,-13.438 22,-20.547 38.31,-20.547 9.02,0 16.78,2.227 23.17,6.719 6.26,4.551 11.34,10.215 15.08,16.816 3.87,6.836 5.82,13.75 5.82,20.528 0,3.457 -0.47,6.972 -1.38,10.507 l 3.49,0 -86.86,139.258" /><path
         id="path16"
         style="fill:#56b2da;fill-opacity:1;fill-rule:nonzero;stroke:none"
         d="m 1891.28,788.652 c 11.97,0 22.53,4.493 31.41,13.36 8.87,8.867 13.37,19.687 13.37,32.129 0,12.05 -4.54,22.519 -13.49,31.172 -8.86,8.554 -19.4,12.91 -31.29,12.91 l -236.96,0 c -12.44,0 -23.13,-4.375 -31.76,-13.008 -8.63,-8.633 -13.01,-19.082 -13.01,-31.074 l 0,-432.246 c 0,-11.993 4.38,-22.442 13,-31.036 8.63,-8.652 19.32,-13.027 31.77,-13.027 l 236.96,0 c 11.91,0 22.44,4.336 31.29,12.91 8.95,8.633 13.49,19.102 13.49,31.153 0,12.46 -4.5,23.261 -13.37,32.128 -8.88,8.887 -19.44,13.379 -31.41,13.379 l -192.17,0 0,126.563 149.08,0 c 11.98,0 22.42,4.375 31.06,13.008 8.63,8.632 13.01,19.082 13.01,31.054 0,11.973 -4.37,22.403 -13.01,31.055 -8.65,8.633 -19.09,13.008 -31.06,13.008 l -149.08,0 0,126.562 192.17,0" /><path
         id="path18"
         style="fill:#56b2da;fill-opacity:1;fill-rule:nonzero;stroke:none"
         d="m 2412.55,878.223 c -14.77,0 -26.97,-6.289 -35.1,-17.91 L 2218.71,649.336 2060.65,860.313 c -8.92,11.875 -20.73,17.91 -35.11,17.91 -12.92,0 -23.86,-4.375 -32.49,-13.028 -8.64,-8.632 -13.02,-19.082 -13.02,-31.054 l 0,-432.246 c 0,-12.032 4.54,-22.52 13.49,-31.153 8.85,-8.574 19.38,-12.91 31.3,-12.91 11.92,0 22.46,4.336 31.3,12.91 8.95,8.633 13.49,19.121 13.49,31.153 l 0,297.812 113.25,-151.621 c 8.9,-11.895 20.96,-17.93 35.83,-17.93 14.86,0 26.92,6.035 35.82,17.91 l 113.98,151.758 0,-297.929 c 0,-11.973 4.37,-22.422 13,-31.036 8.62,-8.652 19.07,-13.027 31.06,-13.027 12.44,0 23.13,4.375 31.78,13.027 8.63,8.614 13,19.082 13,31.036 l 0,432.246 c 0,11.914 -4.21,22.324 -12.54,30.957 -8.43,8.711 -19.27,13.125 -32.24,13.125" /><path
         id="path20"
         style="fill:#56b2da;fill-opacity:1;fill-rule:nonzero;stroke:none"
         d="m 2747.86,447.402 c -22.07,0 -42.93,4.434 -62,13.203 -19.21,8.79 -36.27,21.055 -50.73,36.407 -14.5,15.41 -26.1,33.691 -34.5,54.355 -8.37,20.606 -12.62,43.028 -12.62,66.66 0,23.614 4.25,46.055 12.62,66.661 8.4,20.664 20,38.945 34.5,54.335 14.47,15.372 31.54,27.618 50.73,36.426 19.07,8.77 39.93,13.203 62,13.203 22.04,0 42.9,-4.433 61.99,-13.203 19.17,-8.789 36.23,-21.054 50.73,-36.426 14.47,-15.39 26.08,-33.652 34.5,-54.335 8.38,-20.645 12.63,-43.067 12.63,-66.661 0,-23.613 -4.24,-46.035 -12.63,-66.66 -8.42,-20.683 -20.03,-38.965 -34.5,-54.355 -14.48,-15.352 -31.55,-27.617 -50.73,-36.407 -19.09,-8.769 -39.95,-13.203 -61.99,-13.203 z m 176.25,354.082 c -22.46,23.711 -49.14,42.618 -79.26,56.211 -30.23,13.614 -62.87,20.528 -96.99,20.528 -34.15,0 -66.79,-6.914 -97.01,-20.528 -30.12,-13.593 -56.79,-32.5 -79.26,-56.211 -22.42,-23.652 -40.41,-51.484 -53.44,-82.754 -13.08,-31.328 -19.72,-65.214 -19.72,-100.703 0,-35.507 6.64,-69.511 19.7,-101.035 13.05,-31.543 31.05,-59.414 53.5,-82.832 22.46,-23.457 49.12,-42.226 79.22,-55.801 30.19,-13.613 62.83,-20.527 97.01,-20.527 34.15,0 66.78,6.914 96.99,20.527 30.1,13.575 56.76,32.344 79.23,55.801 22.43,23.418 40.42,51.27 53.5,82.832 13.07,31.582 19.7,65.586 19.7,101.035 0,35.45 -6.63,69.336 -19.71,100.723 -13.07,31.25 -31.06,59.082 -53.46,82.734" /><path
         id="path22"
         style="fill:#56b2da;fill-opacity:1;fill-rule:nonzero;stroke:none"
         d="m 3420.19,834.141 c 0,10.703 -3.83,20.722 -11.42,29.785 -7.97,9.472 -18.96,14.297 -32.65,14.297 -8.9,0 -17.3,-2.539 -24.96,-7.559 -7.75,-5.059 -13.47,-12.129 -17.04,-21.016 L 3203.75,522.031 3072.21,849.18 c -3.04,9.082 -8.59,16.308 -16.5,21.484 -7.67,5.02 -16.07,7.559 -24.96,7.559 -13.16,0 -23.98,-4.785 -32.18,-14.18 -7.89,-9.063 -11.89,-19.355 -11.89,-30.605 0,-6.563 0.95,-11.934 2.8,-16.231 l 172.32,-430.82 0.43,-0.899 c 3.92,-7.324 9.46,-13.711 16.43,-19.023 7.53,-5.723 15.98,-8.633 25.13,-8.633 8.67,0 16.87,2.91 24.4,8.613 6.97,5.313 12.5,11.7 16.45,19.024 l 0.45,0.976 c 27.19,69.141 56.17,141.582 86.13,215.313 29.98,73.75 58.99,146.25 86.1,215.254 1.94,4.492 2.87,10.117 2.87,17.129" /><path
         id="path24"
         style="fill:#56b2da;fill-opacity:1;fill-rule:nonzero;stroke:none"
         d="m 3621.58,554.395 -125.4,0 63,159.277 62.4,-159.277 z m -21.08,295.273 -0.44,0.898 c -3.95,7.325 -9.48,13.711 -16.46,19.024 -15.5,11.758 -34.84,11.152 -49.5,0 -6.99,-5.313 -12.53,-11.719 -16.46,-19.024 l -0.42,-0.898 c -27.76,-69.414 -56.6,-141.211 -86.53,-215.391 -29.75,-73.828 -58.63,-146.328 -85.87,-215.605 -1.8,-4.824 -2.71,-10.449 -2.71,-16.777 0,-10.782 3.99,-20.84 11.86,-29.883 8.19,-9.414 19.03,-14.18 32.19,-14.18 8.68,0 17.03,3.047 24.83,9.023 7.26,5.586 12.69,11.934 16.44,19.493 l 32.22,79.179 198.38,0 31.51,-79.121 0.58,-1.172 c 3.9,-6.738 9.51,-12.929 16.61,-18.379 7.76,-5.976 16.12,-9.023 24.8,-9.023 13.65,0 24.59,4.648 32.57,13.848 7.64,8.808 11.51,18.984 11.51,30.215 0,6.308 -0.91,11.933 -2.79,16.953 l -172.32,430.82" /><path
         id="path26"
         style="fill:#56b2da;fill-opacity:1;fill-rule:nonzero;stroke:none"
         d="m 4057.53,447.402 -149.09,0 0,386.739 c 0,11.972 -4.37,22.422 -13.02,31.074 -8.64,8.633 -19.09,13.008 -31.04,13.008 -12.38,0 -23.15,-4.356 -32.04,-12.91 -8.93,-8.653 -13.46,-19.141 -13.46,-31.172 l 0,-432.246 c 0,-12.032 4.53,-22.52 13.46,-31.153 8.86,-8.574 19.64,-12.91 32.04,-12.91 l 193.15,0 c 12.38,0 23.16,4.336 32.01,12.91 8.95,8.633 13.49,19.121 13.49,31.153 0,12.441 -4.5,23.261 -13.37,32.128 -8.89,8.887 -19.69,13.379 -32.13,13.379" /><path
         id="path28"
         style="fill:#56b2da;fill-opacity:1;fill-rule:nonzero;stroke:none"
         d="m 4463.9,578.32 c -7.1,13.672 -16.1,26.016 -26.73,36.66 -10.42,10.411 -21.74,19.708 -33.67,27.676 -11.74,7.813 -23.26,14.629 -34.27,20.254 -11.05,5.645 -21.17,10.137 -30.11,13.379 -7.08,2.559 -12.53,4.434 -16.27,5.606 l -1.86,0.996 c -7.55,3.3 -14.99,6.718 -22.3,10.273 -6.66,3.203 -12.64,7.129 -17.76,11.602 -4.8,4.199 -8.64,9.375 -11.46,15.39 -2.76,5.957 -4.18,13.633 -4.18,22.813 l 0,2.597 c 0.37,12.5 6.1,22.559 17.47,30.743 12.06,8.671 27.35,13.046 45.45,13.046 l 4.43,0.04 c 6.32,-0.43 13.12,-1.954 20.17,-4.512 7.04,-2.559 13.16,-5.762 18.32,-9.649 4.1,-2.949 8.6,-5.195 13.29,-6.64 4.66,-1.465 9.18,-2.207 13.43,-2.207 14.67,0 26.59,5.859 35.46,17.422 6.67,6.914 10.05,16.132 10.05,27.363 0,6.328 -1.85,12.773 -5.48,19.121 -3.22,5.664 -7.09,10.762 -11.47,15.156 l -1.24,1.035 c -12.97,8.965 -27.37,16.543 -42.78,22.52 -15.67,6.074 -31.15,9.414 -46.28,9.941 l -7.18,0 c -19.03,0 -37.59,-2.929 -55.19,-8.711 -17.71,-5.8 -33.39,-14.179 -46.22,-24.57 -16.44,-11.816 -28.96,-26.191 -37.23,-42.715 -8.16,-16.367 -12.82,-34.453 -13.85,-54.238 l 0,-5.742 c 0,-67.52 37.96,-115.489 112.84,-142.637 l 1.47,-0.527 0.9,0 c 1.29,-0.606 2.49,-1.016 3.65,-1.231 6.78,-2.324 15.55,-5.859 26.06,-10.566 10.68,-4.766 21.1,-10.567 30.96,-17.207 9.59,-6.465 18.06,-13.906 25.17,-22.129 6.37,-7.383 9.89,-14.688 10.76,-22.324 l 0,-2.383 c 0,-19.746 -7.36,-36.719 -22.52,-51.875 -15.65,-15.645 -35.92,-23.262 -61.94,-23.262 l -3.34,0 c -15,0.43 -28.45,4.414 -39.93,11.875 -11.45,7.402 -20.27,17.637 -26.11,30.137 -3.63,8.476 -9.47,15.098 -17.36,19.629 -14.03,8.086 -30.81,8.554 -42.81,2.109 -8.32,-3.672 -14.69,-9.355 -18.94,-16.953 -4.07,-7.285 -6.15,-15.156 -6.15,-23.359 0,-7.715 1.25,-13.946 3.69,-18.809 13.1,-28.223 32.66,-50.957 58.14,-67.617 25.45,-16.621 54.4,-25.567 86.35,-26.563 l 5.75,0 c 24.49,0 47.96,4.434 69.73,13.203 21.83,8.77 41.08,21.387 57.17,37.5 14.65,14.629 26.28,32.129 34.59,52.032 8.32,19.922 12.54,40.761 12.54,61.953 l -0.04,8.73 c -1.53,16.368 -5.96,31.719 -13.17,45.625" /><path
         id="path30"
         style="fill:#56b2da;fill-opacity:1;fill-rule:nonzero;stroke:none"
         d="m 4760.44,878.223 c -11.97,0 -22.41,-4.375 -31.05,-13.008 -8.64,-8.633 -13.01,-19.082 -13.01,-31.074 l 0,-432.246 c 0,-11.993 4.37,-22.442 13,-31.036 8.63,-8.652 19.07,-13.027 31.06,-13.027 11.9,0 22.45,4.336 31.31,12.91 8.94,8.633 13.47,19.121 13.47,31.153 l 0,432.246 c 0,12.031 -4.53,22.519 -13.47,31.172 -8.89,8.554 -19.41,12.91 -31.31,12.91" /><path
         id="path32"
         style="fill:#56b2da;fill-opacity:1;fill-rule:nonzero;stroke:none"
         d="m 5201.31,878.223 c -11.92,0 -22.44,-4.356 -31.32,-12.91 -8.94,-8.653 -13.48,-19.141 -13.48,-31.172 l 0,-290.547 -220.15,315.176 c -9.41,12.91 -21.72,19.453 -36.62,19.453 -13.05,0 -23.93,-4.571 -32.36,-13.594 -8.24,-8.848 -12.44,-19.102 -12.44,-30.488 l 0,-432.246 c 0,-11.973 4.39,-22.422 13.01,-31.036 8.63,-8.652 19.08,-13.027 31.06,-13.027 12.41,0 23.18,4.336 32.03,12.91 8.94,8.633 13.49,19.121 13.49,31.153 l 0,290.566 220.15,-315.176 c 9.38,-12.91 21.7,-19.453 36.63,-19.453 11.91,0 22.45,4.336 31.3,12.91 8.93,8.633 13.47,19.102 13.47,31.153 l 0,432.246 c 0,12.05 -4.54,22.519 -13.47,31.172 -8.87,8.554 -19.41,12.91 -31.3,12.91" /><path
         id="path34"
         style="fill:#56b2da;fill-opacity:1;fill-rule:nonzero;stroke:none"
         d="m 5590.91,618.027 c 0,-35.429 -5.65,-66.113 -16.82,-91.172 -10.97,-24.609 -26.9,-43.867 -47.13,-57.05 -8.08,-4.961 -16.13,-8.926 -23.95,-11.836 -8.02,-2.969 -15.31,-5.293 -21.69,-6.875 -6.27,-1.582 -11.53,-2.598 -15.65,-3.028 -3.84,-0.39 -6.14,-0.625 -6.6,-0.664 l -80.15,0 0,341.25 79.65,0 c 8.16,-0.937 15.42,-2.07 21.62,-3.398 6.3,-1.348 13.42,-3.418 21.16,-6.152 7.5,-2.657 15.2,-6.27 22.66,-10.645 21.37,-13.359 37.99,-32.734 49.41,-57.559 11.62,-25.273 17.49,-56.523 17.49,-92.871 z m 33.31,183.047 c -16.2,19.434 -34.08,34.629 -53.15,45.156 -18.69,10.313 -36.46,17.95 -52.83,22.657 -16.32,4.707 -30.35,7.48 -41.7,8.242 -11.15,0.723 -16.98,1.094 -17.47,1.094 l -125.65,0 c -11.97,0 -22.42,-4.375 -31.06,-13.028 -8.63,-8.632 -13.01,-19.082 -13.01,-31.054 l 0,-432.246 c 0,-11.973 4.38,-22.422 13,-31.036 8.63,-8.652 19.09,-13.027 31.07,-13.027 l 125.65,0 c 0.49,0 6.32,0.352 17.47,1.094 11.39,0.762 25.42,3.535 41.7,8.222 16.32,4.688 34.08,12.325 52.83,22.657 19.07,10.547 36.95,25.742 53.16,45.175 16.14,19.375 29.7,44.2 40.3,73.77 10.59,29.551 15.95,66.328 15.95,109.277 0,42.95 -5.36,79.707 -15.95,109.258 -10.6,29.59 -24.16,54.395 -40.31,73.789" /><path
         id="path36"
         style="fill:#56b2da;fill-opacity:1;fill-rule:nonzero;stroke:none"
         d="m 6006.2,788.652 c 11.97,0 22.54,4.493 31.42,13.36 8.86,8.886 13.38,19.687 13.38,32.129 0,12.031 -4.55,22.519 -13.49,31.172 -8.87,8.554 -19.4,12.91 -31.31,12.91 l -236.94,0 c -12.45,0 -23.14,-4.375 -31.78,-13.028 -8.62,-8.632 -13.02,-19.082 -13.02,-31.054 l 0,-432.246 c 0,-11.973 4.4,-22.422 13.01,-31.036 8.63,-8.652 19.32,-13.027 31.79,-13.027 l 236.94,0 c 11.93,0 22.45,4.336 31.3,12.91 8.95,8.633 13.5,19.121 13.5,31.153 0,12.46 -4.52,23.261 -13.38,32.128 -8.88,8.887 -19.45,13.379 -31.42,13.379 l -192.17,0 0,126.563 149.1,0 c 11.96,0 22.41,4.375 31.05,13.008 8.63,8.632 13.02,19.082 13.02,31.054 0,11.953 -4.38,22.403 -13.03,31.055 -8.64,8.633 -19.09,13.008 -31.04,13.008 l -149.1,0 0,126.562 192.17,0" /><path
         id="path38"
         style="fill:#56b2da;fill-opacity:1;fill-rule:nonzero;stroke:none"
         d="m 6462.59,453.027 0,-2.07 -116.7,167.07 132.69,189.981 c 5.46,7.285 8.24,16.074 8.24,26.133 0,11.504 -4.5,21.836 -13.37,30.703 -8.87,8.867 -19.45,13.379 -31.42,13.379 -14.9,0 -27.23,-6.543 -36.7,-19.571 L 6290.58,695.957 6177.1,858.77 c -9.4,12.91 -21.97,19.453 -37.35,19.453 -13.83,0 -24.89,-5.137 -32.83,-15.235 -7.46,-9.472 -11.24,-20.136 -11.24,-31.718 0,-8.145 2.77,-15.977 8.06,-23.028 l 132.87,-190.215 -132.69,-189.98 c -5.47,-7.285 -8.24,-16.094 -8.24,-26.152 0,-11.426 4.34,-21.719 12.9,-30.586 8.64,-8.946 19.13,-13.477 31.17,-13.477 15.39,0 27.96,6.543 37.44,19.59 l 113.39,161.992 114.83,-162.129 c 9.38,-12.91 21.71,-19.453 36.62,-19.453 11.97,0 22.55,4.492 31.42,13.379 8.86,8.848 13.37,19.199 13.37,30.684 0,9.355 -2.65,18.203 -7.86,26.328 l -16.37,24.804" /><path
         id="path40"
         style="fill:#4f4c4c;fill-opacity:1;fill-rule:nonzero;stroke:none"
         d="m 1239.73,160.117 85.8,0 0,81.688 c 0,14.367 17.01,14.367 17.01,0 l 0,-174.4808 c 0,-14.6562 -17.01,-15.2812 -17.01,0 l 0,73.9338 c -29.62,0 -55.72,0 -85.8,0 l 0,-73.9338 c 0,-15.5273 -16.8,-13.7383 -16.8,0 l 0,174.4808 c 0,14.66 16.8,13.761 16.8,0 l 0,-81.688" /><path
         id="path42"
         style="fill:#4f4c4c;fill-opacity:1;fill-rule:nonzero;stroke:none"
         d="m 1383.81,140.051 87.88,0 c -1.64,25.437 -13.77,44.879 -31.94,50.875 l 0.23,0 c -7.68,2.707 -17.24,2.707 -25.16,-0.281 -18.66,-6.309 -29.62,-26.348 -31.01,-50.594 z m 61.07,70.359 c 26.35,-9.297 42.66,-36.816 43.12,-75.129 l 0,0.285 c 0.48,-6.601 -1.85,-13.761 -11.41,-13.761 l -92.09,0 c 3.03,-24.5316 19.35,-44.8909 42.66,-44.8909 10.73,0 21.93,3.582 31.01,12.5781 8.17,9.5898 20.27,-2.6875 11.2,-14.6406 -10.74,-12.8594 -26.37,-18.2891 -41.5,-17.9961 -18.19,0 -36.37,8.9843 -47.33,26.6289 -25.19,42.5236 -14.23,111.3396 29.14,126.9256 10.95,4.18 23.55,3.867 34.97,0 l 0.23,0" /><path
         id="path44"
         style="fill:#4f4c4c;fill-opacity:1;fill-rule:nonzero;stroke:none"
         d="m 1528.35,67.6563 c 0,-5.6641 -3.75,-10.1875 -8.4,-10.1875 -5.13,0 -8.63,4.5234 -8.63,10.1875 l 0,179.5387 c 0,5.696 3.5,10.196 8.63,10.196 4.65,0 8.4,-4.5 8.4,-10.196 l 0,-179.5387" /><path
         id="path46"
         style="fill:#4f4c4c;fill-opacity:1;fill-rule:nonzero;stroke:none"
         d="m 1572.63,145.73 0,-23.621 c 0,-26.3395 15.86,-44.8746 37.06,-46.1012 16.56,0 33.11,11.3828 39.89,32.0392 1.85,6.289 3.25,14.375 3.49,22.129 0.23,19.461 -4.67,37.414 -17.26,50.879 -6.75,6.894 -15.16,10.488 -24.01,11.386 -21.22,0 -39.17,-17.363 -39.17,-46.711 z m 37.77,-90.3589 c -15.62,0 -30.77,8.0937 -37.77,23.9336 l 0,-64.3555 c 0,-13.74998 -17.02,-13.74998 -17.02,0 l 0,185.8908 c 0,6.551 3.26,10.469 8.64,10.469 5.36,0 7.92,-3.918 7.92,-10.469 l 0,-14.094 c 7.92,18.555 24.25,26.34 38.23,26.34 7.23,0 15.15,-1.777 22.39,-5.695 l -0.24,0.285 c 25.4,-13.438 38.24,-43.086 37.53,-77.766 -0.94,-42.5194 -24.7,-74.5389 -59.68,-74.5389" /><path
         id="path48"
         style="fill:#4f4c4c;fill-opacity:1;fill-rule:nonzero;stroke:none"
         d="m 1693.63,201.113 c 0,12.871 17.02,13.164 17.02,0.293 l 0,-134.9724 c 0,-13.1719 -17.02,-12.8477 -17.02,0 l 0,134.6794 z m 17.24,32.313 c 0,-13.446 -17.48,-13.77 -17.48,0 l 0,13.449 c 0,13.801 17.48,13.801 17.48,0 l 0,-13.449" /><path
         id="path50"
         style="fill:#4f4c4c;fill-opacity:1;fill-rule:nonzero;stroke:none"
         d="m 1835.14,146.672 c 0,27.488 -17.25,46.668 -36.15,46.668 -22.6,0 -43.83,-23.957 -43.83,-56.582 l 0,-69.4338 c 0,-6.5547 -3.02,-10.4687 -8.38,-10.4687 -5.35,0 -8.86,3.914 -8.86,10.4687 l 0,134.0818 c 0,13.77 16.79,14.063 16.79,-0.293 l 0,-18.535 c 8.4,21.836 26.35,31.102 44.51,31.102 27.06,0 52.93,-23.946 52.93,-67.008 l 0,-79.3478 c 0,-6.5547 -3.02,-10.4687 -8.39,-10.4687 -5.13,0 -8.62,3.914 -8.62,10.4687 l 0,79.3478" /><path
         id="path52"
         style="fill:#4f4c4c;fill-opacity:1;fill-rule:nonzero;stroke:none"
         d="m 1911.14,181.355 0.22,0 c -12.82,-13.433 -17.72,-31.414 -17.25,-50.867 0.24,-7.785 1.39,-15.871 3.49,-22.129 6.53,-20.9684 23.33,-32.3512 39.88,-32.0192 l -0.24,0 c 20.98,1.1797 37.31,20.625 37.31,46.0822 l 0,23.625 c 0,18.863 -6.07,33.211 -19.83,40.984 -13.98,8.106 -30.76,6.914 -43.58,-5.676 z M 1991.55,65.8398 C 1991.55,22.4492 1965.92,0 1933.97,0 c -17.72,0 -31.93,5.41016 -44.52,20.6445 -9.33,11.6797 3.49,25.4688 11.43,15.5664 11.64,-11.3593 20.05,-14.9726 33.09,-14.9726 21.23,0 41.04,13.7812 41.04,44.6015 l 0,16.1719 c -8.16,-18.8476 -23.32,-26.0351 -37.3,-26.3203 -8.86,-0.3203 -17.26,1.4649 -25.19,5.6758 -21.67,11.375 -34.96,38.5937 -35.44,68.8088 -0.69,34.734 11.9,64.355 37.31,77.812 7.24,3.614 14.92,5.098 21.92,5.098 14.21,0 30.54,-6.906 38.24,-23.352 l 0,11.379 c 0,6.563 3.02,10.801 8.4,10.801 5.1,0 8.6,-4.238 8.6,-10.801 l 0,-135.2732" /><path
         id="path54"
         style="fill:#4f4c4c;fill-opacity:1;fill-rule:nonzero;stroke:none"
         d="m 2133.31,211.008 c 10.48,0 10.48,-18.871 0,-18.871 l -25.41,0 0,-80.809 c 0,-17.0624 2.09,-34.9882 17.95,-34.9882 3.49,0 8.63,1.461 10.96,3.2774 9.78,7.1875 17.48,-10.4766 6.98,-17.9453 -5.82,-4.2031 -11.64,-5.1094 -17.94,-5.1094 -27.97,0 -34.75,26.3359 -34.75,54.7655 l 0,80.809 -15.39,0 c -10.95,0 -10.25,18.871 0,18.871 l 15.39,0 0,34.676 c 0,14.406 16.8,14.082 16.8,0 l 0,-34.676 25.41,0" /><path
         id="path56"
         style="fill:#4f4c4c;fill-opacity:1;fill-rule:nonzero;stroke:none"
         d="m 2264.32,146.672 c 0,27.488 -17.25,46.668 -36.14,46.668 -22.6,0 -43.82,-20.352 -43.82,-51.172 l 0,-74.5117 c 0,-6.6016 -3.04,-10.8008 -8.39,-10.8008 -5.37,0 -8.86,4.1992 -8.86,10.8008 l 0,179.2187 c 0,12.891 17.25,12.605 17.25,0 l 0,-62.812 c 8.39,20.945 26.58,29.617 44.07,29.617 27.03,0 52.9,-23.946 52.9,-67.008 l 0,-79.0157 c 0,-6.6016 -3.03,-10.8008 -8.39,-10.8008 -5.12,0 -8.62,4.1992 -8.62,10.8008 l 0,79.0157" /><path
         id="path58"
         style="fill:#4f4c4c;fill-opacity:1;fill-rule:nonzero;stroke:none"
         d="m 2366.2,193.027 c -4.44,0 -8.86,-0.89 -12.36,-2.101 -19.59,-6.59 -31.02,-29.891 -31.02,-56.875 0,-13.438 3.27,-27.488 10.26,-37.9963 8.17,-12.5703 20.51,-19.7149 33.35,-19.7149 12.58,0 25.42,7.75 33.57,19.7149 6.53,10.1833 10.26,24.5583 10.26,37.4103 0,27.25 -11.44,50.871 -31.25,57.461 -3.73,1.211 -8.38,2.101 -12.81,2.101 z M 2319.8,82.8984 c -10.5,15.8789 -14.93,35.0316 -14.22,57.4846 2.32,33.211 17.48,61.023 43.13,70.301 5.59,2.097 11.88,2.703 17.72,2.703 5.61,0 11.19,-0.606 17.24,-2.703 25.42,-9.278 41.28,-36.805 43.38,-70.301 0.93,-22.453 -3.74,-41.6057 -13.99,-57.4846 -11.44,-17.6367 -28.22,-26.9218 -46.63,-26.9218 -18.65,0 -35.21,9.2851 -46.63,26.9218" /><path
         id="path60"
         style="fill:#4f4c4c;fill-opacity:1;fill-rule:nonzero;stroke:none"
         d="m 2466.68,122.703 c 0,-27.5194 17.23,-46.6952 36.13,-46.6952 22.61,0 43.82,23.9531 43.82,56.5822 l 0,69.441 c 0,6.555 3.02,10.449 8.42,10.449 5.34,0 8.82,-3.894 8.82,-10.449 l 0,-134.0818 c 0,-13.7617 -16.77,-14.0703 -16.77,0.293 l 0,18.8672 c -8.41,-21.8477 -26.34,-31.418 -44.51,-31.418 -27.06,0 -52.94,23.9258 -52.94,67.0116 l 0,79.328 c 0,6.555 3.04,10.449 8.4,10.449 5.12,0 8.63,-3.894 8.63,-10.449 l 0,-79.328" /><path
         id="path62"
         style="fill:#4f4c4c;fill-opacity:1;fill-rule:nonzero;stroke:none"
         d="m 2602.35,96.3789 c 2.36,-13.4805 20.53,-20.3711 37.56,-20.3711 11.41,0 35.88,6.5977 35.88,27.2222 0,19.192 -17.73,20.071 -36.62,21.86 -25.16,3.004 -52.2,5.691 -52.2,42.5 0,32.019 28.45,45.797 50.83,45.797 17.93,0 42.91,-3.895 51.05,-30.809 3.24,-13.488 -12.84,-19.16 -15.86,-7.793 -5.11,17.352 -24.71,18.555 -35.19,18.555 -13.54,0 -33.82,-7.473 -33.82,-26.027 0,-19.149 17.26,-18.875 35.93,-20.641 25.6,-3.02 52.91,-6.027 52.91,-43.442 0,-37.6948 -33.59,-46.9722 -52.91,-46.9722 -19.37,0 -49.2,6.2695 -53.87,36.2227 -2.81,12.5785 14.2,18.8475 16.31,3.8984" /><path
         id="path64"
         style="fill:#4f4c4c;fill-opacity:1;fill-rule:nonzero;stroke:none"
         d="m 2805.42,122.422 0,23.625 c 0,29.637 -16.09,44.879 -37.07,46.09 -16.55,0.304 -33.37,-11.082 -39.87,-32.02 -2.12,-6.301 -3.28,-14.387 -3.52,-22.168 -0.45,-19.414 4.44,-37.375 17.04,-50.8396 6.99,-6.8946 15.37,-10.5 23.99,-11.3946 21.46,0 38.25,16.7657 39.43,46.7072 z m -61.81,84.687 c 7.71,4.493 16.1,5.977 24.97,5.672 13.27,-0.301 28.43,-5.672 36.84,-23.355 l 0,11.414 c 0,6.269 3,10.762 8.37,10.762 5.11,0 8.64,-4.493 8.64,-10.762 l 0,-132.8908 c 0,-6.582 -3.53,-10.7929 -8.64,-10.7929 -5.37,0 -8.37,4.2109 -8.37,10.7929 l 0,14.375 c -6.78,-17.3945 -24.02,-27.2461 -37.77,-27.2461 -11.19,0 -23.78,3.8672 -33.6,12.8711 -17.71,15.5352 -26.79,40.9848 -26.11,70.3048 0.49,30.262 13.53,58.055 35.93,69.137 l -0.26,-0.282" /><path
         id="path66"
         style="fill:#4f4c4c;fill-opacity:1;fill-rule:nonzero;stroke:none"
         d="m 2951.34,146.672 c 0,27.488 -17.24,46.668 -36.13,46.668 -22.61,0 -43.84,-23.957 -43.84,-56.582 l 0,-69.4338 c 0,-6.5547 -3.03,-10.4687 -8.38,-10.4687 -5.35,0 -8.85,3.914 -8.85,10.4687 l 0,134.0818 c 0,13.77 16.77,14.063 16.77,-0.293 l 0,-18.535 c 8.4,21.836 26.36,31.102 44.55,31.102 27.03,0 52.92,-23.946 52.92,-67.008 l 0,-79.3478 c 0,-6.5547 -3.05,-10.4687 -8.41,-10.4687 -5.13,0 -8.63,3.914 -8.63,10.4687 l 0,79.3478" /><path
         id="path68"
         style="fill:#4f4c4c;fill-opacity:1;fill-rule:nonzero;stroke:none"
         d="m 3090.54,122.422 0,23.625 c 0,26.336 -15.88,44.879 -37.08,46.09 -16.56,0 -33.12,-11.375 -39.85,-32.02 -1.87,-6.301 -3.28,-14.387 -3.52,-22.168 -0.25,-19.414 4.67,-37.375 17.26,-50.8396 6.77,-6.8946 15.15,-10.5 24.01,-11.3946 21.21,0 39.18,17.3711 39.18,46.7072 z m -37.78,90.359 c 15.61,0 30.76,-8.367 37.78,-24.246 l 0,59.559 c 0,13.781 17,13.781 17,0 l 0,-180.7698 c 0,-6.5547 -3.27,-10.4687 -8.63,-10.4687 -5.37,0 -7.93,3.914 -7.93,10.4687 l 0,14.0938 c -7.94,-18.5586 -24.24,-26.3399 -38.22,-26.3399 -7.24,0 -15.15,1.7774 -22.39,5.6914 l 0.24,-0.3007 c -25.42,13.4648 -38.23,43.0862 -37.52,77.7852 0.9,42.508 24.68,74.527 59.67,74.527" /><path
         id="path70"
         style="fill:#4f4c4c;fill-opacity:1;fill-rule:nonzero;stroke:none"
         d="m 3146.23,96.3789 c 2.33,-13.4805 20.51,-20.3711 37.56,-20.3711 11.4,0 35.88,6.5977 35.88,27.2222 0,19.192 -17.73,20.071 -36.6,21.86 -25.18,3.004 -52.24,5.691 -52.24,42.5 0,32.019 28.47,45.797 50.84,45.797 17.94,0 42.89,-3.895 51.06,-30.809 3.28,-13.488 -12.81,-19.16 -15.86,-7.793 -5.11,17.352 -24.71,18.555 -35.2,18.555 -13.53,0 -33.81,-7.473 -33.81,-26.027 0,-19.149 17.25,-18.875 35.93,-20.641 25.63,-3.02 52.9,-6.027 52.9,-43.442 0,-37.6948 -33.57,-46.9722 -52.9,-46.9722 -19.34,0 -49.2,6.2695 -53.86,36.2227 -2.81,12.5785 14.23,18.8475 16.3,3.8984" /><path
         id="path72"
         style="fill:#4f4c4c;fill-opacity:1;fill-rule:nonzero;stroke:none"
         d="m 3371.43,193.027 c -4.41,0 -8.84,-0.89 -12.35,-2.101 -19.61,-6.59 -31,-29.891 -31,-56.875 0,-13.438 3.24,-27.488 10.25,-37.9963 8.15,-12.5703 20.53,-19.7149 33.33,-19.7149 12.58,0 25.43,7.75 33.56,19.7149 6.54,10.1833 10.3,24.5583 10.3,37.4103 0,27.25 -11.45,50.871 -31.28,57.461 -3.71,1.211 -8.35,2.101 -12.81,2.101 z m -46.4,-110.1286 c -10.5,15.8789 -14.91,35.0316 -14.23,57.4846 2.34,33.211 17.51,61.023 43.15,70.301 5.58,2.097 11.89,2.703 17.71,2.703 5.62,0 11.19,-0.606 17.27,-2.703 25.4,-9.278 41.27,-36.805 43.32,-70.301 0.96,-22.453 -3.71,-41.6057 -14,-57.4846 -11.37,-17.6367 -28.16,-26.9218 -46.59,-26.9218 -18.65,0 -35.2,9.2851 -46.63,26.9218" /><path
         id="path74"
         style="fill:#4f4c4c;fill-opacity:1;fill-rule:nonzero;stroke:none"
         d="m 3478.19,189.121 0,-122.0507 c 0,-13.1914 -17.01,-13.1914 -17.01,0 l 0,122.0507 -12.6,0 c -9.09,0 -8.85,18.27 0.26,18.27 l 12.34,0 0,6.593 c 0,38.301 35.45,55.059 57.13,33.524 8.14,-8.973 -2.57,-23.055 -9.57,-15.293 -9.53,11.387 -30.55,4.512 -30.55,-18.535 l 0,-6.289 22.41,0 c 8.39,0 8.39,-18.27 0,-18.27 l -22.41,0" /><path
         id="path76"
         style="fill:#4f4c4c;fill-opacity:1;fill-rule:nonzero;stroke:none"
         d="m 3608.28,145.73 0,-23.621 c 0,-26.3395 15.84,-44.8746 37.08,-46.1012 16.56,0 33.11,11.3828 39.84,32.0392 1.86,6.289 3.27,14.375 3.51,22.129 0.23,19.461 -4.69,37.414 -17.25,50.879 -6.76,6.894 -15.15,10.488 -24,11.386 -21.23,0 -39.18,-17.363 -39.18,-46.711 z m 37.77,-90.3589 c -15.62,0 -30.78,8.0937 -37.77,23.9336 l 0,-64.3555 c 0,-13.74998 -17.02,-13.74998 -17.02,0 l 0,185.8908 c 0,6.551 3.27,10.469 8.63,10.469 5.37,0 7.95,-3.918 7.95,-10.469 l 0,-14.094 c 7.92,18.555 24.21,26.34 38.21,26.34 7.21,0 15.18,-1.777 22.39,-5.695 l -0.25,0.285 c 25.42,-13.438 38.23,-43.086 37.53,-77.766 -0.92,-42.5194 -24.71,-74.5389 -59.67,-74.5389" /><path
         id="path78"
         style="fill:#4f4c4c;fill-opacity:1;fill-rule:nonzero;stroke:none"
         d="m 3741.42,140.051 87.87,0 c -1.63,25.437 -13.77,44.879 -31.94,50.875 l 0.26,0 c -7.7,2.707 -17.29,2.707 -25.2,-0.281 -18.65,-6.309 -29.62,-26.348 -30.99,-50.594 z m 61.06,70.359 c 26.35,-9.297 42.66,-36.816 43.12,-75.129 l 0,0.285 c 0.47,-6.601 -1.85,-13.761 -11.4,-13.761 l -92.12,0 c 3.05,-24.5316 19.37,-44.8909 42.69,-44.8909 10.73,0 21.91,3.582 30.99,12.5781 8.17,9.5898 20.26,-2.6875 11.2,-14.6406 -10.71,-12.8594 -26.33,-18.2891 -41.48,-17.9961 -18.22,0 -36.39,8.9843 -47.35,26.6289 -25.18,42.5236 -14.2,111.3396 29.13,126.9256 10.98,4.18 23.57,3.867 34.99,0 l 0.23,0" /><path
         id="path80"
         style="fill:#4f4c4c;fill-opacity:1;fill-rule:nonzero;stroke:none"
         d="m 3924.18,193.027 c -4.45,0 -8.87,-0.89 -12.38,-2.101 -19.55,-6.59 -31.02,-29.891 -31.02,-56.875 0,-13.438 3.27,-27.488 10.31,-37.9963 8.13,-12.5703 20.52,-19.7149 33.31,-19.7149 12.6,0 25.39,7.75 33.56,19.7149 6.53,10.1833 10.24,24.5583 10.24,37.4103 0,27.25 -11.38,50.871 -31.2,57.461 -3.74,1.211 -8.4,2.101 -12.82,2.101 z M 3877.76,82.8984 c -10.46,15.8789 -14.91,35.0316 -14.2,57.4846 2.31,33.211 17.49,61.023 43.13,70.301 5.59,2.097 11.89,2.703 17.71,2.703 5.61,0 11.2,-0.606 17.27,-2.703 25.4,-9.278 41.24,-36.805 43.34,-70.301 0.93,-22.453 -3.73,-41.6057 -13.97,-57.4846 -11.42,-17.6367 -28.25,-26.9218 -46.64,-26.9218 -18.64,0 -35.2,9.2851 -46.64,26.9218" /><path
         id="path82"
         style="fill:#4f4c4c;fill-opacity:1;fill-rule:nonzero;stroke:none"
         d="m 4025.1,145.73 0,-23.621 c 0,-26.3395 15.86,-44.8746 37.11,-46.1012 16.53,0 33.06,11.3828 39.84,32.0392 1.87,6.289 3.26,14.375 3.48,22.129 0.23,19.461 -4.65,37.414 -17.21,50.879 -6.82,6.894 -15.17,10.488 -24.04,11.386 -21.19,0 -39.18,-17.363 -39.18,-46.711 z m 37.76,-90.3589 c -15.6,0 -30.75,8.0937 -37.76,23.9336 l 0,-64.3555 c 0,-13.74998 -17.01,-13.74998 -17.01,0 l 0,185.8908 c 0,6.551 3.26,10.469 8.62,10.469 5.36,0 7.95,-3.918 7.95,-10.469 l 0,-14.094 c 7.93,18.555 24.25,26.34 38.2,26.34 7.24,0 15.16,-1.777 22.37,-5.695 l -0.2,0.285 c 25.43,-13.438 38.26,-43.086 37.53,-77.766 -0.91,-42.5194 -24.71,-74.5389 -59.7,-74.5389" /><path
         id="path84"
         style="fill:#4f4c4c;fill-opacity:1;fill-rule:nonzero;stroke:none"
         d="m 4163.12,67.6563 c 0,-5.6641 -3.72,-10.1875 -8.37,-10.1875 -5.14,0 -8.64,4.5234 -8.64,10.1875 l 0,179.5387 c 0,5.696 3.5,10.196 8.64,10.196 4.65,0 8.37,-4.5 8.37,-10.196 l 0,-179.5387" /><path
         id="path86"
         style="fill:#4f4c4c;fill-opacity:1;fill-rule:nonzero;stroke:none"
         d="m 4202.97,140.051 87.89,0 c -1.61,25.437 -13.74,44.879 -31.9,50.875 l 0.21,0 c -7.7,2.707 -17.26,2.707 -25.2,-0.281 -18.62,-6.309 -29.61,-26.348 -31,-50.594 z m 61.09,70.359 c 26.34,-9.297 42.65,-36.816 43.13,-75.129 l 0,0.285 c 0.46,-6.601 -1.87,-13.761 -11.44,-13.761 l -92.1,0 c 3.05,-24.5316 19.37,-44.8909 42.69,-44.8909 10.73,0 21.92,3.582 30.99,12.5781 8.17,9.5898 20.29,-2.6875 11.21,-14.6406 -10.74,-12.8594 -26.33,-18.2891 -41.5,-17.9961 -18.19,0 -36.36,8.9843 -47.33,26.6289 -25.19,42.5236 -14.21,111.3396 29.14,126.9256 10.96,4.18 23.55,3.867 34.99,0 l 0.22,0" /><path
         id="path88"
         style="fill:#4f4c4c;fill-opacity:1;fill-rule:nonzero;stroke:none"
         d="m 4587.41,146.672 c -0.46,25.711 -16.56,44.254 -36.1,44.254 -24.5,0 -43.86,-23.336 -43.86,-57.75 l 0,-65.8518 c 0,-6.5547 -3.49,-10.4687 -8.63,-10.4687 -5.13,0 -8.62,3.914 -8.62,10.4687 l 0,74.2188 c 0,17.07 -5.36,33.535 -16.1,42.207 -6.03,4.785 -12.8,6.895 -20.03,6.895 -22.85,0 -43.59,-22.442 -43.59,-55.969 l 0,-67.3518 c 0,-13.7383 -17.03,-13.4453 -17.03,0 l 0,133.7888 c 0,5.692 3.75,10.489 8.41,10.489 5.1,0 8.14,-4.797 8.14,-10.489 l 0,-20.625 c 9.34,21.543 25.88,31.114 43.82,31.114 20.28,0 40.34,-12.891 47.34,-39.524 8.38,26.633 28.68,39.524 49.41,39.524 26.82,0 53.86,-23.067 53.86,-64.063 l 0,-80.2148 c 0,-6.5547 -3.49,-10.4687 -8.62,-10.4687 -5.37,0 -8.4,3.914 -8.4,10.4687 l 0,79.3478" /><path
         id="path90"
         style="fill:#4f4c4c;fill-opacity:1;fill-rule:nonzero;stroke:none"
         d="m 4689.03,193.027 c -4.4,0 -8.84,-0.89 -12.32,-2.101 -19.61,-6.59 -31.01,-29.891 -31.01,-56.875 0,-13.438 3.26,-27.488 10.23,-37.9963 8.16,-12.5703 20.53,-19.7149 33.33,-19.7149 12.63,0 25.44,7.75 33.59,19.7149 6.53,10.1833 10.26,24.5583 10.26,37.4103 0,27.25 -11.4,50.871 -31.22,57.461 -3.75,1.211 -8.39,2.101 -12.86,2.101 z M 4642.67,82.8984 c -10.52,15.8789 -14.92,35.0316 -14.23,57.4846 2.34,33.211 17.49,61.023 43.12,70.301 5.61,2.097 11.91,2.703 17.7,2.703 5.61,0 11.2,-0.606 17.27,-2.703 25.4,-9.278 41.28,-36.805 43.36,-70.301 0.94,-22.453 -3.73,-41.6057 -13.98,-57.4846 -11.42,-17.6367 -28.21,-26.9218 -46.65,-26.9218 -18.66,0 -35.19,9.2851 -46.59,26.9218" /><path
         id="path92"
         style="fill:#4f4c4c;fill-opacity:1;fill-rule:nonzero;stroke:none"
         d="m 4756.19,198.711 c -3.48,12.598 11.88,19.766 16.1,8.094 16.07,-41.317 29.36,-75.133 45.7,-116.7269 l 46.13,117.3129 c 3.54,11.086 19.39,4.797 15.15,-7.489 L 4825.44,62.5273 c -3.03,-7.7539 -10.95,-10.164 -15.39,-0.2929 l -53.86,136.4766" /><path
         id="path94"
         style="fill:#4f4c4c;fill-opacity:1;fill-rule:nonzero;stroke:none"
         d="m 4903.09,140.051 87.87,0 c -1.63,25.437 -13.75,44.879 -31.95,50.875 l 0.25,0 c -7.7,2.707 -17.27,2.707 -25.18,-0.281 -18.65,-6.309 -29.61,-26.348 -30.99,-50.594 z m 61.04,70.359 c 26.36,-9.297 42.7,-36.816 43.15,-75.129 l 0,0.285 c 0.45,-6.601 -1.86,-13.761 -11.43,-13.761 l -92.09,0 c 3.04,-24.5316 19.36,-44.8909 42.67,-44.8909 10.74,0 21.92,3.582 30.99,12.5781 8.2,9.5898 20.28,-2.6875 11.21,-14.6406 -10.73,-12.8594 -26.34,-18.2891 -41.49,-17.9961 -18.2,0 -36.41,8.9843 -47.35,26.6289 -25.15,42.5236 -14.19,111.3396 29.15,126.9256 10.96,4.18 23.57,3.867 34.98,0 l 0.21,0" /><path
         id="path96"
         style="fill:#4f4c4c;fill-opacity:1;fill-rule:nonzero;stroke:none"
         d="m 5101.68,140.051 87.89,0 c -1.61,25.437 -13.75,44.879 -31.93,50.875 l 0.22,0 c -7.68,2.707 -17.25,2.707 -25.18,-0.281 -18.63,-6.309 -29.59,-26.348 -31,-50.594 z m 61.08,70.359 c 26.35,-9.297 42.65,-36.816 43.13,-75.129 l 0,0.285 c 0.49,-6.601 -1.89,-13.761 -11.42,-13.761 l -92.1,0 c 3.07,-24.5316 19.36,-44.8909 42.7,-44.8909 10.71,0 21.91,3.582 30.97,12.5781 8.17,9.5898 20.29,-2.6875 11.22,-14.6406 -10.74,-12.8594 -26.37,-18.2891 -41.52,-17.9961 -18.2,0 -36.36,8.9843 -47.31,26.6289 -25.18,42.5236 -14.22,111.3396 29.11,126.9256 10.96,4.18 23.58,3.867 34.99,0 l 0.23,0" /><path
         id="path98"
         style="fill:#4f4c4c;fill-opacity:1;fill-rule:nonzero;stroke:none"
         d="m 5214.29,198.711 c -3.51,12.598 11.89,19.766 16.1,8.094 16.07,-41.317 29.34,-75.133 45.67,-116.7269 l 46.15,117.3129 c 3.52,11.086 19.36,4.797 15.14,-7.489 L 5283.51,62.5273 c -3.01,-7.7539 -10.93,-10.164 -15.38,-0.2929 l -53.84,136.4766" /><path
         id="path100"
         style="fill:#4f4c4c;fill-opacity:1;fill-rule:nonzero;stroke:none"
         d="m 5361.18,140.051 87.89,0 c -1.65,25.437 -13.79,44.879 -31.95,50.875 l 0.22,0 c -7.67,2.707 -17.24,2.707 -25.16,-0.281 -18.68,-6.309 -29.64,-26.348 -31,-50.594 z m 61.06,70.359 c 26.35,-9.297 42.68,-36.816 43.14,-75.129 l 0,0.285 c 0.45,-6.601 -1.86,-13.761 -11.42,-13.761 l -92.11,0 c 3.03,-24.5316 19.36,-44.8909 42.67,-44.8909 10.72,0 21.9,3.582 31.01,12.5781 8.15,9.5898 20.26,-2.6875 11.2,-14.6406 -10.71,-12.8594 -26.36,-18.2891 -41.51,-17.9961 -18.18,0 -36.35,8.9843 -47.33,26.6289 -25.17,42.5236 -14.21,111.3396 29.15,126.9256 10.96,4.18 23.54,3.867 34.96,0 l 0.24,0" /><path
         id="path102"
         style="fill:#4f4c4c;fill-opacity:1;fill-rule:nonzero;stroke:none"
         d="m 5506.38,186.16 c 7.47,20.02 21.48,25.442 34.76,25.442 5.37,0 8.84,-3.614 8.84,-10.489 0,-6.582 -3.47,-10.187 -8.84,-10.187 -24.02,0 -34.26,-24.539 -34.26,-54.746 l 0,-67.6448 c 0,-6.3008 -3.97,-10.461 -8.42,-10.461 -5.11,0 -8.63,4.1602 -8.63,10.461 l 0,132.5778 c 0,13.164 16.55,14.356 16.55,0 l 0,-14.953" /><path
         id="path104"
         style="fill:#4f4c4c;fill-opacity:1;fill-rule:nonzero;stroke:none"
         d="m 5558.13,198.105 c -4.17,11.985 11.19,22.176 15.86,8.7 l 44.98,-115.5355 44.57,115.8395 c 4.17,11.668 19.56,4.493 15.85,-8.097 L 5604.54,8.07422 c -5.58,-14.04297 -20.29,-6.57031 -15.85,7.49218 l 20.54,53.5742 -51.1,128.9644" /><path
         id="path106"
         style="fill:#4f4c4c;fill-opacity:1;fill-rule:nonzero;stroke:none"
         d="m 5952.35,146.672 c -0.47,25.711 -16.56,44.254 -36.14,44.254 -24.46,0 -43.83,-23.336 -43.83,-57.75 l 0,-65.8518 c 0,-6.5547 -3.48,-10.4687 -8.62,-10.4687 -5.11,0 -8.59,3.914 -8.59,10.4687 l 0,74.2188 c 0,17.07 -5.38,33.535 -16.12,42.207 -6.05,4.785 -12.8,6.895 -20.04,6.895 -22.85,0 -43.62,-22.442 -43.62,-55.969 l 0,-67.3518 c 0,-13.7383 -16.97,-13.4453 -16.97,0 l 0,133.7888 c 0,5.692 3.71,10.489 8.36,10.489 5.14,0 8.16,-4.797 8.16,-10.489 l 0,-20.625 c 9.33,21.543 25.87,31.114 43.84,31.114 20.27,0 40.31,-12.891 47.32,-39.524 8.42,26.633 28.68,39.524 49.44,39.524 26.8,0 53.84,-23.067 53.84,-64.063 l 0,-80.2148 c 0,-6.5547 -3.5,-10.4687 -8.63,-10.4687 -5.37,0 -8.4,3.914 -8.4,10.4687 l 0,79.3478" /><path
         id="path108"
         style="fill:#4f4c4c;fill-opacity:1;fill-rule:nonzero;stroke:none"
         d="m 6054,193.027 c -4.42,0 -8.86,-0.89 -12.35,-2.101 -19.58,-6.59 -31.01,-29.891 -31.01,-56.875 0,-13.438 3.29,-27.488 10.24,-37.9963 8.16,-12.5703 20.55,-19.7149 33.36,-19.7149 12.61,0 25.41,7.75 33.56,19.7149 6.52,10.1833 10.28,24.5583 10.28,37.4103 0,27.25 -11.45,50.871 -31.23,57.461 -3.76,1.211 -8.41,2.101 -12.85,2.101 z M 6007.62,82.8984 c -10.49,15.8789 -14.95,35.0316 -14.21,57.4846 2.29,33.211 17.46,61.023 43.11,70.301 5.61,2.097 11.89,2.703 17.72,2.703 5.59,0 11.18,-0.606 17.27,-2.703 25.39,-9.278 41.25,-36.805 43.34,-70.301 0.93,-22.453 -3.73,-41.6057 -13.98,-57.4846 -11.43,-17.6367 -28.22,-26.9218 -46.63,-26.9218 -18.65,0 -35.19,9.2851 -46.62,26.9218" /><path
         id="path110"
         style="fill:#4f4c4c;fill-opacity:1;fill-rule:nonzero;stroke:none"
         d="m 6235.15,146.672 c 0,27.488 -17.27,46.668 -36.12,46.668 -22.61,0 -43.83,-23.957 -43.83,-56.582 l 0,-69.4338 c 0,-6.5547 -3.02,-10.4687 -8.42,-10.4687 -5.34,0 -8.84,3.914 -8.84,10.4687 l 0,134.0818 c 0,13.77 16.81,14.063 16.81,-0.293 l 0,-18.535 c 8.38,21.836 26.31,31.102 44.51,31.102 27.05,0 52.91,-23.946 52.91,-67.008 l 0,-79.3478 c 0,-6.5547 -3.03,-10.4687 -8.38,-10.4687 -5.13,0 -8.64,3.914 -8.64,10.4687 l 0,79.3478" /><path
         id="path112"
         style="fill:#4f4c4c;fill-opacity:1;fill-rule:nonzero;stroke:none"
         d="m 6332.57,211.008 c 10.53,0 10.53,-18.871 0,-18.871 l -25.37,0 0,-80.809 c 0,-17.0624 2.09,-34.9882 17.94,-34.9882 3.49,0 8.61,1.461 10.96,3.2774 9.8,7.1875 17.46,-10.4766 7,-17.9453 -5.82,-4.2031 -11.68,-5.1094 -17.96,-5.1094 -27.98,0 -34.75,26.3359 -34.75,54.7655 l 0,80.809 -15.39,0 c -10.97,0 -10.24,18.871 0,18.871 l 15.39,0 0,34.676 c 0,14.406 16.81,14.082 16.81,0 l 0,-34.676 25.37,0" /><path
         id="path114"
         style="fill:#4f4c4c;fill-opacity:1;fill-rule:nonzero;stroke:none"
         d="m 6463.62,146.672 c 0,27.488 -17.27,46.668 -36.16,46.668 -22.61,0 -43.82,-20.352 -43.82,-51.172 l 0,-74.5117 c 0,-6.6016 -3.02,-10.8008 -8.4,-10.8008 -5.36,0 -8.85,4.1992 -8.85,10.8008 l 0,179.2187 c 0,12.891 17.25,12.605 17.25,0 l 0,-62.812 c 8.41,20.945 26.59,29.617 44.05,29.617 27.07,0 52.93,-23.946 52.93,-67.008 l 0,-79.0157 c 0,-6.6016 -3.03,-10.8008 -8.39,-10.8008 -5.12,0 -8.61,4.1992 -8.61,10.8008 l 0,79.0157" /><path
         id="path116"
         style="fill:#56b2da;fill-opacity:1;fill-rule:nonzero;stroke:none"
         d="m 229.871,589.297 c -0.558,0.066 -1.094,0.168 -1.687,0.168 -48.868,0 -97.731,0 -146.5863,0 -17.5664,0 -17.5664,-27.219 0,-27.219 44.9183,0 89.8243,0 134.7503,0 -7.137,-43.113 -14.282,-86.238 -21.422,-129.355 -48.828,0 -97.6447,0 -146.4651,0 -17.5586,0 -17.5586,-27.227 0,-27.227 52.6441,0 105.2931,0 157.9411,0 0.645,0 1.211,0.106 1.821,0.184 5.269,-0.02 10.156,2.89 11.304,9.816 8.649,52.188 17.286,104.387 25.934,156.57 1.75,10.586 -7.535,17.403 -15.59,17.063" /><path
         id="path118"
         style="fill:#56b2da;fill-opacity:1;fill-rule:nonzero;stroke:none"
         d="m 659.586,178.445 c -7.598,-29.695 -34.504,-51.746 -66.543,-51.746 -32.027,0 -58.938,22.051 -66.527,51.746 -1.411,5.473 -2.223,11.145 -2.223,17.024 0,7.363 1.191,14.453 3.348,21.113 8.929,27.606 34.863,47.637 65.402,47.637 30.547,0 56.484,-20.031 65.41,-47.637 2.16,-6.66 3.356,-13.75 3.356,-21.113 0,-5.879 -0.829,-11.551 -2.223,-17.024 z M 379.387,269.98 c 0,-29.445 -23.973,-53.398 -53.414,-53.398 l -7.489,0 c -9.828,48.848 -53.058,85.762 -104.761,85.762 -51.707,0 -94.938,-36.914 -104.762,-85.762 l -15.7462,0 c -21.75,0 -39.8789,6.277 -48.4921,16.805 -6.4375,7.883 -8.1719,18.617 -5.2461,33.086 L 92.5977,549.57 c 9.7853,50.157 31.6213,57.063 53.7693,57.063 l 179.606,0 c 29.441,0 53.414,-23.957 53.414,-53.418 l 0,-283.235 z m -99.129,-91.535 c -7.598,-29.695 -34.504,-51.746 -66.535,-51.746 -32.028,0 -58.938,22.051 -66.543,51.746 -1.395,5.473 -2.219,11.145 -2.219,17.024 0,7.363 1.199,14.453 3.352,21.113 8.933,27.606 34.867,47.637 65.41,47.637 30.547,0 56.472,-20.031 65.402,-47.637 2.152,-6.66 3.355,-13.75 3.355,-21.113 0,-5.879 -0.824,-11.551 -2.222,-17.024 z m 594.879,-51.746 c -32.032,0 -58.946,22.051 -66.543,51.746 -1.387,5.473 -2.215,11.145 -2.215,17.024 0,7.363 1.199,14.453 3.348,21.113 4.687,14.481 14.086,26.856 26.347,35.371 l -20.469,32.168 C 792.68,268.672 776.012,244.609 770.371,216.582 l -72.562,0 c -9.821,48.848 -53.051,85.762 -104.766,85.762 -51.699,0 -94.938,-36.914 -104.762,-85.762 l -3.679,0 c -34.536,0 -62.629,28.094 -62.629,62.617 l 0,498.985 c 0,34.539 28.093,62.625 62.629,62.625 l 498.984,0 c 34.534,0 62.624,-28.086 62.624,-62.625 l 0,-498.985 c 0,-22.195 -11.64,-41.699 -29.13,-52.812 l 20.45,-32.129 c 28.09,17.898 46.81,49.25 46.81,84.941 l 0,498.985 c 0,55.554 -45.2,100.75 -100.754,100.75 l -498.984,0 c -55.559,0 -100.754,-45.196 -100.754,-100.75 l 0,-154.114 c -15.785,12.91 -35.938,20.688 -57.875,20.688 l -179.606,0 c -49.1248,0 -79.8084,-29.574 -91.2107,-88.02 L 2.0625,273.75 c -6.49219,-32.078 3.56641,-52.773 13.1523,-64.492 16.0157,-19.582 44.4415,-30.813 78,-30.813 l 15.1092,0 c 8.196,-50.855 52.262,-89.8591 105.399,-89.8591 53.129,0 97.207,39.0041 105.394,89.8591 l 6.856,0 c 32.246,0 60.582,16.809 76.894,42.071 18.309,-25.426 48.078,-42.071 81.735,-42.071 l 3.05,0 c 8.2,-50.855 52.266,-89.8591 105.391,-89.8591 53.133,0 97.207,39.0041 105.398,89.8591 l 71.301,0 c 8.192,-50.855 52.266,-89.8591 105.395,-89.8591 20.152,0 38.984,5.6329 55.074,15.3671 l -20.481,32.188 c -10.16,-5.965 -21.972,-9.442 -34.593,-9.442" /><path
         id="path120"
         style="fill:#60c332;fill-opacity:1;fill-rule:nonzero;stroke:none"
         d="m 828.066,394.031 c -13.679,-8.699 -28.503,-15.105 -44.058,-19.043 -12.293,-3.125 -24.938,-4.695 -37.555,-4.695 -52.144,0 -100.004,26.309 -128.015,70.359 -44.946,70.657 -24.036,164.688 46.605,209.629 13.656,8.672 28.473,15.09 44.043,19.055 12.309,3.105 24.937,4.695 37.555,4.695 52.136,0 100,-26.308 128.043,-70.39 21.734,-34.161 28.851,-74.813 20.039,-114.453 -8.817,-39.629 -32.489,-73.418 -66.657,-95.157 z m 55.641,-23.972 9.285,9.531 c 66.477,68.113 77.188,171.844 26.035,252.273 -37.738,59.317 -102.14,94.739 -172.289,94.739 -16.992,0 -34.019,-2.129 -50.609,-6.348 C 675.18,714.941 655.242,706.309 636.848,694.617 590.859,665.352 559,619.852 547.133,566.512 c -11.863,-53.36 -2.285,-108.067 26.965,-154.063 37.718,-59.285 102.093,-94.687 172.23,-94.687 16.992,0 34.027,2.14 50.637,6.359 5.551,1.395 11.164,3.074 16.691,4.988 l 12.532,4.348 175.602,-276.0859 c 6.32,-9.9023 17.07,-15.8477 28.74,-15.8477 l 0,0 c 2.51,0 5.03,0.293 7.49,0.8594 l 0.98,0.2344 c 3.45,0.8789 6.78,2.3125 9.9,4.2851 15.84,10.0899 20.54,31.211 10.46,47.0821 L 883.707,370.059" /></g></g></svg>